<svg xmlns="http://www.w3.org/2000/svg" xmlns:xlink="http://www.w3.org/1999/xlink" viewBox="0 0 1920 1080"><defs><style>.cls-1{fill:url(#linear-gradient);}.cls-2{fill:url(#linear-gradient-2);}.cls-3{fill:url(#linear-gradient-3);}.cls-4{fill:url(#linear-gradient-4);}.cls-5{fill:url(#linear-gradient-5);}.cls-6{fill:url(#linear-gradient-6);}.cls-7{fill:url(#linear-gradient-7);}.cls-8{fill:url(#linear-gradient-8);}.cls-9{fill:url(#linear-gradient-9);}.cls-10{fill:url(#linear-gradient-10);}.cls-11{fill:url(#linear-gradient-11);}.cls-12{fill:url(#linear-gradient-12);}.cls-13{fill:url(#linear-gradient-13);}.cls-14{fill:url(#linear-gradient-14);}.cls-15{fill:url(#linear-gradient-15);}.cls-16{fill:url(#linear-gradient-16);}.cls-17{fill:url(#linear-gradient-17);}.cls-18{fill:url(#linear-gradient-18);}.cls-19{fill:url(#linear-gradient-19);}.cls-20{fill:url(#linear-gradient-20);}.cls-21{fill:url(#linear-gradient-21);}.cls-22{fill:url(#linear-gradient-22);}.cls-23{fill:url(#linear-gradient-23);}.cls-24{fill:url(#linear-gradient-24);}.cls-25{fill:url(#linear-gradient-25);}.cls-26{fill:url(#linear-gradient-26);}.cls-27{fill:url(#linear-gradient-27);}.cls-28{fill:url(#linear-gradient-28);}.cls-29{fill:url(#linear-gradient-29);}.cls-30{fill:url(#linear-gradient-30);}.cls-31{fill:url(#linear-gradient-31);}.cls-32{fill:url(#linear-gradient-32);}.cls-33{fill:url(#linear-gradient-33);}.cls-34{fill:url(#linear-gradient-34);}.cls-35{fill:url(#linear-gradient-35);}.cls-36{fill:url(#linear-gradient-36);}.cls-37{fill:url(#linear-gradient-37);}.cls-38{fill:url(#linear-gradient-38);}.cls-39{fill:url(#linear-gradient-39);}.cls-40{fill:url(#linear-gradient-40);}.cls-41{fill:url(#linear-gradient-41);}.cls-42{fill:url(#linear-gradient-42);}.cls-43{fill:none;}.cls-44{isolation:isolate;}.cls-45{fill:#e1251b;}.cls-46{fill:#010101;opacity:0.9;mix-blend-mode:darken;}.cls-47{mix-blend-mode:overlay;}.cls-48{fill:#fff;}.cls-49{clip-path:url(#clip-path);}.cls-50{mask:url(#mask);}.cls-51{fill:url(#linear-gradient-43);}.cls-52{mask:url(#mask-2);}.cls-53{fill:url(#linear-gradient-44);}.cls-54{mask:url(#mask-3);}.cls-55{fill:url(#linear-gradient-45);}.cls-56{mask:url(#mask-4);}.cls-57{fill:url(#linear-gradient-46);}.cls-58{mask:url(#mask-5);}.cls-59{fill:url(#linear-gradient-47);}.cls-60{mask:url(#mask-6);}.cls-61{fill:url(#linear-gradient-48);}.cls-62{mask:url(#mask-7);}.cls-63{fill:url(#linear-gradient-49);}.cls-64{mask:url(#mask-8);}.cls-65{fill:url(#linear-gradient-50);}.cls-66{mask:url(#mask-9);}.cls-67{fill:url(#linear-gradient-51);}.cls-68{mask:url(#mask-10);}.cls-69{fill:url(#linear-gradient-52);}.cls-70{mask:url(#mask-11);}.cls-71{fill:url(#linear-gradient-53);}.cls-72{mask:url(#mask-12);}.cls-73{fill:url(#linear-gradient-54);}.cls-74{mask:url(#mask-13);}.cls-75{fill:url(#linear-gradient-55);}.cls-76{mask:url(#mask-14);}.cls-77{fill:url(#linear-gradient-56);}.cls-78{mask:url(#mask-15);}.cls-79{fill:url(#linear-gradient-57);}.cls-80{mask:url(#mask-16);}.cls-81{fill:url(#linear-gradient-58);}.cls-82{mask:url(#mask-17);}.cls-83{fill:url(#linear-gradient-59);}.cls-84{mask:url(#mask-18);}.cls-85{fill:url(#linear-gradient-60);}.cls-86{mask:url(#mask-19);}.cls-87{fill:url(#linear-gradient-61);}.cls-88{mask:url(#mask-20);}.cls-89{fill:url(#linear-gradient-62);}.cls-90{mask:url(#mask-21);}.cls-91{fill:url(#linear-gradient-63);}.cls-92{clip-path:url(#clip-path-2);}.cls-93{mask:url(#mask-22);}.cls-94{fill:url(#linear-gradient-64);}.cls-95{mask:url(#mask-23);}.cls-96{fill:url(#linear-gradient-65);}.cls-97{mask:url(#mask-24);}.cls-98{fill:url(#linear-gradient-66);}.cls-99{mask:url(#mask-25);}.cls-100{fill:url(#linear-gradient-67);}.cls-101{mask:url(#mask-26);}.cls-102{fill:url(#linear-gradient-68);}.cls-103{mask:url(#mask-27);}.cls-104{fill:url(#linear-gradient-69);}.cls-105{mask:url(#mask-28);}.cls-106{fill:url(#linear-gradient-70);}.cls-107{mask:url(#mask-29);}.cls-108{fill:url(#linear-gradient-71);}.cls-109{mask:url(#mask-30);}.cls-110{fill:url(#linear-gradient-72);}.cls-111{mask:url(#mask-31);}.cls-112{fill:url(#linear-gradient-73);}.cls-113{mask:url(#mask-32);}.cls-114{fill:url(#linear-gradient-74);}.cls-115{mask:url(#mask-33);}.cls-116{fill:url(#linear-gradient-75);}.cls-117{mask:url(#mask-34);}.cls-118{fill:url(#linear-gradient-76);}.cls-119{mask:url(#mask-35);}.cls-120{fill:url(#linear-gradient-77);}.cls-121{mask:url(#mask-36);}.cls-122{fill:url(#linear-gradient-78);}.cls-123{mask:url(#mask-37);}.cls-124{fill:url(#linear-gradient-79);}.cls-125{mask:url(#mask-38);}.cls-126{fill:url(#linear-gradient-80);}.cls-127{mask:url(#mask-39);}.cls-128{fill:url(#linear-gradient-81);}.cls-129{mask:url(#mask-40);}.cls-130{fill:url(#linear-gradient-82);}.cls-131{mask:url(#mask-41);}.cls-132{fill:url(#linear-gradient-83);}.cls-133{mask:url(#mask-42);}.cls-134{fill:url(#linear-gradient-84);}.cls-135{clip-path:url(#clip-path-3);}</style><linearGradient id="linear-gradient" x1="-2203.58" y1="902.82" x2="-1686.52" y2="902.82" gradientTransform="translate(2234.35 -756.71)" gradientUnits="userSpaceOnUse"><stop offset="0" stop-color="#fff"/><stop offset="0.09" stop-color="#f8f8f8"/><stop offset="0.22" stop-color="#e6e6e6"/><stop offset="0.36" stop-color="#c8c8c8"/><stop offset="0.53" stop-color="#9e9e9e"/><stop offset="0.71" stop-color="#686868"/><stop offset="0.89" stop-color="#272727"/><stop offset="0.99" stop-color="#010101"/></linearGradient><linearGradient id="linear-gradient-2" x1="2058.74" y1="930.53" x2="2575.81" y2="930.53" gradientTransform="matrix(-1, 0, 0, 1, 2619.83, -756.71)" xlink:href="#linear-gradient"/><linearGradient id="linear-gradient-3" x1="-2203.59" y1="1179.93" x2="-1686.52" y2="1179.93" xlink:href="#linear-gradient"/><linearGradient id="linear-gradient-4" x1="2058.74" y1="1207.64" x2="2575.81" y2="1207.64" gradientTransform="matrix(-1, 0, 0, 1, 2619.83, -756.71)" xlink:href="#linear-gradient"/><linearGradient id="linear-gradient-5" x1="-2203.58" y1="1235.35" x2="-1686.52" y2="1235.35" xlink:href="#linear-gradient"/><linearGradient id="linear-gradient-6" x1="2058.74" y1="1263.06" x2="2575.81" y2="1263.06" gradientTransform="matrix(-1, 0, 0, 1, 2619.83, -756.71)" xlink:href="#linear-gradient"/><linearGradient id="linear-gradient-7" x1="-2203.59" y1="1290.78" x2="-1686.52" y2="1290.78" xlink:href="#linear-gradient"/><linearGradient id="linear-gradient-8" x1="2058.74" y1="1318.49" x2="2575.81" y2="1318.49" gradientTransform="matrix(-1, 0, 0, 1, 2619.83, -756.71)" xlink:href="#linear-gradient"/><linearGradient id="linear-gradient-9" x1="-2203.58" y1="1346.2" x2="-1686.52" y2="1346.2" xlink:href="#linear-gradient"/><linearGradient id="linear-gradient-10" x1="2058.74" y1="1373.91" x2="2575.81" y2="1373.91" gradientTransform="matrix(-1, 0, 0, 1, 2619.83, -756.71)" xlink:href="#linear-gradient"/><linearGradient id="linear-gradient-11" x1="-2203.59" y1="1401.62" x2="-1686.52" y2="1401.62" xlink:href="#linear-gradient"/><linearGradient id="linear-gradient-12" x1="2058.74" y1="1429.33" x2="2575.81" y2="1429.33" gradientTransform="matrix(-1, 0, 0, 1, 2619.83, -756.71)" xlink:href="#linear-gradient"/><linearGradient id="linear-gradient-13" x1="-2203.59" y1="958.24" x2="-1686.52" y2="958.24" xlink:href="#linear-gradient"/><linearGradient id="linear-gradient-14" x1="-2203.58" y1="1457.04" x2="-1686.52" y2="1457.04" xlink:href="#linear-gradient"/><linearGradient id="linear-gradient-15" x1="-947.86" y1="1247.77" x2="-430.79" y2="1247.77" xlink:href="#linear-gradient"/><linearGradient id="linear-gradient-16" x1="803.02" y1="1275.48" x2="1320.08" y2="1275.48" gradientTransform="matrix(-1, 0, 0, 1, 2619.83, -756.71)" xlink:href="#linear-gradient"/><linearGradient id="linear-gradient-17" x1="-947.86" y1="1303.19" x2="-430.79" y2="1303.19" xlink:href="#linear-gradient"/><linearGradient id="linear-gradient-18" x1="803.02" y1="1330.91" x2="1320.08" y2="1330.91" gradientTransform="matrix(-1, 0, 0, 1, 2619.83, -756.71)" xlink:href="#linear-gradient"/><linearGradient id="linear-gradient-19" x1="-947.86" y1="1358.62" x2="-430.79" y2="1358.62" xlink:href="#linear-gradient"/><linearGradient id="linear-gradient-20" x1="803.02" y1="1386.33" x2="1320.08" y2="1386.33" gradientTransform="matrix(-1, 0, 0, 1, 2619.83, -756.71)" xlink:href="#linear-gradient"/><linearGradient id="linear-gradient-21" x1="-947.86" y1="1414.04" x2="-430.79" y2="1414.04" xlink:href="#linear-gradient"/><linearGradient id="linear-gradient-22" x1="803.02" y1="1441.75" x2="1320.08" y2="1441.75" gradientTransform="matrix(-1, 0, 0, 1, 2619.83, -756.71)" xlink:href="#linear-gradient"/><linearGradient id="linear-gradient-23" x1="-947.86" y1="1469.46" x2="-430.79" y2="1469.46" xlink:href="#linear-gradient"/><linearGradient id="linear-gradient-24" x1="2058.74" y1="985.95" x2="2575.81" y2="985.95" gradientTransform="matrix(-1, 0, 0, 1, 2619.83, -756.71)" xlink:href="#linear-gradient"/><linearGradient id="linear-gradient-25" x1="803.02" y1="1497.17" x2="1320.08" y2="1497.17" gradientTransform="matrix(-1, 0, 0, 1, 2619.83, -756.71)" xlink:href="#linear-gradient"/><linearGradient id="linear-gradient-26" x1="-947.86" y1="1524.88" x2="-430.79" y2="1524.88" xlink:href="#linear-gradient"/><linearGradient id="linear-gradient-27" x1="803.02" y1="1552.6" x2="1320.08" y2="1552.6" gradientTransform="matrix(-1, 0, 0, 1, 2619.83, -756.71)" xlink:href="#linear-gradient"/><linearGradient id="linear-gradient-28" x1="-947.86" y1="1580.31" x2="-430.79" y2="1580.31" xlink:href="#linear-gradient"/><linearGradient id="linear-gradient-29" x1="803.02" y1="1608.02" x2="1320.09" y2="1608.02" gradientTransform="matrix(-1, 0, 0, 1, 2619.83, -756.71)" xlink:href="#linear-gradient"/><linearGradient id="linear-gradient-30" x1="-947.86" y1="1635.73" x2="-430.79" y2="1635.73" xlink:href="#linear-gradient"/><linearGradient id="linear-gradient-31" x1="803.02" y1="1663.44" x2="1320.08" y2="1663.44" gradientTransform="matrix(-1, 0, 0, 1, 2619.83, -756.71)" xlink:href="#linear-gradient"/><linearGradient id="linear-gradient-32" x1="-947.86" y1="1691.15" x2="-430.79" y2="1691.15" xlink:href="#linear-gradient"/><linearGradient id="linear-gradient-33" x1="803.02" y1="1718.86" x2="1320.09" y2="1718.86" gradientTransform="matrix(-1, 0, 0, 1, 2619.83, -756.71)" xlink:href="#linear-gradient"/><linearGradient id="linear-gradient-34" x1="-947.86" y1="1746.57" x2="-430.79" y2="1746.57" xlink:href="#linear-gradient"/><linearGradient id="linear-gradient-35" x1="-2203.58" y1="1013.66" x2="-1686.52" y2="1013.66" xlink:href="#linear-gradient"/><linearGradient id="linear-gradient-36" x1="803.02" y1="1774.29" x2="1320.08" y2="1774.29" gradientTransform="matrix(-1, 0, 0, 1, 2619.83, -756.71)" xlink:href="#linear-gradient"/><linearGradient id="linear-gradient-37" x1="-947.86" y1="1802" x2="-430.79" y2="1802" xlink:href="#linear-gradient"/><linearGradient id="linear-gradient-38" x1="2058.74" y1="1041.38" x2="2575.81" y2="1041.38" gradientTransform="matrix(-1, 0, 0, 1, 2619.83, -756.71)" xlink:href="#linear-gradient"/><linearGradient id="linear-gradient-39" x1="-2203.59" y1="1069.09" x2="-1686.52" y2="1069.09" xlink:href="#linear-gradient"/><linearGradient id="linear-gradient-40" x1="2058.74" y1="1096.8" x2="2575.81" y2="1096.8" gradientTransform="matrix(-1, 0, 0, 1, 2619.83, -756.71)" xlink:href="#linear-gradient"/><linearGradient id="linear-gradient-41" x1="-2203.58" y1="1124.51" x2="-1686.52" y2="1124.51" xlink:href="#linear-gradient"/><linearGradient id="linear-gradient-42" x1="2058.74" y1="1152.22" x2="2575.81" y2="1152.22" gradientTransform="matrix(-1, 0, 0, 1, 2619.83, -756.71)" xlink:href="#linear-gradient"/><clipPath id="clip-path"><ellipse class="cls-43" cx="295.92" cy="424.95" rx="238.65" ry="178.14"/></clipPath><mask id="mask" x="4.25" y="111.22" width="587.99" height="69.78" maskUnits="userSpaceOnUse"><rect class="cls-1" x="4.25" y="111.22" width="587.99" height="69.78"/></mask><linearGradient id="linear-gradient-43" x1="-1341.15" y1="2435.48" x2="-958.67" y2="2435.48" gradientTransform="translate(2831.15 -761.18) rotate(45)" gradientUnits="userSpaceOnUse"><stop offset="0" stop-color="#fff"/><stop offset="0.07" stop-color="#f7f7f7"/><stop offset="0.48" stop-color="#cecece"/><stop offset="0.8" stop-color="#b5b5b5"/><stop offset="1" stop-color="#acacac"/></linearGradient><mask id="mask-2" x="-0.39" y="138.94" width="588" height="69.77" maskUnits="userSpaceOnUse"><rect class="cls-2" x="-0.39" y="138.94" width="588" height="69.77"/></mask><linearGradient id="linear-gradient-44" x1="-1321.56" y1="2455.07" x2="-939.08" y2="2455.07" xlink:href="#linear-gradient-43"/><mask id="mask-3" x="4.24" y="166.65" width="588" height="69.77" maskUnits="userSpaceOnUse"><rect class="cls-13" x="4.25" y="166.65" width="588" height="69.77"/></mask><linearGradient id="linear-gradient-45" x1="-1301.96" y1="2474.67" x2="-919.48" y2="2474.67" xlink:href="#linear-gradient-43"/><mask id="mask-4" x="-0.39" y="194.35" width="588" height="69.78" maskUnits="userSpaceOnUse"><rect class="cls-24" x="-0.39" y="194.35" width="588" height="69.78"/></mask><linearGradient id="linear-gradient-46" x1="-1282.36" y1="2494.26" x2="-899.89" y2="2494.26" xlink:href="#linear-gradient-43"/><mask id="mask-5" x="4.25" y="222.06" width="587.99" height="69.78" maskUnits="userSpaceOnUse"><rect class="cls-35" x="4.25" y="222.06" width="587.99" height="69.78"/></mask><linearGradient id="linear-gradient-47" x1="-1262.77" y1="2513.86" x2="-880.29" y2="2513.86" xlink:href="#linear-gradient-43"/><mask id="mask-6" x="-0.39" y="249.78" width="588" height="69.77" maskUnits="userSpaceOnUse"><rect class="cls-38" x="-0.39" y="249.78" width="588" height="69.77"/></mask><linearGradient id="linear-gradient-48" x1="-1243.18" y1="2533.45" x2="-860.69" y2="2533.45" xlink:href="#linear-gradient-43"/><mask id="mask-7" x="4.24" y="277.49" width="588" height="69.77" maskUnits="userSpaceOnUse"><rect class="cls-39" x="4.25" y="277.49" width="588" height="69.77"/></mask><linearGradient id="linear-gradient-49" x1="-1223.58" y1="2553.05" x2="-841.1" y2="2553.05" xlink:href="#linear-gradient-43"/><mask id="mask-8" x="-0.39" y="305.2" width="588" height="69.77" maskUnits="userSpaceOnUse"><rect class="cls-40" x="-0.39" y="305.2" width="588" height="69.77"/></mask><linearGradient id="linear-gradient-50" x1="-1203.99" y1="2572.64" x2="-821.51" y2="2572.64" xlink:href="#linear-gradient-43"/><mask id="mask-9" x="4.25" y="332.91" width="587.99" height="69.78" maskUnits="userSpaceOnUse"><rect class="cls-41" x="4.25" y="332.91" width="587.99" height="69.78"/></mask><linearGradient id="linear-gradient-51" x1="-1184.39" y1="2592.24" x2="-801.91" y2="2592.24" xlink:href="#linear-gradient-43"/><mask id="mask-10" x="-0.39" y="360.63" width="588" height="69.77" maskUnits="userSpaceOnUse"><rect class="cls-42" x="-0.39" y="360.63" width="588" height="69.77"/></mask><linearGradient id="linear-gradient-52" x1="-1164.8" y1="2611.83" x2="-782.32" y2="2611.83" xlink:href="#linear-gradient-43"/><mask id="mask-11" x="4.24" y="388.34" width="588" height="69.77" maskUnits="userSpaceOnUse"><rect class="cls-3" x="4.25" y="388.34" width="588" height="69.77"/></mask><linearGradient id="linear-gradient-53" x1="-1145.2" y1="2631.43" x2="-762.72" y2="2631.43" xlink:href="#linear-gradient-43"/><mask id="mask-12" x="-0.39" y="416.04" width="588" height="69.78" maskUnits="userSpaceOnUse"><rect class="cls-4" x="-0.39" y="416.04" width="588" height="69.78"/></mask><linearGradient id="linear-gradient-54" x1="-1125.61" y1="2651.02" x2="-743.13" y2="2651.02" xlink:href="#linear-gradient-43"/><mask id="mask-13" x="4.25" y="443.75" width="587.99" height="69.78" maskUnits="userSpaceOnUse"><rect class="cls-5" x="4.25" y="443.75" width="587.99" height="69.78"/></mask><linearGradient id="linear-gradient-55" x1="-1106.01" y1="2670.62" x2="-723.53" y2="2670.62" xlink:href="#linear-gradient-43"/><mask id="mask-14" x="-0.39" y="471.47" width="588" height="69.77" maskUnits="userSpaceOnUse"><rect class="cls-6" x="-0.39" y="471.47" width="588" height="69.77"/></mask><linearGradient id="linear-gradient-56" x1="-1086.42" y1="2690.21" x2="-703.93" y2="2690.21" xlink:href="#linear-gradient-43"/><mask id="mask-15" x="4.24" y="499.18" width="588" height="69.77" maskUnits="userSpaceOnUse"><rect class="cls-7" x="4.25" y="499.18" width="588" height="69.77"/></mask><linearGradient id="linear-gradient-57" x1="-1066.82" y1="2709.81" x2="-684.34" y2="2709.81" xlink:href="#linear-gradient-43"/><mask id="mask-16" x="-0.39" y="526.89" width="588" height="69.77" maskUnits="userSpaceOnUse"><rect class="cls-8" x="-0.39" y="526.89" width="588" height="69.77"/></mask><linearGradient id="linear-gradient-58" x1="-1047.23" y1="2729.4" x2="-664.75" y2="2729.4" xlink:href="#linear-gradient-43"/><mask id="mask-17" x="4.25" y="554.6" width="587.99" height="69.78" maskUnits="userSpaceOnUse"><rect class="cls-9" x="4.25" y="554.6" width="587.99" height="69.78"/></mask><linearGradient id="linear-gradient-59" x1="-1027.63" y1="2749" x2="-645.15" y2="2749" xlink:href="#linear-gradient-43"/><mask id="mask-18" x="-0.39" y="582.31" width="588" height="69.77" maskUnits="userSpaceOnUse"><rect class="cls-10" x="-0.39" y="582.31" width="588" height="69.77"/></mask><linearGradient id="linear-gradient-60" x1="-1008.04" y1="2768.59" x2="-625.56" y2="2768.59" xlink:href="#linear-gradient-43"/><mask id="mask-19" x="4.24" y="610.03" width="588" height="69.77" maskUnits="userSpaceOnUse"><rect class="cls-11" x="4.25" y="610.03" width="588" height="69.77"/></mask><linearGradient id="linear-gradient-61" x1="-988.44" y1="2788.19" x2="-605.96" y2="2788.19" xlink:href="#linear-gradient-43"/><mask id="mask-20" x="-0.39" y="637.73" width="588" height="69.78" maskUnits="userSpaceOnUse"><rect class="cls-12" x="-0.39" y="637.73" width="588" height="69.78"/></mask><linearGradient id="linear-gradient-62" x1="-968.85" y1="2807.78" x2="-586.37" y2="2807.78" xlink:href="#linear-gradient-43"/><mask id="mask-21" x="4.25" y="665.44" width="587.99" height="69.78" maskUnits="userSpaceOnUse"><rect class="cls-14" x="4.25" y="665.44" width="587.99" height="69.78"/></mask><linearGradient id="linear-gradient-63" x1="-949.25" y1="2827.38" x2="-566.77" y2="2827.38" xlink:href="#linear-gradient-43"/><clipPath id="clip-path-2"><ellipse class="cls-43" cx="1551.65" cy="769.9" rx="238.65" ry="178.14"/></clipPath><mask id="mask-22" x="1259.97" y="456.17" width="588" height="69.78" maskUnits="userSpaceOnUse"><rect class="cls-15" x="1259.97" y="456.17" width="588" height="69.78"/></mask><linearGradient id="linear-gradient-64" x1="-209.29" y1="1791.45" x2="173.19" y2="1791.45" xlink:href="#linear-gradient-43"/><mask id="mask-23" x="1255.33" y="483.89" width="587.99" height="69.77" maskUnits="userSpaceOnUse"><rect class="cls-16" x="1255.33" y="483.89" width="587.99" height="69.77"/></mask><linearGradient id="linear-gradient-65" x1="-189.69" y1="1811.05" x2="192.79" y2="1811.05" xlink:href="#linear-gradient-43"/><mask id="mask-24" x="1259.97" y="511.6" width="588" height="69.77" maskUnits="userSpaceOnUse"><rect class="cls-17" x="1259.97" y="511.6" width="588" height="69.77"/></mask><linearGradient id="linear-gradient-66" x1="-170.1" y1="1830.64" x2="212.38" y2="1830.64" xlink:href="#linear-gradient-43"/><mask id="mask-25" x="1255.33" y="539.31" width="587.99" height="69.78" maskUnits="userSpaceOnUse"><rect class="cls-18" x="1255.33" y="539.31" width="587.99" height="69.78"/></mask><linearGradient id="linear-gradient-67" x1="-150.5" y1="1850.24" x2="231.98" y2="1850.24" xlink:href="#linear-gradient-43"/><mask id="mask-26" x="1259.97" y="567.02" width="588" height="69.77" maskUnits="userSpaceOnUse"><rect class="cls-19" x="1259.97" y="567.02" width="588" height="69.77"/></mask><linearGradient id="linear-gradient-68" x1="-130.91" y1="1869.83" x2="251.57" y2="1869.83" xlink:href="#linear-gradient-43"/><mask id="mask-27" x="1255.33" y="594.73" width="587.99" height="69.77" maskUnits="userSpaceOnUse"><rect class="cls-20" x="1255.33" y="594.73" width="587.99" height="69.77"/></mask><linearGradient id="linear-gradient-69" x1="-111.32" y1="1889.43" x2="271.17" y2="1889.43" xlink:href="#linear-gradient-43"/><mask id="mask-28" x="1259.97" y="622.44" width="588" height="69.77" maskUnits="userSpaceOnUse"><rect class="cls-21" x="1259.97" y="622.44" width="588" height="69.77"/></mask><linearGradient id="linear-gradient-70" x1="-91.72" y1="1909.02" x2="290.76" y2="1909.02" xlink:href="#linear-gradient-43"/><mask id="mask-29" x="1255.33" y="650.15" width="587.99" height="69.78" maskUnits="userSpaceOnUse"><rect class="cls-22" x="1255.33" y="650.15" width="587.99" height="69.78"/></mask><linearGradient id="linear-gradient-71" x1="-72.12" y1="1928.62" x2="310.36" y2="1928.62" xlink:href="#linear-gradient-43"/><mask id="mask-30" x="1259.97" y="677.86" width="588" height="69.78" maskUnits="userSpaceOnUse"><rect class="cls-23" x="1259.97" y="677.86" width="588" height="69.78"/></mask><linearGradient id="linear-gradient-72" x1="-52.53" y1="1948.21" x2="329.95" y2="1948.21" xlink:href="#linear-gradient-43"/><mask id="mask-31" x="1255.33" y="705.58" width="587.99" height="69.77" maskUnits="userSpaceOnUse"><rect class="cls-25" x="1255.33" y="705.58" width="587.99" height="69.77"/></mask><linearGradient id="linear-gradient-73" x1="-32.93" y1="1967.81" x2="349.55" y2="1967.81" xlink:href="#linear-gradient-43"/><mask id="mask-32" x="1259.97" y="733.29" width="588" height="69.77" maskUnits="userSpaceOnUse"><rect class="cls-26" x="1259.97" y="733.29" width="588" height="69.77"/></mask><linearGradient id="linear-gradient-74" x1="-13.34" y1="1987.4" x2="369.14" y2="1987.4" xlink:href="#linear-gradient-43"/><mask id="mask-33" x="1255.33" y="761" width="587.99" height="69.78" maskUnits="userSpaceOnUse"><rect class="cls-27" x="1255.33" y="761" width="587.99" height="69.78"/></mask><linearGradient id="linear-gradient-75" x1="6.26" y1="2007" x2="388.74" y2="2007" xlink:href="#linear-gradient-43"/><mask id="mask-34" x="1259.97" y="788.71" width="588" height="69.77" maskUnits="userSpaceOnUse"><rect class="cls-28" x="1259.97" y="788.71" width="588" height="69.77"/></mask><linearGradient id="linear-gradient-76" x1="25.85" y1="2026.59" x2="408.33" y2="2026.59" xlink:href="#linear-gradient-43"/><mask id="mask-35" x="1255.33" y="816.42" width="588" height="69.77" maskUnits="userSpaceOnUse"><rect class="cls-29" x="1255.33" y="816.42" width="588" height="69.77"/></mask><linearGradient id="linear-gradient-77" x1="45.44" y1="2046.19" x2="427.93" y2="2046.19" xlink:href="#linear-gradient-43"/><mask id="mask-36" x="1259.97" y="844.13" width="588" height="69.77" maskUnits="userSpaceOnUse"><rect class="cls-30" x="1259.97" y="844.13" width="588" height="69.77"/></mask><linearGradient id="linear-gradient-78" x1="65.04" y1="2065.78" x2="447.52" y2="2065.78" xlink:href="#linear-gradient-43"/><mask id="mask-37" x="1255.33" y="871.84" width="587.99" height="69.78" maskUnits="userSpaceOnUse"><rect class="cls-31" x="1255.33" y="871.84" width="587.99" height="69.78"/></mask><linearGradient id="linear-gradient-79" x1="84.64" y1="2085.38" x2="467.12" y2="2085.38" xlink:href="#linear-gradient-43"/><mask id="mask-38" x="1259.97" y="899.55" width="588" height="69.78" maskUnits="userSpaceOnUse"><rect class="cls-32" x="1259.97" y="899.55" width="588" height="69.78"/></mask><linearGradient id="linear-gradient-80" x1="104.23" y1="2104.97" x2="486.71" y2="2104.97" xlink:href="#linear-gradient-43"/><mask id="mask-39" x="1255.33" y="927.26" width="588" height="69.77" maskUnits="userSpaceOnUse"><rect class="cls-33" x="1255.33" y="927.27" width="588" height="69.77"/></mask><linearGradient id="linear-gradient-81" x1="123.82" y1="2124.57" x2="506.31" y2="2124.57" xlink:href="#linear-gradient-43"/><mask id="mask-40" x="1259.97" y="954.98" width="588" height="69.77" maskUnits="userSpaceOnUse"><rect class="cls-34" x="1259.97" y="954.98" width="588" height="69.77"/></mask><linearGradient id="linear-gradient-82" x1="143.42" y1="2144.16" x2="525.9" y2="2144.16" xlink:href="#linear-gradient-43"/><mask id="mask-41" x="1255.33" y="982.69" width="587.99" height="69.78" maskUnits="userSpaceOnUse"><rect class="cls-36" x="1255.33" y="982.69" width="587.99" height="69.78"/></mask><linearGradient id="linear-gradient-83" x1="163.02" y1="2163.76" x2="545.5" y2="2163.76" xlink:href="#linear-gradient-43"/><mask id="mask-42" x="1259.97" y="1010.4" width="588" height="69.77" maskUnits="userSpaceOnUse"><rect class="cls-37" x="1259.97" y="1010.4" width="588" height="69.77"/></mask><linearGradient id="linear-gradient-84" x1="182.61" y1="2183.35" x2="565.09" y2="2183.35" xlink:href="#linear-gradient-43"/><clipPath id="clip-path-3"><rect id="_215483664" data-name=" 215483664" class="cls-43" x="-6.43" y="2.28" width="1928.89" height="1079.83"/></clipPath></defs><title>site-bg-landscape</title><g class="cls-44"><g id="Layer_1" data-name="Layer 1"><rect class="cls-45" x="423.02" y="-422.67" width="1079.89" height="1927" transform="translate(422.13 1503.8) rotate(-90)"/><rect class="cls-46" x="417.72" y="-422.48" width="1080.33" height="1928.85" transform="translate(415.95 1499.83) rotate(-90)"/><g class="cls-47"><polygon class="cls-48" points="1794.31 305.34 1810.77 284.07 1777.87 284.07 1794.31 305.34"/><polygon class="cls-48" points="1755.46 305.34 1771.9 284.07 1739 284.07 1755.46 305.34"/><polygon class="cls-48" points="1716.6 305.34 1733.05 284.07 1700.14 284.07 1716.6 305.34"/><polygon class="cls-48" points="1677.74 305.34 1694.19 284.07 1661.28 284.07 1677.74 305.34"/><polygon class="cls-48" points="1638.88 305.34 1655.33 284.07 1622.42 284.07 1638.88 305.34"/><polygon class="cls-48" points="1600.02 305.34 1616.47 284.07 1583.56 284.07 1600.02 305.34"/><polygon class="cls-48" points="1561.15 305.34 1577.61 284.07 1544.71 284.07 1561.15 305.34"/></g><g class="cls-47"><polygon class="cls-48" points="651.43 878.3 667.88 857.02 634.98 857.02 651.43 878.3"/><polygon class="cls-48" points="612.57 878.3 629.02 857.02 596.12 857.02 612.57 878.3"/><polygon class="cls-48" points="573.71 878.3 590.16 857.02 557.26 857.02 573.71 878.3"/><polygon class="cls-48" points="534.85 878.3 551.3 857.02 518.4 857.02 534.85 878.3"/><polygon class="cls-48" points="495.99 878.3 512.44 857.02 479.54 857.02 495.99 878.3"/><polygon class="cls-48" points="457.14 878.3 473.58 857.02 440.68 857.02 457.14 878.3"/><polygon class="cls-48" points="418.27 878.3 434.72 857.02 401.82 857.02 418.27 878.3"/></g><g class="cls-47"><polygon class="cls-48" points="303.84 110.4 320.3 89.13 287.4 89.13 303.84 110.4"/><polygon class="cls-48" points="264.99 110.4 281.44 89.13 248.54 89.13 264.99 110.4"/><polygon class="cls-48" points="226.13 110.4 242.58 89.13 209.68 89.13 226.13 110.4"/><polygon class="cls-48" points="187.27 110.4 203.72 89.13 170.81 89.13 187.27 110.4"/><polygon class="cls-48" points="148.41 110.4 164.86 89.13 131.96 89.13 148.41 110.4"/><polygon class="cls-48" points="109.55 110.4 126 89.13 93.09 89.13 109.55 110.4"/><polygon class="cls-48" points="70.69 110.4 87.14 89.13 54.24 89.13 70.69 110.4"/></g><g class="cls-47"><polygon class="cls-48" points="1881.74 918.04 1898.2 896.77 1865.29 896.77 1881.74 918.04"/><polygon class="cls-48" points="1842.88 918.04 1859.34 896.77 1826.44 896.77 1842.88 918.04"/><polygon class="cls-48" points="1804.02 918.04 1820.48 896.77 1787.58 896.77 1804.02 918.04"/><polygon class="cls-48" points="1765.17 918.04 1781.62 896.77 1748.72 896.77 1765.17 918.04"/></g><g class="cls-47"><g class="cls-49"><g class="cls-50"><path class="cls-51" d="M563.74,149.42H28.11c-1.18,0-2.11-.71-2.11-1.58s.93-1.58,2.11-1.58H563.74c1.18,0,2.11.71,2.11,1.58S564.92,149.42,563.74,149.42Z"/></g><g class="cls-52"><path class="cls-53" d="M28.11,177.13H563.74c1.18,0,2.11-.71,2.11-1.58s-.93-1.58-2.11-1.58H28.11c-1.18,0-2.11.72-2.11,1.58S26.93,177.13,28.11,177.13Z"/></g><g class="cls-54"><path class="cls-55" d="M563.74,204.84H28.11c-1.18,0-2.11-.71-2.11-1.58s.93-1.57,2.11-1.57H563.74c1.18,0,2.11.71,2.11,1.57S564.92,204.84,563.74,204.84Z"/></g><g class="cls-56"><path class="cls-57" d="M28.11,232.55H563.74c1.18,0,2.11-.71,2.11-1.58s-.93-1.57-2.11-1.57H28.11c-1.18,0-2.11.71-2.11,1.58S26.93,232.55,28.11,232.55Z"/></g><g class="cls-58"><path class="cls-59" d="M563.74,260.27H28.11c-1.18,0-2.11-.71-2.11-1.57s.93-1.58,2.11-1.58H563.74c1.18,0,2.11.71,2.11,1.58S564.92,260.27,563.74,260.27Z"/></g><g class="cls-60"><path class="cls-61" d="M28.11,288H563.74c1.18,0,2.11-.7,2.11-1.57s-.93-1.58-2.11-1.58H28.11c-1.18,0-2.11.71-2.11,1.58S26.93,288,28.11,288Z"/></g><g class="cls-62"><path class="cls-63" d="M563.74,315.68H28.11c-1.18,0-2.11-.72-2.11-1.58s.93-1.58,2.11-1.58H563.74c1.18,0,2.11.71,2.11,1.58S564.92,315.68,563.74,315.68Z"/></g><g class="cls-64"><path class="cls-65" d="M28.11,343.4H563.74c1.18,0,2.11-.72,2.11-1.58s-.93-1.58-2.11-1.58H28.11c-1.18,0-2.11.71-2.11,1.58S26.93,343.4,28.11,343.4Z"/></g><g class="cls-66"><path class="cls-67" d="M563.74,371.11H28.11c-1.18,0-2.11-.7-2.11-1.57s.93-1.58,2.11-1.58H563.74c1.18,0,2.11.71,2.11,1.58S564.92,371.11,563.74,371.11Z"/></g><g class="cls-68"><path class="cls-69" d="M28.11,398.82H563.74c1.18,0,2.11-.71,2.11-1.58s-.93-1.58-2.11-1.58H28.11c-1.18,0-2.11.72-2.11,1.58S26.93,398.82,28.11,398.82Z"/></g><g class="cls-70"><path class="cls-71" d="M563.74,426.53H28.11c-1.18,0-2.11-.71-2.11-1.58s.93-1.57,2.11-1.57H563.74c1.18,0,2.11.71,2.11,1.57S564.92,426.53,563.74,426.53Z"/></g><g class="cls-72"><path class="cls-73" d="M28.11,454.24H563.74c1.18,0,2.11-.71,2.11-1.58s-.93-1.57-2.11-1.57H28.11c-1.18,0-2.11.71-2.11,1.58S26.93,454.24,28.11,454.24Z"/></g><g class="cls-74"><path class="cls-75" d="M563.74,482H28.11c-1.18,0-2.11-.71-2.11-1.58s.93-1.57,2.11-1.57H563.74c1.18,0,2.11.71,2.11,1.57S564.92,482,563.74,482Z"/></g><g class="cls-76"><path class="cls-77" d="M28.11,509.66H563.74c1.18,0,2.11-.71,2.11-1.57s-.93-1.58-2.11-1.58H28.11c-1.18,0-2.11.71-2.11,1.58S26.93,509.66,28.11,509.66Z"/></g><g class="cls-78"><path class="cls-79" d="M563.74,537.37H28.11c-1.18,0-2.11-.72-2.11-1.58s.93-1.58,2.11-1.58H563.74c1.18,0,2.11.71,2.11,1.58S564.92,537.37,563.74,537.37Z"/></g><g class="cls-80"><path class="cls-81" d="M28.11,565.09H563.74c1.18,0,2.11-.72,2.11-1.58s-.93-1.58-2.11-1.58H28.11c-1.18,0-2.11.71-2.11,1.58S26.93,565.09,28.11,565.09Z"/></g><g class="cls-82"><path class="cls-83" d="M563.74,592.8H28.11c-1.18,0-2.11-.7-2.11-1.57s.93-1.58,2.11-1.58H563.74c1.18,0,2.11.71,2.11,1.58S564.92,592.8,563.74,592.8Z"/></g><g class="cls-84"><path class="cls-85" d="M28.11,620.51H563.74c1.18,0,2.11-.72,2.11-1.58s-.93-1.58-2.11-1.58H28.11c-1.18,0-2.11.72-2.11,1.58S26.93,620.51,28.11,620.51Z"/></g><g class="cls-86"><path class="cls-87" d="M563.74,648.22H28.11c-1.18,0-2.11-.71-2.11-1.58s.93-1.57,2.11-1.57H563.74c1.18,0,2.11.71,2.11,1.57S564.92,648.22,563.74,648.22Z"/></g><g class="cls-88"><path class="cls-89" d="M28.11,675.93H563.74c1.18,0,2.11-.71,2.11-1.58s-.93-1.57-2.11-1.57H28.11c-1.18,0-2.11.71-2.11,1.58S26.93,675.93,28.11,675.93Z"/></g><g class="cls-90"><path class="cls-91" d="M563.74,703.64H28.11c-1.18,0-2.11-.71-2.11-1.58s.93-1.57,2.11-1.57H563.74c1.18,0,2.11.71,2.11,1.57S564.92,703.64,563.74,703.64Z"/></g></g></g><g class="cls-47"><g class="cls-92"><g class="cls-93"><path class="cls-94" d="M1819.46,494.37H1283.84c-1.18,0-2.11-.71-2.11-1.58s.93-1.57,2.11-1.57h535.62c1.19,0,2.12.71,2.12,1.57S1820.65,494.37,1819.46,494.37Z"/></g><g class="cls-95"><path class="cls-96" d="M1283.84,522.08h535.62c1.19,0,2.12-.71,2.12-1.58s-.93-1.57-2.12-1.57H1283.84c-1.18,0-2.11.71-2.11,1.57S1282.66,522.08,1283.84,522.08Z"/></g><g class="cls-97"><path class="cls-98" d="M1819.46,549.79H1283.84c-1.18,0-2.11-.71-2.11-1.58s.93-1.57,2.11-1.57h535.62c1.19,0,2.12.71,2.12,1.57S1820.65,549.79,1819.46,549.79Z"/></g><g class="cls-99"><path class="cls-100" d="M1283.84,577.5h535.62c1.19,0,2.12-.71,2.12-1.57s-.93-1.58-2.12-1.58H1283.84c-1.18,0-2.11.71-2.11,1.58S1282.66,577.5,1283.84,577.5Z"/></g><g class="cls-101"><path class="cls-102" d="M1819.46,605.22H1283.84c-1.18,0-2.11-.71-2.11-1.57s.93-1.58,2.11-1.58h535.62c1.19,0,2.12.71,2.12,1.58S1820.65,605.22,1819.46,605.22Z"/></g><g class="cls-103"><path class="cls-104" d="M1283.84,632.93h535.62c1.19,0,2.12-.71,2.12-1.58s-.93-1.58-2.12-1.58H1283.84c-1.18,0-2.11.71-2.11,1.58S1282.66,632.93,1283.84,632.93Z"/></g><g class="cls-105"><path class="cls-106" d="M1819.46,660.64H1283.84c-1.18,0-2.11-.71-2.11-1.58s.93-1.58,2.11-1.58h535.62c1.19,0,2.12.71,2.12,1.58S1820.65,660.64,1819.46,660.64Z"/></g><g class="cls-107"><path class="cls-108" d="M1283.84,688.35h535.62c1.19,0,2.12-.71,2.12-1.58s-.93-1.58-2.12-1.58H1283.84c-1.18,0-2.11.72-2.11,1.58S1282.66,688.35,1283.84,688.35Z"/></g><g class="cls-109"><path class="cls-110" d="M1819.46,716.06H1283.84c-1.18,0-2.11-.71-2.11-1.58s.93-1.57,2.11-1.57h535.62c1.19,0,2.12.71,2.12,1.57S1820.65,716.06,1819.46,716.06Z"/></g><g class="cls-111"><path class="cls-112" d="M1283.84,743.77h535.62c1.19,0,2.12-.71,2.12-1.58s-.93-1.57-2.12-1.57H1283.84c-1.18,0-2.11.71-2.11,1.57S1282.66,743.77,1283.84,743.77Z"/></g><g class="cls-113"><path class="cls-114" d="M1819.46,771.48H1283.84c-1.18,0-2.11-.71-2.11-1.58s.93-1.57,2.11-1.57h535.62c1.19,0,2.12.71,2.12,1.57S1820.65,771.48,1819.46,771.48Z"/></g><g class="cls-115"><path class="cls-116" d="M1283.84,799.19h535.62c1.19,0,2.12-.71,2.12-1.57s-.93-1.58-2.12-1.58H1283.84c-1.18,0-2.11.71-2.11,1.58S1282.66,799.19,1283.84,799.19Z"/></g><g class="cls-117"><path class="cls-118" d="M1819.46,826.91H1283.84c-1.18,0-2.11-.71-2.11-1.57s.93-1.58,2.11-1.58h535.62c1.19,0,2.12.71,2.12,1.58S1820.65,826.91,1819.46,826.91Z"/></g><g class="cls-119"><path class="cls-120" d="M1283.84,854.61h535.62c1.19,0,2.12-.7,2.12-1.57s-.93-1.58-2.12-1.58H1283.84c-1.18,0-2.11.71-2.11,1.58S1282.66,854.61,1283.84,854.61Z"/></g><g class="cls-121"><path class="cls-122" d="M1819.46,882.33H1283.84c-1.18,0-2.11-.72-2.11-1.58s.93-1.58,2.11-1.58h535.62c1.19,0,2.12.71,2.12,1.58S1820.65,882.33,1819.46,882.33Z"/></g><g class="cls-123"><path class="cls-124" d="M1283.84,910h535.62c1.19,0,2.12-.71,2.12-1.58s-.93-1.58-2.12-1.58H1283.84c-1.18,0-2.11.72-2.11,1.58S1282.66,910,1283.84,910Z"/></g><g class="cls-125"><path class="cls-126" d="M1819.46,937.75H1283.84c-1.18,0-2.11-.71-2.11-1.58s.93-1.57,2.11-1.57h535.62c1.19,0,2.12.71,2.12,1.57S1820.65,937.75,1819.46,937.75Z"/></g><g class="cls-127"><path class="cls-128" d="M1283.84,965.46h535.62c1.19,0,2.12-.71,2.12-1.58s-.93-1.57-2.12-1.57H1283.84c-1.18,0-2.11.72-2.11,1.58S1282.66,965.46,1283.84,965.46Z"/></g><g class="cls-129"><path class="cls-130" d="M1819.46,993.17H1283.84c-1.18,0-2.11-.71-2.11-1.58s.93-1.57,2.11-1.57h535.62c1.19,0,2.12.71,2.12,1.57S1820.65,993.17,1819.46,993.17Z"/></g><g class="cls-131"><path class="cls-132" d="M1283.84,1020.88h535.62c1.19,0,2.12-.71,2.12-1.57s-.93-1.58-2.12-1.58H1283.84c-1.18,0-2.11.71-2.11,1.58S1282.66,1020.88,1283.84,1020.88Z"/></g><g class="cls-133"><path class="cls-134" d="M1819.46,1048.6H1283.84c-1.18,0-2.11-.71-2.11-1.57s.93-1.58,2.11-1.58h535.62c1.19,0,2.12.71,2.12,1.58S1820.65,1048.6,1819.46,1048.6Z"/></g></g></g><g class="cls-135"><g class="cls-47"><path class="cls-48" d="M25.31,567.41c1.88,0,3.41-1.14,3.41-2.55s-1.53-2.55-3.41-2.55-3.41,1.14-3.41,2.55S23.43,567.41,25.31,567.41Z"/><path class="cls-48" d="M62.59,567.41c1.88,0,3.41-1.14,3.41-2.55s-1.53-2.55-3.41-2.55-3.41,1.14-3.41,2.55S60.7,567.41,62.59,567.41Z"/><path class="cls-48" d="M99.86,567.41c1.89,0,3.41-1.14,3.41-2.55s-1.52-2.55-3.41-2.55-3.4,1.14-3.4,2.55S98,567.41,99.86,567.41Z"/><path class="cls-48" d="M137.14,567.41c1.88,0,3.41-1.14,3.41-2.55s-1.53-2.55-3.41-2.55-3.41,1.14-3.41,2.55S135.26,567.41,137.14,567.41Z"/><path class="cls-48" d="M174.42,567.41c1.88,0,3.41-1.14,3.41-2.55s-1.53-2.55-3.41-2.55-3.41,1.14-3.41,2.55S172.54,567.41,174.42,567.41Z"/><path class="cls-48" d="M211.7,567.41c1.88,0,3.41-1.14,3.41-2.55s-1.53-2.55-3.41-2.55-3.41,1.14-3.41,2.55S209.82,567.41,211.7,567.41Z"/><path class="cls-48" d="M249,567.41c1.89,0,3.41-1.14,3.41-2.55s-1.52-2.55-3.41-2.55-3.4,1.14-3.4,2.55S247.09,567.41,249,567.41Z"/><path class="cls-48" d="M286.25,567.41c1.88,0,3.41-1.14,3.41-2.55s-1.53-2.55-3.41-2.55-3.41,1.14-3.41,2.55S284.37,567.41,286.25,567.41Z"/><path class="cls-48" d="M323.53,567.41c1.88,0,3.41-1.14,3.41-2.55s-1.53-2.55-3.41-2.55-3.41,1.14-3.41,2.55S321.65,567.41,323.53,567.41Z"/><path class="cls-48" d="M360.81,567.41c1.88,0,3.41-1.14,3.41-2.55s-1.53-2.55-3.41-2.55-3.41,1.14-3.41,2.55S358.93,567.41,360.81,567.41Z"/><path class="cls-48" d="M398.09,567.41c1.88,0,3.41-1.14,3.41-2.55s-1.53-2.55-3.41-2.55-3.41,1.14-3.41,2.55S396.2,567.41,398.09,567.41Z"/><path class="cls-48" d="M435.36,567.41c1.89,0,3.41-1.14,3.41-2.55s-1.52-2.55-3.41-2.55-3.41,1.14-3.41,2.55S433.48,567.41,435.36,567.41Z"/><path class="cls-48" d="M472.64,567.41c1.88,0,3.41-1.14,3.41-2.55s-1.53-2.55-3.41-2.55-3.41,1.14-3.41,2.55S470.76,567.41,472.64,567.41Z"/><path class="cls-48" d="M509.92,567.41c1.88,0,3.41-1.14,3.41-2.55s-1.53-2.55-3.41-2.55-3.41,1.14-3.41,2.55S508,567.41,509.92,567.41Z"/><path class="cls-48" d="M547.2,567.41c1.88,0,3.41-1.14,3.41-2.55s-1.53-2.55-3.41-2.55-3.41,1.14-3.41,2.55S545.32,567.41,547.2,567.41Z"/><path class="cls-48" d="M584.47,567.41c1.89,0,3.41-1.14,3.41-2.55s-1.52-2.55-3.41-2.55-3.4,1.14-3.4,2.55S582.59,567.41,584.47,567.41Z"/><path class="cls-48" d="M621.75,567.41c1.88,0,3.41-1.14,3.41-2.55s-1.53-2.55-3.41-2.55-3.41,1.14-3.41,2.55S619.87,567.41,621.75,567.41Z"/><path class="cls-48" d="M659,567.41c1.88,0,3.41-1.14,3.41-2.55s-1.53-2.55-3.41-2.55-3.41,1.14-3.41,2.55S657.15,567.41,659,567.41Z"/><path class="cls-48" d="M696.31,567.41c1.88,0,3.41-1.14,3.41-2.55s-1.53-2.55-3.41-2.55-3.41,1.14-3.41,2.55S694.43,567.41,696.31,567.41Z"/><ellipse class="cls-48" cx="733.59" cy="564.86" rx="3.31" ry="2.47"/><path class="cls-48" d="M770.86,567.18c1.72,0,3.1-1,3.1-2.32s-1.38-2.32-3.1-2.32-3.1,1-3.1,2.32S769.15,567.18,770.86,567.18Z"/><path class="cls-48" d="M808.14,567.1c1.66,0,3-1,3-2.24s-1.34-2.24-3-2.24-3,1-3,2.24S806.48,567.1,808.14,567.1Z"/><path class="cls-48" d="M845.42,566.87c1.48,0,2.69-.9,2.69-2s-1.21-2-2.69-2-2.69.9-2.69,2S843.94,566.87,845.42,566.87Z"/><path class="cls-48" d="M882.7,566.79c1.42,0,2.58-.86,2.58-1.93s-1.16-1.93-2.58-1.93-2.59.87-2.59,1.93S881.27,566.79,882.7,566.79Z"/><path class="cls-48" d="M920,566.64c1.32,0,2.38-.8,2.38-1.78s-1.06-1.77-2.38-1.77-2.37.79-2.37,1.77S918.66,566.64,920,566.64Z"/><path class="cls-48" d="M957.25,566.48c1.2,0,2.17-.73,2.17-1.62s-1-1.62-2.17-1.62-2.17.73-2.17,1.62S956.05,566.48,957.25,566.48Z"/><path class="cls-48" d="M994.53,566.33c1.08,0,2-.66,2-1.47s-.88-1.47-2-1.47-2,.66-2,1.47S993.45,566.33,994.53,566.33Z"/><path class="cls-48" d="M1031.81,566.17c1,0,1.76-.58,1.76-1.31s-.79-1.31-1.76-1.31-1.76.59-1.76,1.31S1030.84,566.17,1031.81,566.17Z"/><path class="cls-48" d="M1069.08,566c.86,0,1.56-.52,1.56-1.16s-.7-1.16-1.56-1.16-1.55.52-1.55,1.16S1068.23,566,1069.08,566Z"/><path class="cls-48" d="M1106.36,565.86c.75,0,1.34-.45,1.34-1s-.59-1-1.34-1-1.34.45-1.34,1S1105.62,565.86,1106.36,565.86Z"/><path class="cls-48" d="M1143.64,565.71c.63,0,1.14-.38,1.14-.85s-.51-.85-1.14-.85-1.14.38-1.14.85S1143,565.71,1143.64,565.71Z"/><ellipse class="cls-48" cx="1180.92" cy="564.86" rx="0.93" ry="0.69"/><path class="cls-48" d="M1218.2,565.48c.45,0,.82-.28.82-.62s-.37-.62-.82-.62-.83.28-.83.62S1217.74,565.48,1218.2,565.48Z"/><path class="cls-48" d="M1255.47,565.32c.35,0,.63-.2.63-.46s-.28-.46-.63-.46-.62.21-.62.46S1255.13,565.32,1255.47,565.32Z"/><path class="cls-48" d="M1292.75,565.17c.23,0,.41-.14.41-.31s-.18-.31-.41-.31-.41.14-.41.31S1292.52,565.17,1292.75,565.17Z"/><path class="cls-48" d="M1330,565c.11,0,.2-.06.2-.15s-.09-.15-.2-.15-.21.07-.21.15S1329.92,565,1330,565Z"/><path class="cls-48" d="M25.31,596.55c2.85,0,5.17-1.73,5.17-3.86s-2.32-3.86-5.17-3.86-5.17,1.73-5.17,3.86S22.45,596.55,25.31,596.55Z"/><ellipse class="cls-48" cx="62.59" cy="592.69" rx="5.17" ry="3.86"/><path class="cls-48" d="M99.86,596.55c2.86,0,5.17-1.73,5.17-3.86s-2.31-3.86-5.17-3.86-5.16,1.73-5.16,3.86S97,596.55,99.86,596.55Z"/><ellipse class="cls-48" cx="137.14" cy="592.69" rx="5.17" ry="3.86"/><path class="cls-48" d="M174.42,596.55c2.85,0,5.17-1.73,5.17-3.86s-2.32-3.86-5.17-3.86-5.17,1.73-5.17,3.86S171.57,596.55,174.42,596.55Z"/><path class="cls-48" d="M211.7,596.55c2.85,0,5.17-1.73,5.17-3.86s-2.32-3.86-5.17-3.86-5.17,1.73-5.17,3.86S208.84,596.55,211.7,596.55Z"/><ellipse class="cls-48" cx="248.97" cy="592.69" rx="5.17" ry="3.86"/><ellipse class="cls-48" cx="286.25" cy="592.69" rx="5.17" ry="3.86"/><path class="cls-48" d="M323.53,596.55c2.86,0,5.17-1.73,5.17-3.86s-2.31-3.86-5.17-3.86-5.17,1.73-5.17,3.86S320.68,596.55,323.53,596.55Z"/><ellipse class="cls-48" cx="360.81" cy="592.69" rx="5.17" ry="3.86"/><path class="cls-48" d="M398.09,596.62c2.91,0,5.27-1.76,5.27-3.93s-2.36-3.94-5.27-3.94-5.28,1.77-5.28,3.94S395.17,596.62,398.09,596.62Z"/><path class="cls-48" d="M435.36,596.62c2.92,0,5.27-1.76,5.27-3.93s-2.35-3.94-5.27-3.94-5.27,1.77-5.27,3.94S432.45,596.62,435.36,596.62Z"/><path class="cls-48" d="M472.64,596.62c2.91,0,5.27-1.76,5.27-3.93s-2.36-3.94-5.27-3.94-5.27,1.77-5.27,3.94S469.73,596.62,472.64,596.62Z"/><path class="cls-48" d="M509.92,596.62c2.91,0,5.27-1.76,5.27-3.93s-2.36-3.94-5.27-3.94-5.27,1.77-5.27,3.94S507,596.62,509.92,596.62Z"/><path class="cls-48" d="M547.2,596.62c2.91,0,5.27-1.76,5.27-3.93s-2.36-3.94-5.27-3.94-5.27,1.77-5.27,3.94S544.28,596.62,547.2,596.62Z"/><path class="cls-48" d="M584.47,596.62c2.92,0,5.28-1.76,5.28-3.93s-2.36-3.94-5.28-3.94-5.27,1.77-5.27,3.94S581.56,596.62,584.47,596.62Z"/><path class="cls-48" d="M621.75,596.62c2.92,0,5.27-1.76,5.27-3.93s-2.35-3.94-5.27-3.94-5.27,1.77-5.27,3.94S618.84,596.62,621.75,596.62Z"/><path class="cls-48" d="M659,596.62c2.91,0,5.27-1.76,5.27-3.93s-2.36-3.94-5.27-3.94-5.27,1.77-5.27,3.94S656.12,596.62,659,596.62Z"/><path class="cls-48" d="M696.31,596.62c2.91,0,5.27-1.76,5.27-3.93s-2.36-3.94-5.27-3.94-5.27,1.77-5.27,3.94S693.39,596.62,696.31,596.62Z"/><path class="cls-48" d="M733.59,596.47c2.79,0,5.06-1.7,5.06-3.78s-2.27-3.78-5.06-3.78-5.07,1.69-5.07,3.78S730.79,596.47,733.59,596.47Z"/><path class="cls-48" d="M770.86,596.24c2.63,0,4.76-1.59,4.76-3.55s-2.13-3.55-4.76-3.55-4.75,1.59-4.75,3.55S768.24,596.24,770.86,596.24Z"/><path class="cls-48" d="M808.14,596.08c2.52,0,4.55-1.52,4.55-3.39s-2-3.4-4.55-3.4-4.55,1.52-4.55,3.4S805.63,596.08,808.14,596.08Z"/><ellipse class="cls-48" cx="845.42" cy="592.69" rx="4.24" ry="3.16"/><path class="cls-48" d="M882.7,595.62c2.17,0,3.93-1.31,3.93-2.93s-1.76-2.93-3.93-2.93-3.93,1.31-3.93,2.93S880.53,595.62,882.7,595.62Z"/><path class="cls-48" d="M920,595.39c2,0,3.62-1.21,3.62-2.7S922,590,920,590s-3.61,1.21-3.61,2.7S918,595.39,920,595.39Z"/><ellipse class="cls-48" cx="957.25" cy="592.69" rx="3.31" ry="2.47"/><path class="cls-48" d="M994.53,594.93c1.66,0,3-1,3-2.24s-1.34-2.24-3-2.24-3,1-3,2.24S992.87,594.93,994.53,594.93Z"/><path class="cls-48" d="M1031.81,594.69c1.48,0,2.69-.89,2.69-2s-1.21-2-2.69-2-2.69.9-2.69,2S1030.32,594.69,1031.81,594.69Z"/><path class="cls-48" d="M1069.08,594.46c1.32,0,2.38-.79,2.38-1.77s-1.06-1.78-2.38-1.78-2.37.8-2.37,1.78S1067.77,594.46,1069.08,594.46Z"/><path class="cls-48" d="M1106.36,594.23c1.15,0,2.07-.69,2.07-1.54s-.92-1.54-2.07-1.54-2.06.69-2.06,1.54S1105.22,594.23,1106.36,594.23Z"/><path class="cls-48" d="M1143.64,594.08c1,0,1.86-.63,1.86-1.39s-.83-1.39-1.86-1.39-1.86.62-1.86,1.39S1142.61,594.08,1143.64,594.08Z"/><path class="cls-48" d="M1180.92,593.85c.85,0,1.55-.52,1.55-1.16s-.7-1.16-1.55-1.16-1.55.52-1.55,1.16S1180.06,593.85,1180.92,593.85Z"/><path class="cls-48" d="M1218.2,593.62a1,1,0,1,0,0-1.86c-.69,0-1.24.42-1.24.93S1217.51,593.62,1218.2,593.62Z"/><ellipse class="cls-48" cx="1255.47" cy="592.69" rx="0.93" ry="0.69"/><path class="cls-48" d="M1292.75,593.15c.35,0,.62-.21.62-.46s-.27-.46-.62-.46-.62.2-.62.46S1292.41,593.15,1292.75,593.15Z"/><path class="cls-48" d="M1330,593c.23,0,.41-.14.41-.31s-.18-.31-.41-.31-.41.14-.41.31S1329.8,593,1330,593Z"/><path class="cls-48" d="M1367.31,592.77a.08.08,0,1,0,0-.16c-.06,0-.11,0-.11.08S1367.25,592.77,1367.31,592.77Z"/><path class="cls-48" d="M25.31,624.37c2.85,0,5.17-1.72,5.17-3.86s-2.32-3.85-5.17-3.85-5.17,1.72-5.17,3.85S22.45,624.37,25.31,624.37Z"/><ellipse class="cls-48" cx="62.59" cy="620.51" rx="5.17" ry="3.86"/><path class="cls-48" d="M99.86,624.37c2.86,0,5.17-1.72,5.17-3.86s-2.31-3.85-5.17-3.85-5.16,1.72-5.16,3.85S97,624.37,99.86,624.37Z"/><ellipse class="cls-48" cx="137.14" cy="620.51" rx="5.17" ry="3.86"/><path class="cls-48" d="M174.42,624.37c2.85,0,5.17-1.72,5.17-3.86s-2.32-3.85-5.17-3.85-5.17,1.72-5.17,3.85S171.57,624.37,174.42,624.37Z"/><path class="cls-48" d="M211.7,624.37c2.85,0,5.17-1.72,5.17-3.86s-2.32-3.85-5.17-3.85-5.17,1.72-5.17,3.85S208.84,624.37,211.7,624.37Z"/><ellipse class="cls-48" cx="248.97" cy="620.51" rx="5.17" ry="3.86"/><ellipse class="cls-48" cx="286.25" cy="620.51" rx="5.17" ry="3.86"/><path class="cls-48" d="M323.53,624.37c2.86,0,5.17-1.72,5.17-3.86s-2.31-3.85-5.17-3.85-5.17,1.72-5.17,3.85S320.68,624.37,323.53,624.37Z"/><ellipse class="cls-48" cx="360.81" cy="620.51" rx="5.17" ry="3.86"/><ellipse class="cls-48" cx="398.09" cy="620.51" rx="5.27" ry="3.93"/><path class="cls-48" d="M435.36,624.45c2.92,0,5.27-1.76,5.27-3.94s-2.35-3.93-5.27-3.93-5.27,1.76-5.27,3.93S432.45,624.45,435.36,624.45Z"/><path class="cls-48" d="M472.64,624.45c2.91,0,5.27-1.76,5.27-3.94s-2.36-3.93-5.27-3.93-5.27,1.76-5.27,3.93S469.73,624.45,472.64,624.45Z"/><path class="cls-48" d="M509.92,624.45c2.91,0,5.27-1.76,5.27-3.94s-2.36-3.93-5.27-3.93-5.27,1.76-5.27,3.93S507,624.45,509.92,624.45Z"/><path class="cls-48" d="M547.2,624.45c2.91,0,5.27-1.76,5.27-3.94s-2.36-3.93-5.27-3.93-5.27,1.76-5.27,3.93S544.28,624.45,547.2,624.45Z"/><path class="cls-48" d="M584.47,624.45c2.92,0,5.28-1.76,5.28-3.94s-2.36-3.93-5.28-3.93-5.27,1.76-5.27,3.93S581.56,624.45,584.47,624.45Z"/><path class="cls-48" d="M621.75,624.45c2.92,0,5.27-1.76,5.27-3.94s-2.35-3.93-5.27-3.93-5.27,1.76-5.27,3.93S618.84,624.45,621.75,624.45Z"/><path class="cls-48" d="M659,624.45c2.91,0,5.27-1.76,5.27-3.94s-2.36-3.93-5.27-3.93-5.27,1.76-5.27,3.93S656.12,624.45,659,624.45Z"/><path class="cls-48" d="M696.31,624.45c2.91,0,5.27-1.76,5.27-3.94s-2.36-3.93-5.27-3.93-5.27,1.76-5.27,3.93S693.39,624.45,696.31,624.45Z"/><path class="cls-48" d="M733.59,624.3c2.79,0,5.06-1.7,5.06-3.79s-2.27-3.78-5.06-3.78-5.07,1.7-5.07,3.78S730.79,624.3,733.59,624.3Z"/><path class="cls-48" d="M770.86,624.06c2.63,0,4.76-1.58,4.76-3.55s-2.13-3.54-4.76-3.54-4.75,1.59-4.75,3.54S768.24,624.06,770.86,624.06Z"/><path class="cls-48" d="M808.14,623.91c2.52,0,4.55-1.52,4.55-3.4s-2-3.39-4.55-3.39-4.55,1.52-4.55,3.39S805.63,623.91,808.14,623.91Z"/><ellipse class="cls-48" cx="845.42" cy="620.51" rx="4.24" ry="3.16"/><path class="cls-48" d="M882.7,623.45c2.17,0,3.93-1.32,3.93-2.94s-1.76-2.93-3.93-2.93-3.93,1.31-3.93,2.93S880.53,623.45,882.7,623.45Z"/><ellipse class="cls-48" cx="919.97" cy="620.51" rx="3.62" ry="2.7"/><ellipse class="cls-48" cx="957.25" cy="620.51" rx="3.31" ry="2.47"/><path class="cls-48" d="M994.53,622.75c1.66,0,3-1,3-2.24s-1.34-2.23-3-2.23-3,1-3,2.23S992.87,622.75,994.53,622.75Z"/><path class="cls-48" d="M1031.81,622.52c1.48,0,2.69-.9,2.69-2s-1.21-2-2.69-2-2.69.9-2.69,2S1030.32,622.52,1031.81,622.52Z"/><path class="cls-48" d="M1069.08,622.29c1.32,0,2.38-.8,2.38-1.78s-1.06-1.77-2.38-1.77-2.37.8-2.37,1.77S1067.77,622.29,1069.08,622.29Z"/><path class="cls-48" d="M1106.36,622.06c1.15,0,2.07-.69,2.07-1.55s-.92-1.54-2.07-1.54-2.06.69-2.06,1.54S1105.22,622.06,1106.36,622.06Z"/><path class="cls-48" d="M1143.64,621.9c1,0,1.86-.62,1.86-1.39s-.83-1.39-1.86-1.39-1.86.63-1.86,1.39S1142.61,621.9,1143.64,621.9Z"/><path class="cls-48" d="M1180.92,621.67c.85,0,1.55-.52,1.55-1.16s-.7-1.15-1.55-1.15-1.55.52-1.55,1.15S1180.06,621.67,1180.92,621.67Z"/><path class="cls-48" d="M1218.2,621.44c.68,0,1.23-.41,1.23-.93s-.55-.92-1.23-.92-1.24.41-1.24.92S1217.51,621.44,1218.2,621.44Z"/><ellipse class="cls-48" cx="1255.47" cy="620.51" rx="0.93" ry="0.69"/><path class="cls-48" d="M1292.75,621c.35,0,.62-.21.62-.47s-.27-.46-.62-.46-.62.21-.62.46A.56.56,0,0,0,1292.75,621Z"/><path class="cls-48" d="M1330,620.82c.23,0,.41-.14.41-.31s-.18-.31-.41-.31-.41.14-.41.31S1329.8,620.82,1330,620.82Z"/><path class="cls-48" d="M1367.31,620.59a.09.09,0,0,0,.1-.08s-.05-.07-.1-.07-.11,0-.11.07S1367.25,620.59,1367.31,620.59Z"/><path class="cls-48" d="M25.31,652.2c2.85,0,5.17-1.73,5.17-3.86s-2.32-3.86-5.17-3.86-5.17,1.73-5.17,3.86S22.45,652.2,25.31,652.2Z"/><ellipse class="cls-48" cx="62.59" cy="648.34" rx="5.17" ry="3.86"/><path class="cls-48" d="M99.86,652.2c2.86,0,5.17-1.73,5.17-3.86s-2.31-3.86-5.17-3.86-5.16,1.73-5.16,3.86S97,652.2,99.86,652.2Z"/><ellipse class="cls-48" cx="137.14" cy="648.34" rx="5.17" ry="3.86"/><path class="cls-48" d="M174.42,652.2c2.85,0,5.17-1.73,5.17-3.86s-2.32-3.86-5.17-3.86-5.17,1.73-5.17,3.86S171.57,652.2,174.42,652.2Z"/><path class="cls-48" d="M211.7,652.2c2.85,0,5.17-1.73,5.17-3.86s-2.32-3.86-5.17-3.86-5.17,1.73-5.17,3.86S208.84,652.2,211.7,652.2Z"/><ellipse class="cls-48" cx="248.97" cy="648.34" rx="5.17" ry="3.86"/><ellipse class="cls-48" cx="286.25" cy="648.34" rx="5.17" ry="3.86"/><path class="cls-48" d="M323.53,652.2c2.86,0,5.17-1.73,5.17-3.86s-2.31-3.86-5.17-3.86-5.17,1.73-5.17,3.86S320.68,652.2,323.53,652.2Z"/><ellipse class="cls-48" cx="360.81" cy="648.34" rx="5.17" ry="3.86"/><ellipse class="cls-48" cx="398.09" cy="648.34" rx="5.27" ry="3.93"/><path class="cls-48" d="M435.36,652.28c2.92,0,5.27-1.76,5.27-3.94s-2.35-3.93-5.27-3.93-5.27,1.76-5.27,3.93S432.45,652.28,435.36,652.28Z"/><path class="cls-48" d="M472.64,652.28c2.91,0,5.27-1.76,5.27-3.94s-2.36-3.93-5.27-3.93-5.27,1.76-5.27,3.93S469.73,652.28,472.64,652.28Z"/><path class="cls-48" d="M509.92,652.28c2.91,0,5.27-1.76,5.27-3.94s-2.36-3.93-5.27-3.93-5.27,1.76-5.27,3.93S507,652.28,509.92,652.28Z"/><path class="cls-48" d="M547.2,652.28c2.91,0,5.27-1.76,5.27-3.94s-2.36-3.93-5.27-3.93-5.27,1.76-5.27,3.93S544.28,652.28,547.2,652.28Z"/><path class="cls-48" d="M584.47,652.28c2.92,0,5.28-1.76,5.28-3.94s-2.36-3.93-5.28-3.93-5.27,1.76-5.27,3.93S581.56,652.28,584.47,652.28Z"/><path class="cls-48" d="M621.75,652.28c2.92,0,5.27-1.76,5.27-3.94s-2.35-3.93-5.27-3.93-5.27,1.76-5.27,3.93S618.84,652.28,621.75,652.28Z"/><path class="cls-48" d="M659,652.28c2.91,0,5.27-1.76,5.27-3.94s-2.36-3.93-5.27-3.93-5.27,1.76-5.27,3.93S656.12,652.28,659,652.28Z"/><path class="cls-48" d="M696.31,652.28c2.91,0,5.27-1.76,5.27-3.94s-2.36-3.93-5.27-3.93-5.27,1.76-5.27,3.93S693.39,652.28,696.31,652.28Z"/><path class="cls-48" d="M733.59,652.12c2.79,0,5.06-1.69,5.06-3.78s-2.27-3.78-5.06-3.78-5.07,1.69-5.07,3.78S730.79,652.12,733.59,652.12Z"/><path class="cls-48" d="M770.86,651.89c2.63,0,4.76-1.59,4.76-3.55s-2.13-3.55-4.76-3.55-4.75,1.59-4.75,3.55S768.24,651.89,770.86,651.89Z"/><path class="cls-48" d="M808.14,651.74c2.52,0,4.55-1.52,4.55-3.4s-2-3.39-4.55-3.39-4.55,1.52-4.55,3.39S805.63,651.74,808.14,651.74Z"/><ellipse class="cls-48" cx="845.42" cy="648.34" rx="4.24" ry="3.16"/><path class="cls-48" d="M882.7,651.28c2.17,0,3.93-1.32,3.93-2.94s-1.76-2.93-3.93-2.93-3.93,1.31-3.93,2.93S880.53,651.28,882.7,651.28Z"/><ellipse class="cls-48" cx="919.97" cy="648.34" rx="3.62" ry="2.7"/><ellipse class="cls-48" cx="957.25" cy="648.34" rx="3.31" ry="2.47"/><path class="cls-48" d="M994.53,650.58c1.66,0,3-1,3-2.24s-1.34-2.24-3-2.24-3,1-3,2.24S992.87,650.58,994.53,650.58Z"/><path class="cls-48" d="M1031.81,650.35c1.48,0,2.69-.9,2.69-2s-1.21-2-2.69-2-2.69.89-2.69,2S1030.32,650.35,1031.81,650.35Z"/><path class="cls-48" d="M1069.08,650.12c1.32,0,2.38-.8,2.38-1.78s-1.06-1.77-2.38-1.77-2.37.79-2.37,1.77S1067.77,650.12,1069.08,650.12Z"/><path class="cls-48" d="M1106.36,649.89c1.15,0,2.07-.7,2.07-1.55s-.92-1.54-2.07-1.54-2.06.69-2.06,1.54S1105.22,649.89,1106.36,649.89Z"/><path class="cls-48" d="M1143.64,649.73c1,0,1.86-.62,1.86-1.39s-.83-1.39-1.86-1.39-1.86.63-1.86,1.39S1142.61,649.73,1143.64,649.73Z"/><path class="cls-48" d="M1180.92,649.5c.85,0,1.55-.52,1.55-1.16s-.7-1.16-1.55-1.16-1.55.52-1.55,1.16S1180.06,649.5,1180.92,649.5Z"/><path class="cls-48" d="M1218.2,649.27a1.11,1.11,0,0,0,1.23-.93c0-.51-.55-.92-1.23-.92s-1.24.41-1.24.92S1217.51,649.27,1218.2,649.27Z"/><ellipse class="cls-48" cx="1255.47" cy="648.34" rx="0.93" ry="0.69"/><path class="cls-48" d="M1292.75,648.81c.35,0,.62-.21.62-.47s-.27-.46-.62-.46-.62.21-.62.46A.56.56,0,0,0,1292.75,648.81Z"/><path class="cls-48" d="M1330,648.65c.23,0,.41-.14.41-.31s-.18-.31-.41-.31-.41.14-.41.31S1329.8,648.65,1330,648.65Z"/><path class="cls-48" d="M1367.31,648.42a.09.09,0,0,0,.1-.08.1.1,0,0,0-.1-.08c-.06,0-.11,0-.11.08S1367.25,648.42,1367.31,648.42Z"/><path class="cls-48" d="M25.31,680c2.85,0,5.17-1.73,5.17-3.86s-2.32-3.86-5.17-3.86-5.17,1.73-5.17,3.86S22.45,680,25.31,680Z"/><ellipse class="cls-48" cx="62.59" cy="676.17" rx="5.17" ry="3.86"/><path class="cls-48" d="M99.86,680c2.86,0,5.17-1.73,5.17-3.86s-2.31-3.86-5.17-3.86S94.7,674,94.7,676.17,97,680,99.86,680Z"/><ellipse class="cls-48" cx="137.14" cy="676.17" rx="5.17" ry="3.86"/><path class="cls-48" d="M174.42,680c2.85,0,5.17-1.73,5.17-3.86s-2.32-3.86-5.17-3.86-5.17,1.73-5.17,3.86S171.57,680,174.42,680Z"/><path class="cls-48" d="M211.7,680c2.85,0,5.17-1.73,5.17-3.86s-2.32-3.86-5.17-3.86-5.17,1.73-5.17,3.86S208.84,680,211.7,680Z"/><ellipse class="cls-48" cx="248.97" cy="676.17" rx="5.17" ry="3.86"/><ellipse class="cls-48" cx="286.25" cy="676.17" rx="5.17" ry="3.86"/><path class="cls-48" d="M323.53,680c2.86,0,5.17-1.73,5.17-3.86s-2.31-3.86-5.17-3.86-5.17,1.73-5.17,3.86S320.68,680,323.53,680Z"/><ellipse class="cls-48" cx="360.81" cy="676.17" rx="5.17" ry="3.86"/><path class="cls-48" d="M398.09,680.1c2.91,0,5.27-1.76,5.27-3.93s-2.36-3.94-5.27-3.94-5.28,1.77-5.28,3.94S395.17,680.1,398.09,680.1Z"/><path class="cls-48" d="M435.36,680.1c2.92,0,5.27-1.76,5.27-3.93s-2.35-3.94-5.27-3.94-5.27,1.77-5.27,3.94S432.45,680.1,435.36,680.1Z"/><path class="cls-48" d="M472.64,680.1c2.91,0,5.27-1.76,5.27-3.93s-2.36-3.94-5.27-3.94-5.27,1.77-5.27,3.94S469.73,680.1,472.64,680.1Z"/><path class="cls-48" d="M509.92,680.1c2.91,0,5.27-1.76,5.27-3.93s-2.36-3.94-5.27-3.94-5.27,1.77-5.27,3.94S507,680.1,509.92,680.1Z"/><path class="cls-48" d="M547.2,680.1c2.91,0,5.27-1.76,5.27-3.93s-2.36-3.94-5.27-3.94-5.27,1.77-5.27,3.94S544.28,680.1,547.2,680.1Z"/><path class="cls-48" d="M584.47,680.1c2.92,0,5.28-1.76,5.28-3.93s-2.36-3.94-5.28-3.94-5.27,1.77-5.27,3.94S581.56,680.1,584.47,680.1Z"/><path class="cls-48" d="M621.75,680.1c2.92,0,5.27-1.76,5.27-3.93s-2.35-3.94-5.27-3.94-5.27,1.77-5.27,3.94S618.84,680.1,621.75,680.1Z"/><path class="cls-48" d="M659,680.1c2.91,0,5.27-1.76,5.27-3.93s-2.36-3.94-5.27-3.94-5.27,1.77-5.27,3.94S656.12,680.1,659,680.1Z"/><path class="cls-48" d="M696.31,680.1c2.91,0,5.27-1.76,5.27-3.93s-2.36-3.94-5.27-3.94S691,674,691,676.17,693.39,680.1,696.31,680.1Z"/><path class="cls-48" d="M733.59,680c2.79,0,5.06-1.69,5.06-3.78s-2.27-3.78-5.06-3.78-5.07,1.69-5.07,3.78S730.79,680,733.59,680Z"/><path class="cls-48" d="M770.86,679.72c2.63,0,4.76-1.59,4.76-3.55s-2.13-3.55-4.76-3.55-4.75,1.59-4.75,3.55S768.24,679.72,770.86,679.72Z"/><path class="cls-48" d="M808.14,679.56c2.52,0,4.55-1.51,4.55-3.39s-2-3.4-4.55-3.4-4.55,1.52-4.55,3.4S805.63,679.56,808.14,679.56Z"/><ellipse class="cls-48" cx="845.42" cy="676.17" rx="4.24" ry="3.16"/><path class="cls-48" d="M882.7,679.1c2.17,0,3.93-1.31,3.93-2.93s-1.76-2.93-3.93-2.93-3.93,1.31-3.93,2.93S880.53,679.1,882.7,679.1Z"/><path class="cls-48" d="M920,678.87c2,0,3.62-1.21,3.62-2.7s-1.62-2.7-3.62-2.7-3.61,1.21-3.61,2.7S918,678.87,920,678.87Z"/><ellipse class="cls-48" cx="957.25" cy="676.17" rx="3.31" ry="2.47"/><path class="cls-48" d="M994.53,678.4c1.66,0,3-1,3-2.23s-1.34-2.24-3-2.24-3,1-3,2.24S992.87,678.4,994.53,678.4Z"/><path class="cls-48" d="M1031.81,678.17c1.48,0,2.69-.9,2.69-2s-1.21-2-2.69-2-2.69.9-2.69,2S1030.32,678.17,1031.81,678.17Z"/><path class="cls-48" d="M1069.08,677.94c1.32,0,2.38-.79,2.38-1.77s-1.06-1.77-2.38-1.77-2.37.79-2.37,1.77S1067.77,677.94,1069.08,677.94Z"/><path class="cls-48" d="M1106.36,677.71c1.15,0,2.07-.69,2.07-1.54s-.92-1.54-2.07-1.54-2.06.69-2.06,1.54S1105.22,677.71,1106.36,677.71Z"/><path class="cls-48" d="M1143.64,677.56c1,0,1.86-.62,1.86-1.39s-.83-1.39-1.86-1.39-1.86.62-1.86,1.39S1142.61,677.56,1143.64,677.56Z"/><path class="cls-48" d="M1180.92,677.33c.85,0,1.55-.52,1.55-1.16s-.7-1.16-1.55-1.16-1.55.52-1.55,1.16S1180.06,677.33,1180.92,677.33Z"/><path class="cls-48" d="M1218.2,677.09c.68,0,1.23-.41,1.23-.92a1.11,1.11,0,0,0-1.23-.93c-.69,0-1.24.42-1.24.93S1217.51,677.09,1218.2,677.09Z"/><ellipse class="cls-48" cx="1255.47" cy="676.17" rx="0.93" ry="0.69"/><path class="cls-48" d="M1292.75,676.63c.35,0,.62-.2.62-.46s-.27-.46-.62-.46-.62.2-.62.46S1292.41,676.63,1292.75,676.63Z"/><path class="cls-48" d="M1330,676.48c.23,0,.41-.14.41-.31s-.18-.31-.41-.31-.41.14-.41.31S1329.8,676.48,1330,676.48Z"/><path class="cls-48" d="M1367.31,676.25a.08.08,0,1,0,0-.16c-.06,0-.11,0-.11.08S1367.25,676.25,1367.31,676.25Z"/><path class="cls-48" d="M25.31,707.85c2.85,0,5.17-1.73,5.17-3.86s-2.32-3.85-5.17-3.85-5.17,1.72-5.17,3.85S22.45,707.85,25.31,707.85Z"/><path class="cls-48" d="M62.59,707.85c2.85,0,5.16-1.73,5.16-3.86s-2.31-3.85-5.16-3.85-5.17,1.72-5.17,3.85S59.73,707.85,62.59,707.85Z"/><path class="cls-48" d="M99.86,707.85c2.86,0,5.17-1.73,5.17-3.86s-2.31-3.85-5.17-3.85S94.7,701.86,94.7,704,97,707.85,99.86,707.85Z"/><path class="cls-48" d="M137.14,707.85c2.86,0,5.17-1.73,5.17-3.86s-2.31-3.85-5.17-3.85S132,701.86,132,704,134.29,707.85,137.14,707.85Z"/><path class="cls-48" d="M174.42,707.85c2.85,0,5.17-1.73,5.17-3.86s-2.32-3.85-5.17-3.85-5.17,1.72-5.17,3.85S171.57,707.85,174.42,707.85Z"/><path class="cls-48" d="M211.7,707.85c2.85,0,5.17-1.73,5.17-3.86s-2.32-3.85-5.17-3.85-5.17,1.72-5.17,3.85S208.84,707.85,211.7,707.85Z"/><path class="cls-48" d="M249,707.85c2.86,0,5.17-1.73,5.17-3.86s-2.31-3.85-5.17-3.85-5.16,1.72-5.16,3.85S246.12,707.85,249,707.85Z"/><path class="cls-48" d="M286.25,707.85c2.86,0,5.17-1.73,5.17-3.86s-2.31-3.85-5.17-3.85-5.17,1.72-5.17,3.85S283.4,707.85,286.25,707.85Z"/><path class="cls-48" d="M323.53,707.85c2.86,0,5.17-1.73,5.17-3.86s-2.31-3.85-5.17-3.85-5.17,1.72-5.17,3.85S320.68,707.85,323.53,707.85Z"/><path class="cls-48" d="M360.81,707.85c2.85,0,5.17-1.73,5.17-3.86s-2.32-3.85-5.17-3.85-5.17,1.72-5.17,3.85S358,707.85,360.81,707.85Z"/><path class="cls-48" d="M398.09,707.93c2.91,0,5.27-1.76,5.27-3.94s-2.36-3.93-5.27-3.93-5.28,1.76-5.28,3.93S395.17,707.93,398.09,707.93Z"/><path class="cls-48" d="M435.36,707.93c2.92,0,5.27-1.76,5.27-3.94s-2.35-3.93-5.27-3.93-5.27,1.76-5.27,3.93S432.45,707.93,435.36,707.93Z"/><path class="cls-48" d="M472.64,707.93c2.91,0,5.27-1.76,5.27-3.94s-2.36-3.93-5.27-3.93-5.27,1.76-5.27,3.93S469.73,707.93,472.64,707.93Z"/><path class="cls-48" d="M509.92,707.93c2.91,0,5.27-1.76,5.27-3.94s-2.36-3.93-5.27-3.93-5.27,1.76-5.27,3.93S507,707.93,509.92,707.93Z"/><path class="cls-48" d="M547.2,707.93c2.91,0,5.27-1.76,5.27-3.94s-2.36-3.93-5.27-3.93-5.27,1.76-5.27,3.93S544.28,707.93,547.2,707.93Z"/><path class="cls-48" d="M584.47,707.93c2.92,0,5.28-1.76,5.28-3.94s-2.36-3.93-5.28-3.93-5.27,1.76-5.27,3.93S581.56,707.93,584.47,707.93Z"/><path class="cls-48" d="M621.75,707.93c2.92,0,5.27-1.76,5.27-3.94s-2.35-3.93-5.27-3.93-5.27,1.76-5.27,3.93S618.84,707.93,621.75,707.93Z"/><path class="cls-48" d="M659,707.93c2.91,0,5.27-1.76,5.27-3.94s-2.36-3.93-5.27-3.93-5.27,1.76-5.27,3.93S656.12,707.93,659,707.93Z"/><path class="cls-48" d="M696.31,707.93c2.91,0,5.27-1.76,5.27-3.94s-2.36-3.93-5.27-3.93S691,701.82,691,704,693.39,707.93,696.31,707.93Z"/><path class="cls-48" d="M733.59,707.78c2.79,0,5.06-1.69,5.06-3.79s-2.27-3.78-5.06-3.78-5.07,1.7-5.07,3.78S730.79,707.78,733.59,707.78Z"/><path class="cls-48" d="M770.86,707.55c2.63,0,4.76-1.59,4.76-3.56s-2.13-3.55-4.76-3.55-4.75,1.6-4.75,3.55S768.24,707.55,770.86,707.55Z"/><path class="cls-48" d="M808.14,707.39c2.52,0,4.55-1.52,4.55-3.4s-2-3.39-4.55-3.39-4.55,1.52-4.55,3.39S805.63,707.39,808.14,707.39Z"/><path class="cls-48" d="M845.42,707.16c2.34,0,4.24-1.42,4.24-3.17s-1.9-3.16-4.24-3.16-4.24,1.42-4.24,3.16S843.08,707.16,845.42,707.16Z"/><path class="cls-48" d="M882.7,706.93c2.17,0,3.93-1.32,3.93-2.94s-1.76-2.93-3.93-2.93-3.93,1.32-3.93,2.93S880.53,706.93,882.7,706.93Z"/><path class="cls-48" d="M920,706.7c2,0,3.62-1.21,3.62-2.71s-1.62-2.7-3.62-2.7-3.61,1.21-3.61,2.7S918,706.7,920,706.7Z"/><ellipse class="cls-48" cx="957.25" cy="703.99" rx="3.31" ry="2.47"/><path class="cls-48" d="M994.53,706.23c1.66,0,3-1,3-2.24s-1.34-2.23-3-2.23-3,1-3,2.23S992.87,706.23,994.53,706.23Z"/><path class="cls-48" d="M1031.81,706c1.48,0,2.69-.9,2.69-2s-1.21-2-2.69-2-2.69.9-2.69,2S1030.32,706,1031.81,706Z"/><path class="cls-48" d="M1069.08,705.77c1.32,0,2.38-.79,2.38-1.78s-1.06-1.77-2.38-1.77-2.37.79-2.37,1.77S1067.77,705.77,1069.08,705.77Z"/><path class="cls-48" d="M1106.36,705.54c1.15,0,2.07-.69,2.07-1.55s-.92-1.54-2.07-1.54-2.06.69-2.06,1.54S1105.22,705.54,1106.36,705.54Z"/><path class="cls-48" d="M1143.64,705.38c1,0,1.86-.62,1.86-1.39s-.83-1.38-1.86-1.38-1.86.62-1.86,1.38S1142.61,705.38,1143.64,705.38Z"/><path class="cls-48" d="M1180.92,705.15c.85,0,1.55-.52,1.55-1.16s-.7-1.15-1.55-1.15-1.55.52-1.55,1.15S1180.06,705.15,1180.92,705.15Z"/><path class="cls-48" d="M1218.2,704.92c.68,0,1.23-.41,1.23-.93s-.55-.92-1.23-.92-1.24.41-1.24.92S1217.51,704.92,1218.2,704.92Z"/><path class="cls-48" d="M1255.47,704.69c.51,0,.94-.31.94-.7s-.43-.69-.94-.69-.93.31-.93.69S1255,704.69,1255.47,704.69Z"/><path class="cls-48" d="M1292.75,704.46c.35,0,.62-.21.62-.47s-.27-.46-.62-.46-.62.21-.62.46A.56.56,0,0,0,1292.75,704.46Z"/><path class="cls-48" d="M1330,704.3c.23,0,.41-.13.41-.31s-.18-.3-.41-.3-.41.13-.41.3S1329.8,704.3,1330,704.3Z"/><path class="cls-48" d="M1367.31,704.07a.09.09,0,0,0,.1-.08s-.05-.07-.1-.07-.11,0-.11.07S1367.25,704.07,1367.31,704.07Z"/><ellipse class="cls-48" cx="25.31" cy="731.82" rx="4.03" ry="3.01"/><ellipse class="cls-48" cx="62.59" cy="731.82" rx="4.03" ry="3.01"/><path class="cls-48" d="M99.86,734.76c2.17,0,3.93-1.32,3.93-2.94s-1.76-2.93-3.93-2.93-3.93,1.31-3.93,2.93S97.69,734.76,99.86,734.76Z"/><path class="cls-48" d="M137.14,734.76c2.17,0,3.93-1.32,3.93-2.94s-1.76-2.93-3.93-2.93-3.93,1.31-3.93,2.93S135,734.76,137.14,734.76Z"/><path class="cls-48" d="M174.42,734.76c2.17,0,3.93-1.32,3.93-2.94s-1.76-2.93-3.93-2.93-3.93,1.31-3.93,2.93S172.25,734.76,174.42,734.76Z"/><path class="cls-48" d="M211.7,734.76c2.17,0,3.93-1.32,3.93-2.94s-1.76-2.93-3.93-2.93-3.93,1.31-3.93,2.93S209.53,734.76,211.7,734.76Z"/><path class="cls-48" d="M249,734.68c2.12,0,3.83-1.28,3.83-2.86S251.09,729,249,729s-3.82,1.27-3.82,2.85S246.86,734.68,249,734.68Z"/><ellipse class="cls-48" cx="286.25" cy="731.82" rx="3.82" ry="2.85"/><path class="cls-48" d="M323.53,734.68c2.11,0,3.83-1.28,3.83-2.86s-1.72-2.85-3.83-2.85-3.83,1.27-3.83,2.85S321.42,734.68,323.53,734.68Z"/><path class="cls-48" d="M360.81,734.68c2.11,0,3.83-1.28,3.83-2.86s-1.72-2.85-3.83-2.85-3.83,1.27-3.83,2.85S358.69,734.68,360.81,734.68Z"/><ellipse class="cls-48" cx="398.09" cy="731.82" rx="3.82" ry="2.85"/><path class="cls-48" d="M435.36,734.68c2.12,0,3.83-1.28,3.83-2.86s-1.71-2.85-3.83-2.85-3.82,1.27-3.82,2.85S433.25,734.68,435.36,734.68Z"/><path class="cls-48" d="M472.64,734.6c2.06,0,3.72-1.25,3.72-2.78S474.7,729,472.64,729s-3.72,1.25-3.72,2.78S470.58,734.6,472.64,734.6Z"/><path class="cls-48" d="M509.92,734.6c2.06,0,3.72-1.25,3.72-2.78S512,729,509.92,729s-3.72,1.25-3.72,2.78S507.86,734.6,509.92,734.6Z"/><ellipse class="cls-48" cx="547.2" cy="731.82" rx="3.72" ry="2.78"/><path class="cls-48" d="M584.47,734.6c2.06,0,3.73-1.25,3.73-2.78s-1.67-2.78-3.73-2.78-3.72,1.25-3.72,2.78S582.42,734.6,584.47,734.6Z"/><path class="cls-48" d="M621.75,734.52c2,0,3.62-1.2,3.62-2.7s-1.62-2.7-3.62-2.7-3.62,1.21-3.62,2.7S619.75,734.52,621.75,734.52Z"/><path class="cls-48" d="M659,734.52c2,0,3.62-1.2,3.62-2.7s-1.62-2.7-3.62-2.7-3.62,1.21-3.62,2.7S657,734.52,659,734.52Z"/><path class="cls-48" d="M696.31,734.52c2,0,3.62-1.2,3.62-2.7s-1.62-2.7-3.62-2.7-3.62,1.21-3.62,2.7S694.31,734.52,696.31,734.52Z"/><ellipse class="cls-48" cx="733.59" cy="731.82" rx="3.52" ry="2.62"/><path class="cls-48" d="M770.86,734.29c1.83,0,3.31-1.1,3.31-2.47s-1.48-2.47-3.31-2.47-3.3,1.11-3.3,2.47S769,734.29,770.86,734.29Z"/><ellipse class="cls-48" cx="808.14" cy="731.82" rx="3.1" ry="2.31"/><path class="cls-48" d="M845.42,734c1.6,0,2.89-1,2.89-2.16s-1.29-2.16-2.89-2.16-2.9,1-2.9,2.16S843.82,734,845.42,734Z"/><path class="cls-48" d="M882.7,733.83c1.48,0,2.69-.9,2.69-2s-1.21-2-2.69-2-2.69.89-2.69,2S881.21,733.83,882.7,733.83Z"/><path class="cls-48" d="M920,733.68c1.37,0,2.48-.84,2.48-1.86S921.34,730,920,730s-2.48.83-2.48,1.85S918.61,733.68,920,733.68Z"/><path class="cls-48" d="M957.25,733.52c1.26,0,2.27-.76,2.27-1.7s-1-1.69-2.27-1.69-2.27.76-2.27,1.69S956,733.52,957.25,733.52Z"/><path class="cls-48" d="M994.53,733.37c1.14,0,2.07-.7,2.07-1.55s-.93-1.54-2.07-1.54-2.07.69-2.07,1.54S993.39,733.37,994.53,733.37Z"/><ellipse class="cls-48" cx="1031.81" cy="731.82" rx="1.86" ry="1.39"/><path class="cls-48" d="M1069.08,733.06c.92,0,1.66-.55,1.66-1.24s-.74-1.23-1.66-1.23-1.65.55-1.65,1.23S1068.17,733.06,1069.08,733.06Z"/><ellipse class="cls-48" cx="1106.36" cy="731.82" rx="1.45" ry="1.08"/><path class="cls-48" d="M1143.64,732.75c.69,0,1.24-.42,1.24-.93s-.55-.92-1.24-.92-1.24.41-1.24.92S1143,732.75,1143.64,732.75Z"/><path class="cls-48" d="M1180.92,732.6a.93.93,0,0,0,1-.78c0-.42-.46-.77-1-.77s-1,.35-1,.77S1180.35,732.6,1180.92,732.6Z"/><path class="cls-48" d="M1218.2,732.44c.45,0,.82-.28.82-.62s-.37-.61-.82-.61-.83.27-.83.61S1217.74,732.44,1218.2,732.44Z"/><path class="cls-48" d="M1255.47,732.29c.35,0,.63-.21.63-.47s-.28-.46-.63-.46-.62.21-.62.46A.56.56,0,0,0,1255.47,732.29Z"/><path class="cls-48" d="M1292.75,732.13c.23,0,.41-.14.41-.31s-.18-.31-.41-.31-.41.14-.41.31S1292.52,732.13,1292.75,732.13Z"/><path class="cls-48" d="M1330,732a.18.18,0,0,0,.2-.16c0-.08-.09-.15-.2-.15s-.21.07-.21.15S1329.92,732,1330,732Z"/></g><g class="cls-47"><path class="cls-48" d="M1890.72,517c-1.89,0-3.41,1.13-3.41,2.54s1.52,2.55,3.41,2.55,3.41-1.14,3.41-2.55S1892.6,517,1890.72,517Z"/><path class="cls-48" d="M1853.44,517c-1.89,0-3.41,1.13-3.41,2.54s1.52,2.55,3.41,2.55,3.41-1.14,3.41-2.55S1855.33,517,1853.44,517Z"/><path class="cls-48" d="M1816.16,517c-1.88,0-3.41,1.13-3.41,2.54s1.53,2.55,3.41,2.55,3.42-1.14,3.42-2.55S1818.05,517,1816.16,517Z"/><path class="cls-48" d="M1778.88,517c-1.88,0-3.41,1.13-3.41,2.54s1.53,2.55,3.41,2.55,3.42-1.14,3.42-2.55S1780.77,517,1778.88,517Z"/><path class="cls-48" d="M1741.61,517c-1.89,0-3.42,1.13-3.42,2.54s1.53,2.55,3.42,2.55,3.41-1.14,3.41-2.55S1743.49,517,1741.61,517Z"/><path class="cls-48" d="M1704.33,517c-1.89,0-3.41,1.13-3.41,2.54s1.52,2.55,3.41,2.55,3.41-1.14,3.41-2.55S1706.21,517,1704.33,517Z"/><ellipse class="cls-48" cx="1667.05" cy="519.53" rx="3.41" ry="2.54"/><path class="cls-48" d="M1629.77,517c-1.88,0-3.41,1.13-3.41,2.54s1.53,2.55,3.41,2.55,3.42-1.14,3.42-2.55S1631.66,517,1629.77,517Z"/><path class="cls-48" d="M1592.49,517c-1.88,0-3.41,1.13-3.41,2.54s1.53,2.55,3.41,2.55,3.42-1.14,3.42-2.55S1594.38,517,1592.49,517Z"/><path class="cls-48" d="M1555.22,517c-1.89,0-3.41,1.13-3.41,2.54s1.52,2.55,3.41,2.55,3.41-1.14,3.41-2.55S1557.1,517,1555.22,517Z"/><path class="cls-48" d="M1517.94,517c-1.89,0-3.41,1.13-3.41,2.54s1.52,2.55,3.41,2.55,3.41-1.14,3.41-2.55S1519.83,517,1517.94,517Z"/><path class="cls-48" d="M1480.66,517c-1.88,0-3.41,1.13-3.41,2.54s1.53,2.55,3.41,2.55,3.42-1.14,3.42-2.55S1482.55,517,1480.66,517Z"/><path class="cls-48" d="M1443.38,517c-1.88,0-3.41,1.13-3.41,2.54s1.53,2.55,3.41,2.55,3.42-1.14,3.42-2.55S1445.27,517,1443.38,517Z"/><path class="cls-48" d="M1406.11,517c-1.89,0-3.42,1.13-3.42,2.54s1.53,2.55,3.42,2.55,3.41-1.14,3.41-2.55S1408,517,1406.11,517Z"/><path class="cls-48" d="M1368.83,517c-1.89,0-3.41,1.13-3.41,2.54s1.52,2.55,3.41,2.55,3.41-1.14,3.41-2.55S1370.72,517,1368.83,517Z"/><ellipse class="cls-48" cx="1331.55" cy="519.53" rx="3.41" ry="2.54"/><path class="cls-48" d="M1294.27,517c-1.88,0-3.41,1.13-3.41,2.54s1.53,2.55,3.41,2.55,3.42-1.14,3.42-2.55S1296.16,517,1294.27,517Z"/><path class="cls-48" d="M1257,517c-1.88,0-3.41,1.13-3.41,2.54s1.53,2.55,3.41,2.55,3.42-1.14,3.42-2.55S1258.88,517,1257,517Z"/><path class="cls-48" d="M1219.72,517c-1.89,0-3.41,1.13-3.41,2.54s1.52,2.55,3.41,2.55,3.41-1.14,3.41-2.55S1221.6,517,1219.72,517Z"/><ellipse class="cls-48" cx="1182.44" cy="519.53" rx="3.31" ry="2.47"/><path class="cls-48" d="M1145.16,517.22c-1.71,0-3.1,1-3.1,2.31s1.39,2.31,3.1,2.31,3.1-1,3.1-2.31S1146.87,517.22,1145.16,517.22Z"/><path class="cls-48" d="M1107.88,517.29c-1.65,0-3,1-3,2.24s1.34,2.24,3,2.24,3-1,3-2.24S1109.54,517.29,1107.88,517.29Z"/><path class="cls-48" d="M1070.61,517.53c-1.49,0-2.69.89-2.69,2s1.2,2,2.69,2,2.68-.9,2.68-2S1072.09,517.53,1070.61,517.53Z"/><ellipse class="cls-48" cx="1033.33" cy="519.53" rx="2.58" ry="1.93"/><ellipse class="cls-48" cx="996.05" cy="519.53" rx="2.38" ry="1.77"/><ellipse class="cls-48" cx="958.77" cy="519.53" rx="2.17" ry="1.62"/><path class="cls-48" d="M921.5,518.07c-1.09,0-2,.65-2,1.46s.88,1.47,2,1.47,2-.66,2-1.47S922.58,518.07,921.5,518.07Z"/><path class="cls-48" d="M884.22,518.22c-1,0-1.76.59-1.76,1.31s.78,1.31,1.76,1.31,1.75-.59,1.75-1.31S885.19,518.22,884.22,518.22Z"/><ellipse class="cls-48" cx="846.94" cy="519.53" rx="1.55" ry="1.16"/><path class="cls-48" d="M809.66,518.53c-.74,0-1.34.45-1.34,1s.6,1,1.34,1,1.35-.45,1.35-1S810.4,518.53,809.66,518.53Z"/><path class="cls-48" d="M772.38,518.68c-.62,0-1.13.38-1.13.85s.51.85,1.13.85,1.14-.38,1.14-.85S773,518.68,772.38,518.68Z"/><ellipse class="cls-48" cx="735.11" cy="519.53" rx="0.93" ry="0.69"/><path class="cls-48" d="M697.83,518.91c-.46,0-.83.28-.83.62s.37.62.83.62.82-.28.82-.62S698.29,518.91,697.83,518.91Z"/><ellipse class="cls-48" cx="660.55" cy="519.53" rx="0.62" ry="0.46"/><path class="cls-48" d="M623.27,519.22c-.22,0-.41.14-.41.31s.19.31.41.31.42-.14.42-.31S623.5,519.22,623.27,519.22Z"/><path class="cls-48" d="M586,519.38c-.12,0-.21.06-.21.15s.09.15.21.15.2-.06.2-.15S586.11,519.38,586,519.38Z"/><path class="cls-48" d="M1890.72,487.84c-2.86,0-5.17,1.73-5.17,3.86s2.31,3.86,5.17,3.86,5.16-1.73,5.16-3.86S1893.57,487.84,1890.72,487.84Z"/><path class="cls-48" d="M1853.44,487.84c-2.86,0-5.17,1.73-5.17,3.86s2.31,3.86,5.17,3.86,5.17-1.73,5.17-3.86S1856.29,487.84,1853.44,487.84Z"/><ellipse class="cls-48" cx="1816.16" cy="491.7" rx="5.17" ry="3.86"/><path class="cls-48" d="M1778.88,487.84c-2.85,0-5.17,1.73-5.17,3.86s2.32,3.86,5.17,3.86,5.17-1.73,5.17-3.86S1781.74,487.84,1778.88,487.84Z"/><path class="cls-48" d="M1741.61,487.84c-2.86,0-5.17,1.73-5.17,3.86s2.31,3.86,5.17,3.86,5.16-1.73,5.16-3.86S1744.46,487.84,1741.61,487.84Z"/><ellipse class="cls-48" cx="1704.33" cy="491.7" rx="5.17" ry="3.86"/><path class="cls-48" d="M1667.05,487.84c-2.85,0-5.17,1.73-5.17,3.86s2.32,3.86,5.17,3.86,5.17-1.73,5.17-3.86S1669.9,487.84,1667.05,487.84Z"/><ellipse class="cls-48" cx="1629.77" cy="491.7" rx="5.17" ry="3.86"/><path class="cls-48" d="M1592.49,487.84c-2.85,0-5.16,1.73-5.16,3.86s2.31,3.86,5.16,3.86,5.17-1.73,5.17-3.86S1595.35,487.84,1592.49,487.84Z"/><ellipse class="cls-48" cx="1555.22" cy="491.7" rx="5.17" ry="3.86"/><path class="cls-48" d="M1517.94,487.77c-2.91,0-5.27,1.76-5.27,3.93s2.36,3.94,5.27,3.94,5.27-1.76,5.27-3.94S1520.85,487.77,1517.94,487.77Z"/><path class="cls-48" d="M1480.66,487.77c-2.91,0-5.27,1.76-5.27,3.93s2.36,3.94,5.27,3.94,5.27-1.76,5.27-3.94S1483.57,487.77,1480.66,487.77Z"/><path class="cls-48" d="M1443.38,487.77c-2.91,0-5.27,1.76-5.27,3.93s2.36,3.94,5.27,3.94,5.28-1.76,5.28-3.94S1446.3,487.77,1443.38,487.77Z"/><path class="cls-48" d="M1406.11,487.77c-2.91,0-5.28,1.76-5.28,3.93s2.37,3.94,5.28,3.94,5.27-1.76,5.27-3.94S1409,487.77,1406.11,487.77Z"/><path class="cls-48" d="M1368.83,487.77c-2.91,0-5.27,1.76-5.27,3.93s2.36,3.94,5.27,3.94,5.27-1.76,5.27-3.94S1371.74,487.77,1368.83,487.77Z"/><path class="cls-48" d="M1331.55,487.77c-2.91,0-5.27,1.76-5.27,3.93s2.36,3.94,5.27,3.94,5.27-1.76,5.27-3.94S1334.46,487.77,1331.55,487.77Z"/><path class="cls-48" d="M1294.27,487.77c-2.91,0-5.27,1.76-5.27,3.93s2.36,3.94,5.27,3.94,5.28-1.76,5.28-3.94S1297.18,487.77,1294.27,487.77Z"/><path class="cls-48" d="M1257,487.77c-2.9,0-5.27,1.76-5.27,3.93s2.37,3.94,5.27,3.94,5.28-1.76,5.28-3.94S1259.91,487.77,1257,487.77Z"/><path class="cls-48" d="M1219.72,487.77c-2.91,0-5.28,1.76-5.28,3.93s2.37,3.94,5.28,3.94,5.27-1.76,5.27-3.94S1222.63,487.77,1219.72,487.77Z"/><path class="cls-48" d="M1182.44,487.92c-2.8,0-5.06,1.69-5.06,3.78s2.26,3.79,5.06,3.79,5.06-1.7,5.06-3.79S1185.24,487.92,1182.44,487.92Z"/><ellipse class="cls-48" cx="1145.16" cy="491.7" rx="4.75" ry="3.55"/><path class="cls-48" d="M1107.88,488.31c-2.51,0-4.54,1.52-4.54,3.39s2,3.4,4.54,3.4,4.55-1.52,4.55-3.4S1110.4,488.31,1107.88,488.31Z"/><ellipse class="cls-48" cx="1070.61" cy="491.7" rx="4.24" ry="3.16"/><path class="cls-48" d="M1033.33,488.77c-2.17,0-3.93,1.31-3.93,2.93s1.76,2.94,3.93,2.94,3.93-1.32,3.93-2.94S1035.5,488.77,1033.33,488.77Z"/><path class="cls-48" d="M996.05,489c-2,0-3.62,1.21-3.62,2.7s1.62,2.71,3.62,2.71,3.62-1.21,3.62-2.71S998.05,489,996.05,489Z"/><ellipse class="cls-48" cx="958.77" cy="491.7" rx="3.31" ry="2.47"/><path class="cls-48" d="M921.5,489.47c-1.66,0-3,1-3,2.23s1.34,2.24,3,2.24,3-1,3-2.24S923.15,489.47,921.5,489.47Z"/><path class="cls-48" d="M884.22,489.7c-1.49,0-2.69.89-2.69,2s1.2,2,2.69,2,2.69-.9,2.69-2S885.7,489.7,884.22,489.7Z"/><ellipse class="cls-48" cx="846.94" cy="491.7" rx="2.38" ry="1.77"/><path class="cls-48" d="M809.66,490.16c-1.14,0-2.07.69-2.07,1.54s.93,1.55,2.07,1.55,2.07-.69,2.07-1.55S810.8,490.16,809.66,490.16Z"/><path class="cls-48" d="M772.38,490.31c-1,0-1.85.63-1.85,1.39s.83,1.39,1.85,1.39,1.86-.62,1.86-1.39S773.41,490.31,772.38,490.31Z"/><path class="cls-48" d="M735.11,490.55c-.86,0-1.55.52-1.55,1.15s.69,1.16,1.55,1.16,1.55-.52,1.55-1.16S736,490.55,735.11,490.55Z"/><ellipse class="cls-48" cx="697.83" cy="491.7" rx="1.24" ry="0.93"/><path class="cls-48" d="M660.55,491c-.51,0-.93.31-.93.69s.42.7.93.7.93-.31.93-.7S661.07,491,660.55,491Z"/><path class="cls-48" d="M623.27,491.24a.48.48,0,1,0,0,.93.56.56,0,0,0,.62-.47C623.89,491.45,623.61,491.24,623.27,491.24Z"/><path class="cls-48" d="M586,491.39c-.23,0-.42.14-.42.31s.19.31.42.31.41-.13.41-.31S586.23,491.39,586,491.39Z"/><path class="cls-48" d="M548.72,491.63c-.06,0-.11,0-.11.07s0,.08.11.08.1,0,.1-.08S548.78,491.63,548.72,491.63Z"/><path class="cls-48" d="M1890.72,460c-2.86,0-5.17,1.73-5.17,3.85s2.31,3.86,5.17,3.86,5.16-1.72,5.16-3.86S1893.57,460,1890.72,460Z"/><path class="cls-48" d="M1853.44,460c-2.86,0-5.17,1.73-5.17,3.85s2.31,3.86,5.17,3.86,5.17-1.72,5.17-3.86S1856.29,460,1853.44,460Z"/><path class="cls-48" d="M1816.16,460c-2.85,0-5.17,1.73-5.17,3.85s2.32,3.86,5.17,3.86,5.17-1.72,5.17-3.86S1819,460,1816.16,460Z"/><path class="cls-48" d="M1778.88,460c-2.85,0-5.17,1.73-5.17,3.85s2.32,3.86,5.17,3.86,5.17-1.72,5.17-3.86S1781.74,460,1778.88,460Z"/><path class="cls-48" d="M1741.61,460c-2.86,0-5.17,1.73-5.17,3.85s2.31,3.86,5.17,3.86,5.16-1.72,5.16-3.86S1744.46,460,1741.61,460Z"/><path class="cls-48" d="M1704.33,460c-2.85,0-5.17,1.73-5.17,3.85s2.32,3.86,5.17,3.86,5.17-1.72,5.17-3.86S1707.18,460,1704.33,460Z"/><path class="cls-48" d="M1667.05,460c-2.85,0-5.17,1.73-5.17,3.85s2.32,3.86,5.17,3.86,5.17-1.72,5.17-3.86S1669.9,460,1667.05,460Z"/><path class="cls-48" d="M1629.77,460c-2.85,0-5.17,1.73-5.17,3.85s2.32,3.86,5.17,3.86,5.17-1.72,5.17-3.86S1632.63,460,1629.77,460Z"/><path class="cls-48" d="M1592.49,460c-2.85,0-5.16,1.73-5.16,3.85s2.31,3.86,5.16,3.86,5.17-1.72,5.17-3.86S1595.35,460,1592.49,460Z"/><path class="cls-48" d="M1555.22,460c-2.86,0-5.17,1.73-5.17,3.85s2.31,3.86,5.17,3.86,5.17-1.72,5.17-3.86S1558.07,460,1555.22,460Z"/><path class="cls-48" d="M1517.94,459.94c-2.91,0-5.27,1.76-5.27,3.93s2.36,3.94,5.27,3.94,5.27-1.76,5.27-3.94S1520.85,459.94,1517.94,459.94Z"/><path class="cls-48" d="M1480.66,459.94c-2.91,0-5.27,1.76-5.27,3.93s2.36,3.94,5.27,3.94,5.27-1.76,5.27-3.94S1483.57,459.94,1480.66,459.94Z"/><path class="cls-48" d="M1443.38,459.94c-2.91,0-5.27,1.76-5.27,3.93s2.36,3.94,5.27,3.94,5.28-1.76,5.28-3.94S1446.3,459.94,1443.38,459.94Z"/><path class="cls-48" d="M1406.11,459.94c-2.91,0-5.28,1.76-5.28,3.93s2.37,3.94,5.28,3.94,5.27-1.76,5.27-3.94S1409,459.94,1406.11,459.94Z"/><path class="cls-48" d="M1368.83,459.94c-2.91,0-5.27,1.76-5.27,3.93s2.36,3.94,5.27,3.94,5.27-1.76,5.27-3.94S1371.74,459.94,1368.83,459.94Z"/><path class="cls-48" d="M1331.55,459.94c-2.91,0-5.27,1.76-5.27,3.93s2.36,3.94,5.27,3.94,5.27-1.76,5.27-3.94S1334.46,459.94,1331.55,459.94Z"/><path class="cls-48" d="M1294.27,459.94c-2.91,0-5.27,1.76-5.27,3.93s2.36,3.94,5.27,3.94,5.28-1.76,5.28-3.94S1297.18,459.94,1294.27,459.94Z"/><path class="cls-48" d="M1257,459.94c-2.9,0-5.27,1.76-5.27,3.93s2.37,3.94,5.27,3.94,5.28-1.76,5.28-3.94S1259.91,459.94,1257,459.94Z"/><path class="cls-48" d="M1219.72,459.94c-2.91,0-5.28,1.76-5.28,3.93s2.37,3.94,5.28,3.94,5.27-1.76,5.27-3.94S1222.63,459.94,1219.72,459.94Z"/><path class="cls-48" d="M1182.44,460.1c-2.8,0-5.06,1.69-5.06,3.77s2.26,3.79,5.06,3.79,5.06-1.69,5.06-3.79S1185.24,460.1,1182.44,460.1Z"/><path class="cls-48" d="M1145.16,460.33c-2.62,0-4.75,1.59-4.75,3.54s2.13,3.56,4.75,3.56,4.76-1.59,4.76-3.56S1147.79,460.33,1145.16,460.33Z"/><path class="cls-48" d="M1107.88,460.48c-2.51,0-4.54,1.52-4.54,3.39s2,3.4,4.54,3.4,4.55-1.52,4.55-3.4S1110.4,460.48,1107.88,460.48Z"/><path class="cls-48" d="M1070.61,460.71c-2.35,0-4.24,1.42-4.24,3.16s1.89,3.17,4.24,3.17,4.24-1.42,4.24-3.17S1073,460.71,1070.61,460.71Z"/><path class="cls-48" d="M1033.33,460.94c-2.17,0-3.93,1.32-3.93,2.93s1.76,2.94,3.93,2.94,3.93-1.32,3.93-2.94S1035.5,460.94,1033.33,460.94Z"/><path class="cls-48" d="M996.05,461.18c-2,0-3.62,1.2-3.62,2.69s1.62,2.71,3.62,2.71,3.62-1.21,3.62-2.71S998.05,461.18,996.05,461.18Z"/><ellipse class="cls-48" cx="958.77" cy="463.87" rx="3.31" ry="2.47"/><path class="cls-48" d="M921.5,461.64c-1.66,0-3,1-3,2.23s1.34,2.24,3,2.24,3-1,3-2.24S923.15,461.64,921.5,461.64Z"/><path class="cls-48" d="M884.22,461.87c-1.49,0-2.69.9-2.69,2s1.2,2,2.69,2,2.69-.9,2.69-2S885.7,461.87,884.22,461.87Z"/><path class="cls-48" d="M846.94,462.1c-1.31,0-2.38.8-2.38,1.77s1.07,1.78,2.38,1.78,2.38-.79,2.38-1.78S848.25,462.1,846.94,462.1Z"/><path class="cls-48" d="M809.66,462.33c-1.14,0-2.07.7-2.07,1.54s.93,1.55,2.07,1.55,2.07-.69,2.07-1.55S810.8,462.33,809.66,462.33Z"/><path class="cls-48" d="M772.38,462.49c-1,0-1.85.62-1.85,1.38s.83,1.39,1.85,1.39,1.86-.62,1.86-1.39S773.41,462.49,772.38,462.49Z"/><path class="cls-48" d="M735.11,462.72c-.86,0-1.55.52-1.55,1.15s.69,1.16,1.55,1.16,1.55-.51,1.55-1.16S736,462.72,735.11,462.72Z"/><path class="cls-48" d="M697.83,463c-.68,0-1.24.41-1.24.92s.56.93,1.24.93,1.24-.41,1.24-.93S698.51,463,697.83,463Z"/><path class="cls-48" d="M660.55,463.18c-.51,0-.93.31-.93.69s.42.7.93.7.93-.31.93-.7S661.07,463.18,660.55,463.18Z"/><path class="cls-48" d="M623.27,463.41a.48.48,0,1,0,0,.93.56.56,0,0,0,.62-.47C623.89,463.62,623.61,463.41,623.27,463.41Z"/><path class="cls-48" d="M586,463.57c-.23,0-.42.14-.42.3s.19.31.42.31.41-.13.41-.31S586.23,463.57,586,463.57Z"/><path class="cls-48" d="M548.72,463.8c-.06,0-.11,0-.11.07s0,.08.11.08.1,0,.1-.08S548.78,463.8,548.72,463.8Z"/><path class="cls-48" d="M1890.72,432.19c-2.86,0-5.17,1.73-5.17,3.86s2.31,3.86,5.17,3.86,5.16-1.73,5.16-3.86S1893.57,432.19,1890.72,432.19Z"/><path class="cls-48" d="M1853.44,432.19c-2.86,0-5.17,1.73-5.17,3.86s2.31,3.86,5.17,3.86,5.17-1.73,5.17-3.86S1856.29,432.19,1853.44,432.19Z"/><ellipse class="cls-48" cx="1816.16" cy="436.05" rx="5.17" ry="3.86"/><path class="cls-48" d="M1778.88,432.19c-2.85,0-5.17,1.73-5.17,3.86s2.32,3.86,5.17,3.86,5.17-1.73,5.17-3.86S1781.74,432.19,1778.88,432.19Z"/><path class="cls-48" d="M1741.61,432.19c-2.86,0-5.17,1.73-5.17,3.86s2.31,3.86,5.17,3.86,5.16-1.73,5.16-3.86S1744.46,432.19,1741.61,432.19Z"/><ellipse class="cls-48" cx="1704.33" cy="436.05" rx="5.17" ry="3.86"/><path class="cls-48" d="M1667.05,432.19c-2.85,0-5.17,1.73-5.17,3.86s2.32,3.86,5.17,3.86,5.17-1.73,5.17-3.86S1669.9,432.19,1667.05,432.19Z"/><ellipse class="cls-48" cx="1629.77" cy="436.05" rx="5.17" ry="3.86"/><path class="cls-48" d="M1592.49,432.19c-2.85,0-5.16,1.73-5.16,3.86s2.31,3.86,5.16,3.86,5.17-1.73,5.17-3.86S1595.35,432.19,1592.49,432.19Z"/><ellipse class="cls-48" cx="1555.22" cy="436.05" rx="5.17" ry="3.86"/><path class="cls-48" d="M1517.94,432.11c-2.91,0-5.27,1.77-5.27,3.94s2.36,3.93,5.27,3.93,5.27-1.76,5.27-3.93S1520.85,432.11,1517.94,432.11Z"/><path class="cls-48" d="M1480.66,432.11c-2.91,0-5.27,1.77-5.27,3.94s2.36,3.93,5.27,3.93,5.27-1.76,5.27-3.93S1483.57,432.11,1480.66,432.11Z"/><path class="cls-48" d="M1443.38,432.11c-2.91,0-5.27,1.77-5.27,3.94s2.36,3.93,5.27,3.93,5.28-1.76,5.28-3.93S1446.3,432.11,1443.38,432.11Z"/><path class="cls-48" d="M1406.11,432.11c-2.91,0-5.28,1.77-5.28,3.94s2.37,3.93,5.28,3.93,5.27-1.76,5.27-3.93S1409,432.11,1406.11,432.11Z"/><path class="cls-48" d="M1368.83,432.11c-2.91,0-5.27,1.77-5.27,3.94s2.36,3.93,5.27,3.93,5.27-1.76,5.27-3.93S1371.74,432.11,1368.83,432.11Z"/><path class="cls-48" d="M1331.55,432.11c-2.91,0-5.27,1.77-5.27,3.94s2.36,3.93,5.27,3.93,5.27-1.76,5.27-3.93S1334.46,432.11,1331.55,432.11Z"/><path class="cls-48" d="M1294.27,432.11c-2.91,0-5.27,1.77-5.27,3.94s2.36,3.93,5.27,3.93,5.28-1.76,5.28-3.93S1297.18,432.11,1294.27,432.11Z"/><path class="cls-48" d="M1257,432.11c-2.9,0-5.27,1.77-5.27,3.94s2.37,3.93,5.27,3.93,5.28-1.76,5.28-3.93S1259.91,432.11,1257,432.11Z"/><path class="cls-48" d="M1219.72,432.11c-2.91,0-5.28,1.77-5.28,3.94s2.37,3.93,5.28,3.93,5.27-1.76,5.27-3.93S1222.63,432.11,1219.72,432.11Z"/><path class="cls-48" d="M1182.44,432.27c-2.8,0-5.06,1.69-5.06,3.78s2.26,3.78,5.06,3.78,5.06-1.69,5.06-3.78S1185.24,432.27,1182.44,432.27Z"/><ellipse class="cls-48" cx="1145.16" cy="436.05" rx="4.75" ry="3.55"/><path class="cls-48" d="M1107.88,432.65c-2.51,0-4.54,1.53-4.54,3.4s2,3.39,4.54,3.39,4.55-1.51,4.55-3.39S1110.4,432.65,1107.88,432.65Z"/><ellipse class="cls-48" cx="1070.61" cy="436.05" rx="4.24" ry="3.16"/><path class="cls-48" d="M1033.33,433.12c-2.17,0-3.93,1.31-3.93,2.93s1.76,2.93,3.93,2.93,3.93-1.31,3.93-2.93S1035.5,433.12,1033.33,433.12Z"/><path class="cls-48" d="M996.05,433.35c-2,0-3.62,1.21-3.62,2.7s1.62,2.7,3.62,2.7,3.62-1.21,3.62-2.7S998.05,433.35,996.05,433.35Z"/><ellipse class="cls-48" cx="958.77" cy="436.05" rx="3.31" ry="2.47"/><path class="cls-48" d="M921.5,433.81c-1.66,0-3,1-3,2.24s1.34,2.24,3,2.24,3-1,3-2.24S923.15,433.81,921.5,433.81Z"/><path class="cls-48" d="M884.22,434c-1.49,0-2.69.9-2.69,2s1.2,2,2.69,2,2.69-.9,2.69-2S885.7,434,884.22,434Z"/><ellipse class="cls-48" cx="846.94" cy="436.05" rx="2.38" ry="1.77"/><path class="cls-48" d="M809.66,434.51c-1.14,0-2.07.69-2.07,1.54s.93,1.54,2.07,1.54,2.07-.69,2.07-1.54S810.8,434.51,809.66,434.51Z"/><path class="cls-48" d="M772.38,434.66c-1,0-1.85.62-1.85,1.39s.83,1.39,1.85,1.39,1.86-.62,1.86-1.39S773.41,434.66,772.38,434.66Z"/><path class="cls-48" d="M735.11,434.89c-.86,0-1.55.52-1.55,1.16s.69,1.16,1.55,1.16,1.55-.52,1.55-1.16S736,434.89,735.11,434.89Z"/><path class="cls-48" d="M697.83,435.12c-.68,0-1.24.42-1.24.93s.56.93,1.24.93,1.24-.42,1.24-.93S698.51,435.12,697.83,435.12Z"/><path class="cls-48" d="M660.55,435.36c-.51,0-.93.31-.93.69s.42.7.93.7a.84.84,0,0,0,.93-.7C661.48,435.67,661.07,435.36,660.55,435.36Z"/><path class="cls-48" d="M623.27,435.59c-.34,0-.61.2-.61.46s.27.46.61.46.62-.2.62-.46S623.61,435.59,623.27,435.59Z"/><path class="cls-48" d="M586,435.74c-.23,0-.42.14-.42.31s.19.31.42.31.41-.14.41-.31S586.23,435.74,586,435.74Z"/><path class="cls-48" d="M548.72,436c-.06,0-.11,0-.11.08s0,.08.11.08a.08.08,0,1,0,0-.16Z"/><path class="cls-48" d="M1890.72,404.36c-2.86,0-5.17,1.73-5.17,3.86s2.31,3.86,5.17,3.86,5.16-1.73,5.16-3.86S1893.57,404.36,1890.72,404.36Z"/><path class="cls-48" d="M1853.44,404.36c-2.86,0-5.17,1.73-5.17,3.86s2.31,3.86,5.17,3.86,5.17-1.73,5.17-3.86S1856.29,404.36,1853.44,404.36Z"/><ellipse class="cls-48" cx="1816.16" cy="408.22" rx="5.17" ry="3.86"/><path class="cls-48" d="M1778.88,404.36c-2.85,0-5.17,1.73-5.17,3.86s2.32,3.86,5.17,3.86,5.17-1.73,5.17-3.86S1781.74,404.36,1778.88,404.36Z"/><path class="cls-48" d="M1741.61,404.36c-2.86,0-5.17,1.73-5.17,3.86s2.31,3.86,5.17,3.86,5.16-1.73,5.16-3.86S1744.46,404.36,1741.61,404.36Z"/><ellipse class="cls-48" cx="1704.33" cy="408.22" rx="5.17" ry="3.86"/><path class="cls-48" d="M1667.05,404.36c-2.85,0-5.17,1.73-5.17,3.86s2.32,3.86,5.17,3.86,5.17-1.73,5.17-3.86S1669.9,404.36,1667.05,404.36Z"/><ellipse class="cls-48" cx="1629.77" cy="408.22" rx="5.17" ry="3.86"/><path class="cls-48" d="M1592.49,404.36c-2.85,0-5.16,1.73-5.16,3.86s2.31,3.86,5.16,3.86,5.17-1.73,5.17-3.86S1595.35,404.36,1592.49,404.36Z"/><ellipse class="cls-48" cx="1555.22" cy="408.22" rx="5.17" ry="3.86"/><ellipse class="cls-48" cx="1517.94" cy="408.22" rx="5.27" ry="3.93"/><ellipse class="cls-48" cx="1480.66" cy="408.22" rx="5.27" ry="3.93"/><path class="cls-48" d="M1443.38,404.29c-2.91,0-5.27,1.76-5.27,3.93s2.36,3.94,5.27,3.94,5.28-1.76,5.28-3.94S1446.3,404.29,1443.38,404.29Z"/><path class="cls-48" d="M1406.11,404.29c-2.91,0-5.28,1.76-5.28,3.93s2.37,3.94,5.28,3.94,5.27-1.76,5.27-3.94S1409,404.29,1406.11,404.29Z"/><ellipse class="cls-48" cx="1368.83" cy="408.22" rx="5.27" ry="3.93"/><ellipse class="cls-48" cx="1331.55" cy="408.22" rx="5.27" ry="3.93"/><path class="cls-48" d="M1294.27,404.29c-2.91,0-5.27,1.76-5.27,3.93s2.36,3.94,5.27,3.94,5.28-1.76,5.28-3.94S1297.18,404.29,1294.27,404.29Z"/><path class="cls-48" d="M1257,404.29c-2.9,0-5.27,1.76-5.27,3.93s2.37,3.94,5.27,3.94,5.28-1.76,5.28-3.94S1259.91,404.29,1257,404.29Z"/><path class="cls-48" d="M1219.72,404.29c-2.91,0-5.28,1.76-5.28,3.93s2.37,3.94,5.28,3.94,5.27-1.76,5.27-3.94S1222.63,404.29,1219.72,404.29Z"/><ellipse class="cls-48" cx="1182.44" cy="408.22" rx="5.06" ry="3.78"/><ellipse class="cls-48" cx="1145.16" cy="408.22" rx="4.75" ry="3.55"/><path class="cls-48" d="M1107.88,404.83c-2.51,0-4.54,1.52-4.54,3.39s2,3.4,4.54,3.4,4.55-1.52,4.55-3.4S1110.4,404.83,1107.88,404.83Z"/><ellipse class="cls-48" cx="1070.61" cy="408.22" rx="4.24" ry="3.16"/><path class="cls-48" d="M1033.33,405.29c-2.17,0-3.93,1.31-3.93,2.93s1.76,2.94,3.93,2.94,3.93-1.32,3.93-2.94S1035.5,405.29,1033.33,405.29Z"/><ellipse class="cls-48" cx="996.05" cy="408.22" rx="3.62" ry="2.7"/><ellipse class="cls-48" cx="958.77" cy="408.22" rx="3.31" ry="2.47"/><path class="cls-48" d="M921.5,406c-1.66,0-3,1-3,2.24s1.34,2.24,3,2.24,3-1,3-2.24S923.15,406,921.5,406Z"/><path class="cls-48" d="M884.22,406.22c-1.49,0-2.69.89-2.69,2s1.2,2,2.69,2,2.69-.9,2.69-2S885.7,406.22,884.22,406.22Z"/><ellipse class="cls-48" cx="846.94" cy="408.22" rx="2.38" ry="1.77"/><path class="cls-48" d="M809.66,406.68c-1.14,0-2.07.69-2.07,1.54s.93,1.55,2.07,1.55,2.07-.69,2.07-1.55S810.8,406.68,809.66,406.68Z"/><path class="cls-48" d="M772.38,406.83c-1,0-1.85.63-1.85,1.39s.83,1.39,1.85,1.39,1.86-.62,1.86-1.39S773.41,406.83,772.38,406.83Z"/><path class="cls-48" d="M735.11,407.06c-.86,0-1.55.52-1.55,1.16s.69,1.16,1.55,1.16,1.55-.52,1.55-1.16S736,407.06,735.11,407.06Z"/><ellipse class="cls-48" cx="697.83" cy="408.22" rx="1.24" ry="0.93"/><path class="cls-48" d="M660.55,407.53c-.51,0-.93.31-.93.69s.42.7.93.7a.84.84,0,0,0,.93-.7C661.48,407.84,661.07,407.53,660.55,407.53Z"/><path class="cls-48" d="M623.27,407.76a.48.48,0,1,0,0,.93.56.56,0,0,0,.62-.47C623.89,408,623.61,407.76,623.27,407.76Z"/><path class="cls-48" d="M586,407.91c-.23,0-.42.14-.42.31s.19.31.42.31.41-.14.41-.31S586.23,407.91,586,407.91Z"/><path class="cls-48" d="M548.72,408.14c-.06,0-.11,0-.11.08s0,.08.11.08.1,0,.1-.08A.09.09,0,0,0,548.72,408.14Z"/><path class="cls-48" d="M1890.72,376.54c-2.86,0-5.17,1.72-5.17,3.86s2.31,3.85,5.17,3.85,5.16-1.72,5.16-3.85S1893.57,376.54,1890.72,376.54Z"/><path class="cls-48" d="M1853.44,376.54c-2.86,0-5.17,1.72-5.17,3.86s2.31,3.85,5.17,3.85,5.17-1.72,5.17-3.85S1856.29,376.54,1853.44,376.54Z"/><ellipse class="cls-48" cx="1816.16" cy="380.4" rx="5.17" ry="3.86"/><path class="cls-48" d="M1778.88,376.54c-2.85,0-5.17,1.72-5.17,3.86s2.32,3.85,5.17,3.85,5.17-1.72,5.17-3.85S1781.74,376.54,1778.88,376.54Z"/><path class="cls-48" d="M1741.61,376.54c-2.86,0-5.17,1.72-5.17,3.86s2.31,3.85,5.17,3.85,5.16-1.72,5.16-3.85S1744.46,376.54,1741.61,376.54Z"/><ellipse class="cls-48" cx="1704.33" cy="380.4" rx="5.17" ry="3.86"/><path class="cls-48" d="M1667.05,376.54c-2.85,0-5.17,1.72-5.17,3.86s2.32,3.85,5.17,3.85,5.17-1.72,5.17-3.85S1669.9,376.54,1667.05,376.54Z"/><ellipse class="cls-48" cx="1629.77" cy="380.4" rx="5.17" ry="3.86"/><path class="cls-48" d="M1592.49,376.54c-2.85,0-5.16,1.72-5.16,3.86s2.31,3.85,5.16,3.85,5.17-1.72,5.17-3.85S1595.35,376.54,1592.49,376.54Z"/><ellipse class="cls-48" cx="1555.22" cy="380.4" rx="5.17" ry="3.86"/><ellipse class="cls-48" cx="1517.94" cy="380.4" rx="5.27" ry="3.93"/><ellipse class="cls-48" cx="1480.66" cy="380.4" rx="5.27" ry="3.93"/><path class="cls-48" d="M1443.38,376.46c-2.91,0-5.27,1.76-5.27,3.94s2.36,3.93,5.27,3.93,5.28-1.76,5.28-3.93S1446.3,376.46,1443.38,376.46Z"/><path class="cls-48" d="M1406.11,376.46c-2.91,0-5.28,1.76-5.28,3.94s2.37,3.93,5.28,3.93,5.27-1.76,5.27-3.93S1409,376.46,1406.11,376.46Z"/><ellipse class="cls-48" cx="1368.83" cy="380.4" rx="5.27" ry="3.93"/><ellipse class="cls-48" cx="1331.55" cy="380.4" rx="5.27" ry="3.93"/><path class="cls-48" d="M1294.27,376.46c-2.91,0-5.27,1.76-5.27,3.94s2.36,3.93,5.27,3.93,5.28-1.76,5.28-3.93S1297.18,376.46,1294.27,376.46Z"/><path class="cls-48" d="M1257,376.46c-2.9,0-5.27,1.76-5.27,3.94s2.37,3.93,5.27,3.93,5.28-1.76,5.28-3.93S1259.91,376.46,1257,376.46Z"/><path class="cls-48" d="M1219.72,376.46c-2.91,0-5.28,1.76-5.28,3.94s2.37,3.93,5.28,3.93,5.27-1.76,5.27-3.93S1222.63,376.46,1219.72,376.46Z"/><path class="cls-48" d="M1182.44,376.62c-2.8,0-5.06,1.69-5.06,3.78s2.26,3.78,5.06,3.78,5.06-1.7,5.06-3.78S1185.24,376.62,1182.44,376.62Z"/><ellipse class="cls-48" cx="1145.16" cy="380.4" rx="4.75" ry="3.55"/><path class="cls-48" d="M1107.88,377c-2.51,0-4.54,1.52-4.54,3.4s2,3.39,4.54,3.39,4.55-1.52,4.55-3.39S1110.4,377,1107.88,377Z"/><ellipse class="cls-48" cx="1070.61" cy="380.4" rx="4.24" ry="3.16"/><path class="cls-48" d="M1033.33,377.47c-2.17,0-3.93,1.31-3.93,2.93s1.76,2.93,3.93,2.93,3.93-1.32,3.93-2.93S1035.5,377.47,1033.33,377.47Z"/><ellipse class="cls-48" cx="996.05" cy="380.4" rx="3.62" ry="2.7"/><ellipse class="cls-48" cx="958.77" cy="380.4" rx="3.31" ry="2.47"/><path class="cls-48" d="M921.5,378.16c-1.66,0-3,1-3,2.24s1.34,2.23,3,2.23,3-1,3-2.23S923.15,378.16,921.5,378.16Z"/><path class="cls-48" d="M884.22,378.39c-1.49,0-2.69.9-2.69,2s1.2,2,2.69,2,2.69-.9,2.69-2S885.7,378.39,884.22,378.39Z"/><ellipse class="cls-48" cx="846.94" cy="380.4" rx="2.38" ry="1.77"/><path class="cls-48" d="M809.66,378.85c-1.14,0-2.07.69-2.07,1.55s.93,1.54,2.07,1.54,2.07-.69,2.07-1.54S810.8,378.85,809.66,378.85Z"/><path class="cls-48" d="M772.38,379c-1,0-1.85.62-1.85,1.39s.83,1.38,1.85,1.38,1.86-.62,1.86-1.38S773.41,379,772.38,379Z"/><path class="cls-48" d="M735.11,379.24c-.86,0-1.55.52-1.55,1.16s.69,1.15,1.55,1.15,1.55-.51,1.55-1.15S736,379.24,735.11,379.24Z"/><ellipse class="cls-48" cx="697.83" cy="380.4" rx="1.24" ry="0.93"/><path class="cls-48" d="M660.55,379.7c-.51,0-.93.31-.93.7s.42.69.93.69.93-.31.93-.69S661.07,379.7,660.55,379.7Z"/><path class="cls-48" d="M623.27,379.93a.48.48,0,1,0,0,.93c.34,0,.62-.21.62-.46A.56.56,0,0,0,623.27,379.93Z"/><path class="cls-48" d="M586,380.09c-.23,0-.42.14-.42.31s.19.3.42.3.41-.13.41-.3S586.23,380.09,586,380.09Z"/><path class="cls-48" d="M548.72,380.32c-.06,0-.11,0-.11.08s0,.07.11.07.1,0,.1-.07S548.78,380.32,548.72,380.32Z"/><ellipse class="cls-48" cx="1890.72" cy="352.57" rx="4.03" ry="3.01"/><ellipse class="cls-48" cx="1853.44" cy="352.57" rx="4.03" ry="3.01"/><path class="cls-48" d="M1816.16,349.64c-2.17,0-3.93,1.31-3.93,2.93s1.76,2.93,3.93,2.93,3.93-1.31,3.93-2.93S1818.33,349.64,1816.16,349.64Z"/><path class="cls-48" d="M1778.88,349.64c-2.17,0-3.92,1.31-3.92,2.93s1.75,2.93,3.92,2.93,3.93-1.31,3.93-2.93S1781.05,349.64,1778.88,349.64Z"/><path class="cls-48" d="M1741.61,349.64c-2.17,0-3.93,1.31-3.93,2.93s1.76,2.93,3.93,2.93,3.92-1.31,3.92-2.93S1743.77,349.64,1741.61,349.64Z"/><path class="cls-48" d="M1704.33,349.64c-2.17,0-3.93,1.31-3.93,2.93s1.76,2.93,3.93,2.93,3.92-1.31,3.92-2.93S1706.5,349.64,1704.33,349.64Z"/><path class="cls-48" d="M1667.05,349.71c-2.11,0-3.82,1.28-3.82,2.86s1.71,2.86,3.82,2.86,3.82-1.29,3.82-2.86S1669.16,349.71,1667.05,349.71Z"/><path class="cls-48" d="M1629.77,349.71c-2.11,0-3.82,1.28-3.82,2.86s1.71,2.86,3.82,2.86,3.83-1.29,3.83-2.86S1631.88,349.71,1629.77,349.71Z"/><path class="cls-48" d="M1592.49,349.71c-2.11,0-3.82,1.28-3.82,2.86s1.71,2.86,3.82,2.86,3.83-1.29,3.83-2.86S1594.61,349.71,1592.49,349.71Z"/><path class="cls-48" d="M1555.22,349.71c-2.11,0-3.83,1.28-3.83,2.86s1.72,2.86,3.83,2.86,3.82-1.29,3.82-2.86S1557.33,349.71,1555.22,349.71Z"/><path class="cls-48" d="M1517.94,349.71c-2.11,0-3.82,1.28-3.82,2.86s1.71,2.86,3.82,2.86,3.82-1.29,3.82-2.86S1520.05,349.71,1517.94,349.71Z"/><path class="cls-48" d="M1480.66,349.71c-2.11,0-3.82,1.28-3.82,2.86s1.71,2.86,3.82,2.86,3.83-1.29,3.83-2.86S1482.77,349.71,1480.66,349.71Z"/><path class="cls-48" d="M1443.38,349.79c-2.05,0-3.72,1.24-3.72,2.78s1.67,2.78,3.72,2.78,3.73-1.25,3.73-2.78S1445.44,349.79,1443.38,349.79Z"/><path class="cls-48" d="M1406.11,349.79c-2.06,0-3.72,1.24-3.72,2.78s1.66,2.78,3.72,2.78,3.72-1.25,3.72-2.78S1408.16,349.79,1406.11,349.79Z"/><path class="cls-48" d="M1368.83,349.79c-2,0-3.72,1.24-3.72,2.78s1.67,2.78,3.72,2.78,3.72-1.25,3.72-2.78S1370.88,349.79,1368.83,349.79Z"/><path class="cls-48" d="M1331.55,349.79c-2,0-3.72,1.24-3.72,2.78s1.67,2.78,3.72,2.78,3.72-1.25,3.72-2.78S1333.61,349.79,1331.55,349.79Z"/><path class="cls-48" d="M1294.27,349.87c-2,0-3.62,1.21-3.62,2.7s1.63,2.7,3.62,2.7,3.62-1.21,3.62-2.7S1296.27,349.87,1294.27,349.87Z"/><path class="cls-48" d="M1257,349.87c-2,0-3.61,1.21-3.61,2.7s1.62,2.7,3.61,2.7,3.62-1.21,3.62-2.7S1259,349.87,1257,349.87Z"/><path class="cls-48" d="M1219.72,349.87c-2,0-3.62,1.21-3.62,2.7s1.62,2.7,3.62,2.7,3.62-1.21,3.62-2.7S1221.72,349.87,1219.72,349.87Z"/><path class="cls-48" d="M1182.44,350c-1.94,0-3.51,1.17-3.51,2.62s1.57,2.62,3.51,2.62,3.52-1.17,3.52-2.62S1184.38,350,1182.44,350Z"/><ellipse class="cls-48" cx="1145.16" cy="352.57" rx="3.31" ry="2.47"/><path class="cls-48" d="M1107.88,350.25c-1.71,0-3.1,1-3.1,2.32s1.39,2.31,3.1,2.31,3.11-1,3.11-2.31S1109.6,350.25,1107.88,350.25Z"/><path class="cls-48" d="M1070.61,350.41c-1.6,0-2.9,1-2.9,2.16s1.3,2.16,2.9,2.16,2.89-1,2.89-2.16S1072.2,350.41,1070.61,350.41Z"/><path class="cls-48" d="M1033.33,350.56c-1.49,0-2.69.9-2.69,2s1.2,2,2.69,2,2.69-.9,2.69-2S1034.82,350.56,1033.33,350.56Z"/><path class="cls-48" d="M996.05,350.72c-1.37,0-2.48.83-2.48,1.85s1.11,1.85,2.48,1.85,2.48-.83,2.48-1.85S997.42,350.72,996.05,350.72Z"/><path class="cls-48" d="M958.77,350.87c-1.25,0-2.27.76-2.27,1.7s1,1.7,2.27,1.7,2.28-.76,2.28-1.7S960,350.87,958.77,350.87Z"/><path class="cls-48" d="M921.5,351c-1.14,0-2.07.69-2.07,1.54s.93,1.54,2.07,1.54,2.06-.69,2.06-1.54S922.64,351,921.5,351Z"/><path class="cls-48" d="M884.22,351.18c-1,0-1.86.62-1.86,1.39s.83,1.39,1.86,1.39,1.86-.63,1.86-1.39S885.25,351.18,884.22,351.18Z"/><ellipse class="cls-48" cx="846.94" cy="352.57" rx="1.65" ry="1.23"/><ellipse class="cls-48" cx="809.66" cy="352.57" rx="1.45" ry="1.08"/><path class="cls-48" d="M772.38,351.64c-.68,0-1.24.42-1.24.93s.56.93,1.24.93,1.25-.42,1.25-.93S773.07,351.64,772.38,351.64Z"/><path class="cls-48" d="M735.11,351.8c-.58,0-1,.34-1,.77s.46.77,1,.77,1-.34,1-.77S735.68,351.8,735.11,351.8Z"/><path class="cls-48" d="M697.83,352c-.46,0-.83.28-.83.62s.37.62.83.62.82-.28.82-.62S698.29,352,697.83,352Z"/><path class="cls-48" d="M660.55,352.11c-.34,0-.62.2-.62.46s.28.46.62.46.62-.21.62-.46S660.89,352.11,660.55,352.11Z"/><path class="cls-48" d="M623.27,352.26c-.22,0-.41.14-.41.31s.19.31.41.31.42-.14.42-.31S623.5,352.26,623.27,352.26Z"/><path class="cls-48" d="M586,352.42c-.12,0-.21.06-.21.15s.09.15.21.15.2-.07.2-.15S586.11,352.42,586,352.42Z"/></g></g><rect class="cls-43" x="417.72" y="-422.48" width="1080.33" height="1928.85" transform="translate(415.95 1499.83) rotate(-90)"/></g></g></svg>