<svg xmlns="http://www.w3.org/2000/svg" xmlns:xlink="http://www.w3.org/1999/xlink" viewBox="0 0 1080 1920"><defs><style>.cls-1{fill:url(#linear-gradient);}.cls-2{fill:url(#linear-gradient-2);}.cls-3{fill:url(#linear-gradient-3);}.cls-4{fill:url(#linear-gradient-4);}.cls-5{fill:url(#linear-gradient-5);}.cls-6{fill:url(#linear-gradient-6);}.cls-7{fill:url(#linear-gradient-7);}.cls-8{fill:url(#linear-gradient-8);}.cls-9{fill:url(#linear-gradient-9);}.cls-10{fill:url(#linear-gradient-10);}.cls-11{fill:url(#linear-gradient-11);}.cls-12{fill:url(#linear-gradient-12);}.cls-13{fill:url(#linear-gradient-13);}.cls-14{fill:url(#linear-gradient-14);}.cls-15{fill:url(#linear-gradient-15);}.cls-16{fill:url(#linear-gradient-16);}.cls-17{fill:url(#linear-gradient-17);}.cls-18{fill:url(#linear-gradient-18);}.cls-19{fill:url(#linear-gradient-19);}.cls-20{fill:url(#linear-gradient-20);}.cls-21{fill:url(#linear-gradient-21);}.cls-22{fill:url(#linear-gradient-22);}.cls-23{fill:url(#linear-gradient-23);}.cls-24{fill:url(#linear-gradient-24);}.cls-25{fill:url(#linear-gradient-25);}.cls-26{fill:url(#linear-gradient-26);}.cls-27{fill:url(#linear-gradient-27);}.cls-28{fill:url(#linear-gradient-28);}.cls-29{fill:url(#linear-gradient-29);}.cls-30{fill:url(#linear-gradient-30);}.cls-31{fill:url(#linear-gradient-31);}.cls-32{fill:url(#linear-gradient-32);}.cls-33{fill:url(#linear-gradient-33);}.cls-34{fill:url(#linear-gradient-34);}.cls-35{fill:url(#linear-gradient-35);}.cls-36{fill:url(#linear-gradient-36);}.cls-37{fill:url(#linear-gradient-37);}.cls-38{fill:url(#linear-gradient-38);}.cls-39{fill:url(#linear-gradient-39);}.cls-40{fill:url(#linear-gradient-40);}.cls-41{fill:url(#linear-gradient-41);}.cls-42{fill:url(#linear-gradient-42);}.cls-43{fill:none;}.cls-44{isolation:isolate;}.cls-45{fill:#e1251b;}.cls-46{opacity:0.9;mix-blend-mode:darken;}.cls-47{mix-blend-mode:overlay;}.cls-48{fill:#fff;}.cls-49{clip-path:url(#clip-path);}.cls-50{mask:url(#mask);}.cls-51{fill:url(#linear-gradient-43);}.cls-52{mask:url(#mask-2);}.cls-53{fill:url(#linear-gradient-44);}.cls-54{mask:url(#mask-3);}.cls-55{fill:url(#linear-gradient-45);}.cls-56{mask:url(#mask-4);}.cls-57{fill:url(#linear-gradient-46);}.cls-58{mask:url(#mask-5);}.cls-59{fill:url(#linear-gradient-47);}.cls-60{mask:url(#mask-6);}.cls-61{fill:url(#linear-gradient-48);}.cls-62{mask:url(#mask-7);}.cls-63{fill:url(#linear-gradient-49);}.cls-64{mask:url(#mask-8);}.cls-65{fill:url(#linear-gradient-50);}.cls-66{mask:url(#mask-9);}.cls-67{fill:url(#linear-gradient-51);}.cls-68{mask:url(#mask-10);}.cls-69{fill:url(#linear-gradient-52);}.cls-70{mask:url(#mask-11);}.cls-71{fill:url(#linear-gradient-53);}.cls-72{mask:url(#mask-12);}.cls-73{fill:url(#linear-gradient-54);}.cls-74{mask:url(#mask-13);}.cls-75{fill:url(#linear-gradient-55);}.cls-76{mask:url(#mask-14);}.cls-77{fill:url(#linear-gradient-56);}.cls-78{mask:url(#mask-15);}.cls-79{fill:url(#linear-gradient-57);}.cls-80{mask:url(#mask-16);}.cls-81{fill:url(#linear-gradient-58);}.cls-82{mask:url(#mask-17);}.cls-83{fill:url(#linear-gradient-59);}.cls-84{mask:url(#mask-18);}.cls-85{fill:url(#linear-gradient-60);}.cls-86{mask:url(#mask-19);}.cls-87{fill:url(#linear-gradient-61);}.cls-88{mask:url(#mask-20);}.cls-89{fill:url(#linear-gradient-62);}.cls-90{mask:url(#mask-21);}.cls-91{fill:url(#linear-gradient-63);}.cls-92{clip-path:url(#clip-path-2);}.cls-93{mask:url(#mask-22);}.cls-94{fill:url(#linear-gradient-64);}.cls-95{mask:url(#mask-23);}.cls-96{fill:url(#linear-gradient-65);}.cls-97{mask:url(#mask-24);}.cls-98{fill:url(#linear-gradient-66);}.cls-99{mask:url(#mask-25);}.cls-100{fill:url(#linear-gradient-67);}.cls-101{mask:url(#mask-26);}.cls-102{fill:url(#linear-gradient-68);}.cls-103{mask:url(#mask-27);}.cls-104{fill:url(#linear-gradient-69);}.cls-105{mask:url(#mask-28);}.cls-106{fill:url(#linear-gradient-70);}.cls-107{mask:url(#mask-29);}.cls-108{fill:url(#linear-gradient-71);}.cls-109{mask:url(#mask-30);}.cls-110{fill:url(#linear-gradient-72);}.cls-111{mask:url(#mask-31);}.cls-112{fill:url(#linear-gradient-73);}.cls-113{mask:url(#mask-32);}.cls-114{fill:url(#linear-gradient-74);}.cls-115{mask:url(#mask-33);}.cls-116{fill:url(#linear-gradient-75);}.cls-117{mask:url(#mask-34);}.cls-118{fill:url(#linear-gradient-76);}.cls-119{mask:url(#mask-35);}.cls-120{fill:url(#linear-gradient-77);}.cls-121{mask:url(#mask-36);}.cls-122{fill:url(#linear-gradient-78);}.cls-123{mask:url(#mask-37);}.cls-124{fill:url(#linear-gradient-79);}.cls-125{mask:url(#mask-38);}.cls-126{fill:url(#linear-gradient-80);}.cls-127{mask:url(#mask-39);}.cls-128{fill:url(#linear-gradient-81);}.cls-129{mask:url(#mask-40);}.cls-130{fill:url(#linear-gradient-82);}.cls-131{mask:url(#mask-41);}.cls-132{fill:url(#linear-gradient-83);}.cls-133{mask:url(#mask-42);}.cls-134{fill:url(#linear-gradient-84);}.cls-135{clip-path:url(#clip-path-3);}</style><linearGradient id="linear-gradient" x1="-2626.58" y1="1322.82" x2="-2109.52" y2="1322.82" gradientTransform="translate(2258.17 2655.88) rotate(90)" gradientUnits="userSpaceOnUse"><stop offset="0" stop-color="#fff"/><stop offset="0.09" stop-color="#f8f8f8"/><stop offset="0.22" stop-color="#e6e6e6"/><stop offset="0.36" stop-color="#c8c8c8"/><stop offset="0.53" stop-color="#9e9e9e"/><stop offset="0.7" stop-color="#686868"/><stop offset="0.89" stop-color="#272727"/><stop offset="0.99"/></linearGradient><linearGradient id="linear-gradient-2" x1="1641.74" y1="1350.53" x2="2158.81" y2="1350.53" gradientTransform="matrix(0, -1, -1, 0, 2258.17, 2201.37)" xlink:href="#linear-gradient"/><linearGradient id="linear-gradient-3" x1="-2626.59" y1="1599.93" x2="-2109.52" y2="1599.93" xlink:href="#linear-gradient"/><linearGradient id="linear-gradient-4" x1="1641.74" y1="1627.64" x2="2158.81" y2="1627.64" gradientTransform="matrix(0, -1, -1, 0, 2258.17, 2201.37)" xlink:href="#linear-gradient"/><linearGradient id="linear-gradient-5" x1="-2626.58" y1="1655.35" x2="-2109.52" y2="1655.35" xlink:href="#linear-gradient"/><linearGradient id="linear-gradient-6" x1="1641.74" y1="1683.06" x2="2158.81" y2="1683.06" gradientTransform="matrix(0, -1, -1, 0, 2258.17, 2201.37)" xlink:href="#linear-gradient"/><linearGradient id="linear-gradient-7" x1="-2626.59" y1="1710.78" x2="-2109.52" y2="1710.78" xlink:href="#linear-gradient"/><linearGradient id="linear-gradient-8" x1="1641.74" y1="1738.49" x2="2158.81" y2="1738.49" gradientTransform="matrix(0, -1, -1, 0, 2258.17, 2201.37)" xlink:href="#linear-gradient"/><linearGradient id="linear-gradient-9" x1="-2626.58" y1="1766.2" x2="-2109.52" y2="1766.2" xlink:href="#linear-gradient"/><linearGradient id="linear-gradient-10" x1="1641.74" y1="1793.91" x2="2158.81" y2="1793.91" gradientTransform="matrix(0, -1, -1, 0, 2258.17, 2201.37)" xlink:href="#linear-gradient"/><linearGradient id="linear-gradient-11" x1="-2626.59" y1="1821.62" x2="-2109.52" y2="1821.62" xlink:href="#linear-gradient"/><linearGradient id="linear-gradient-12" x1="1641.74" y1="1849.33" x2="2158.81" y2="1849.33" gradientTransform="matrix(0, -1, -1, 0, 2258.17, 2201.37)" xlink:href="#linear-gradient"/><linearGradient id="linear-gradient-13" x1="-2626.59" y1="1378.24" x2="-2109.52" y2="1378.24" xlink:href="#linear-gradient"/><linearGradient id="linear-gradient-14" x1="-2626.58" y1="1877.04" x2="-2109.52" y2="1877.04" xlink:href="#linear-gradient"/><linearGradient id="linear-gradient-15" x1="-1370.86" y1="1667.77" x2="-853.79" y2="1667.77" xlink:href="#linear-gradient"/><linearGradient id="linear-gradient-16" x1="386.02" y1="1695.48" x2="903.08" y2="1695.48" gradientTransform="matrix(0, -1, -1, 0, 2258.17, 2201.37)" xlink:href="#linear-gradient"/><linearGradient id="linear-gradient-17" x1="-1370.86" y1="1723.19" x2="-853.79" y2="1723.19" xlink:href="#linear-gradient"/><linearGradient id="linear-gradient-18" x1="386.02" y1="1750.91" x2="903.08" y2="1750.91" gradientTransform="matrix(0, -1, -1, 0, 2258.17, 2201.37)" xlink:href="#linear-gradient"/><linearGradient id="linear-gradient-19" x1="-1370.86" y1="1778.62" x2="-853.79" y2="1778.62" xlink:href="#linear-gradient"/><linearGradient id="linear-gradient-20" x1="386.02" y1="1806.33" x2="903.08" y2="1806.33" gradientTransform="matrix(0, -1, -1, 0, 2258.17, 2201.37)" xlink:href="#linear-gradient"/><linearGradient id="linear-gradient-21" x1="-1370.86" y1="1834.04" x2="-853.79" y2="1834.04" xlink:href="#linear-gradient"/><linearGradient id="linear-gradient-22" x1="386.02" y1="1861.75" x2="903.08" y2="1861.75" gradientTransform="matrix(0, -1, -1, 0, 2258.17, 2201.37)" xlink:href="#linear-gradient"/><linearGradient id="linear-gradient-23" x1="-1370.86" y1="1889.46" x2="-853.79" y2="1889.46" xlink:href="#linear-gradient"/><linearGradient id="linear-gradient-24" x1="1641.74" y1="1405.95" x2="2158.81" y2="1405.95" gradientTransform="matrix(0, -1, -1, 0, 2258.17, 2201.37)" xlink:href="#linear-gradient"/><linearGradient id="linear-gradient-25" x1="386.02" y1="1917.17" x2="903.08" y2="1917.17" gradientTransform="matrix(0, -1, -1, 0, 2258.17, 2201.37)" xlink:href="#linear-gradient"/><linearGradient id="linear-gradient-26" x1="-1370.86" y1="1944.88" x2="-853.79" y2="1944.88" xlink:href="#linear-gradient"/><linearGradient id="linear-gradient-27" x1="386.02" y1="1972.6" x2="903.08" y2="1972.6" gradientTransform="matrix(0, -1, -1, 0, 2258.17, 2201.37)" xlink:href="#linear-gradient"/><linearGradient id="linear-gradient-28" x1="-1370.86" y1="2000.31" x2="-853.79" y2="2000.31" xlink:href="#linear-gradient"/><linearGradient id="linear-gradient-29" x1="386.02" y1="2028.02" x2="903.09" y2="2028.02" gradientTransform="matrix(0, -1, -1, 0, 2258.17, 2201.37)" xlink:href="#linear-gradient"/><linearGradient id="linear-gradient-30" x1="-1370.86" y1="2055.73" x2="-853.79" y2="2055.73" xlink:href="#linear-gradient"/><linearGradient id="linear-gradient-31" x1="386.02" y1="2083.44" x2="903.08" y2="2083.44" gradientTransform="matrix(0, -1, -1, 0, 2258.17, 2201.37)" xlink:href="#linear-gradient"/><linearGradient id="linear-gradient-32" x1="-1370.86" y1="2111.15" x2="-853.79" y2="2111.15" xlink:href="#linear-gradient"/><linearGradient id="linear-gradient-33" x1="386.02" y1="2138.86" x2="903.09" y2="2138.86" gradientTransform="matrix(0, -1, -1, 0, 2258.17, 2201.37)" xlink:href="#linear-gradient"/><linearGradient id="linear-gradient-34" x1="-1370.86" y1="2166.57" x2="-853.79" y2="2166.57" xlink:href="#linear-gradient"/><linearGradient id="linear-gradient-35" x1="-2626.58" y1="1433.66" x2="-2109.52" y2="1433.66" xlink:href="#linear-gradient"/><linearGradient id="linear-gradient-36" x1="386.02" y1="2194.29" x2="903.08" y2="2194.29" gradientTransform="matrix(0, -1, -1, 0, 2258.17, 2201.37)" xlink:href="#linear-gradient"/><linearGradient id="linear-gradient-37" x1="-1370.86" y1="2222" x2="-853.79" y2="2222" xlink:href="#linear-gradient"/><linearGradient id="linear-gradient-38" x1="1641.74" y1="1461.38" x2="2158.81" y2="1461.38" gradientTransform="matrix(0, -1, -1, 0, 2258.17, 2201.37)" xlink:href="#linear-gradient"/><linearGradient id="linear-gradient-39" x1="-2626.59" y1="1489.09" x2="-2109.52" y2="1489.09" xlink:href="#linear-gradient"/><linearGradient id="linear-gradient-40" x1="1641.74" y1="1516.8" x2="2158.81" y2="1516.8" gradientTransform="matrix(0, -1, -1, 0, 2258.17, 2201.37)" xlink:href="#linear-gradient"/><linearGradient id="linear-gradient-41" x1="-2626.58" y1="1544.51" x2="-2109.52" y2="1544.51" xlink:href="#linear-gradient"/><linearGradient id="linear-gradient-42" x1="1641.74" y1="1572.22" x2="2158.81" y2="1572.22" gradientTransform="matrix(0, -1, -1, 0, 2258.17, 2201.37)" xlink:href="#linear-gradient"/><clipPath id="clip-path"><ellipse class="cls-43" cx="656.51" cy="294.46" rx="178.14" ry="238.65"/></clipPath><mask id="mask" x="900.47" y="2.79" width="69.78" height="587.99" maskUnits="userSpaceOnUse"><rect class="cls-1" x="900.47" y="2.79" width="69.78" height="587.99"/></mask><linearGradient id="linear-gradient-43" x1="-1763.28" y1="2857.6" x2="-1380.79" y2="2857.6" gradientTransform="translate(1842.65 3426.65) rotate(135)" gradientUnits="userSpaceOnUse"><stop offset="0" stop-color="#fff"/><stop offset="0.09" stop-color="#f5f5f5"/><stop offset="0.49" stop-color="#cccdcd"/><stop offset="0.81" stop-color="#b3b4b4"/><stop offset="1" stop-color="#aaabab"/></linearGradient><mask id="mask-2" x="872.76" y="-1.86" width="69.77" height="588" maskUnits="userSpaceOnUse"><rect class="cls-2" x="872.76" y="-1.86" width="69.77" height="588"/></mask><linearGradient id="linear-gradient-44" x1="-1743.68" y1="2877.19" x2="-1361.2" y2="2877.19" xlink:href="#linear-gradient-43"/><mask id="mask-3" x="845.04" y="2.78" width="69.77" height="588" maskUnits="userSpaceOnUse"><rect class="cls-13" x="845.05" y="2.78" width="69.77" height="588"/></mask><linearGradient id="linear-gradient-45" x1="-1724.08" y1="2896.79" x2="-1341.6" y2="2896.79" xlink:href="#linear-gradient-43"/><mask id="mask-4" x="817.33" y="-1.86" width="69.78" height="588" maskUnits="userSpaceOnUse"><rect class="cls-24" x="817.33" y="-1.86" width="69.78" height="588"/></mask><linearGradient id="linear-gradient-46" x1="-1704.49" y1="2916.38" x2="-1322.01" y2="2916.38" xlink:href="#linear-gradient-43"/><mask id="mask-5" x="789.62" y="2.79" width="69.78" height="587.99" maskUnits="userSpaceOnUse"><rect class="cls-35" x="789.62" y="2.79" width="69.78" height="587.99"/></mask><linearGradient id="linear-gradient-47" x1="-1684.9" y1="2935.98" x2="-1302.41" y2="2935.98" xlink:href="#linear-gradient-43"/><mask id="mask-6" x="761.91" y="-1.86" width="69.77" height="588" maskUnits="userSpaceOnUse"><rect class="cls-38" x="761.91" y="-1.86" width="69.77" height="588"/></mask><linearGradient id="linear-gradient-48" x1="-1665.3" y1="2955.57" x2="-1282.82" y2="2955.57" xlink:href="#linear-gradient-43"/><mask id="mask-7" x="734.2" y="2.78" width="69.77" height="588" maskUnits="userSpaceOnUse"><rect class="cls-39" x="734.2" y="2.78" width="69.77" height="588"/></mask><linearGradient id="linear-gradient-49" x1="-1645.7" y1="2975.17" x2="-1263.22" y2="2975.17" xlink:href="#linear-gradient-43"/><mask id="mask-8" x="706.49" y="-1.86" width="69.77" height="588" maskUnits="userSpaceOnUse"><rect class="cls-40" x="706.49" y="-1.86" width="69.77" height="588"/></mask><linearGradient id="linear-gradient-50" x1="-1626.11" y1="2994.76" x2="-1243.63" y2="2994.76" xlink:href="#linear-gradient-43"/><mask id="mask-9" x="678.78" y="2.79" width="69.78" height="587.99" maskUnits="userSpaceOnUse"><rect class="cls-41" x="678.78" y="2.79" width="69.78" height="587.99"/></mask><linearGradient id="linear-gradient-51" x1="-1606.52" y1="3014.36" x2="-1224.03" y2="3014.36" xlink:href="#linear-gradient-43"/><mask id="mask-10" x="651.07" y="-1.86" width="69.77" height="588" maskUnits="userSpaceOnUse"><rect class="cls-42" x="651.07" y="-1.86" width="69.77" height="588"/></mask><linearGradient id="linear-gradient-52" x1="-1586.92" y1="3033.95" x2="-1204.44" y2="3033.95" xlink:href="#linear-gradient-43"/><mask id="mask-11" x="623.35" y="2.78" width="69.77" height="588" maskUnits="userSpaceOnUse"><rect class="cls-3" x="623.36" y="2.78" width="69.77" height="588"/></mask><linearGradient id="linear-gradient-53" x1="-1567.32" y1="3053.55" x2="-1184.84" y2="3053.55" xlink:href="#linear-gradient-43"/><mask id="mask-12" x="595.64" y="-1.86" width="69.78" height="588" maskUnits="userSpaceOnUse"><rect class="cls-4" x="595.64" y="-1.86" width="69.78" height="588"/></mask><linearGradient id="linear-gradient-54" x1="-1547.73" y1="3073.14" x2="-1165.25" y2="3073.14" xlink:href="#linear-gradient-43"/><mask id="mask-13" x="567.93" y="2.79" width="69.78" height="587.99" maskUnits="userSpaceOnUse"><rect class="cls-5" x="567.93" y="2.79" width="69.78" height="587.99"/></mask><linearGradient id="linear-gradient-55" x1="-1528.14" y1="3092.74" x2="-1145.65" y2="3092.74" xlink:href="#linear-gradient-43"/><mask id="mask-14" x="540.22" y="-1.86" width="69.77" height="588" maskUnits="userSpaceOnUse"><rect class="cls-6" x="540.22" y="-1.86" width="69.77" height="588"/></mask><linearGradient id="linear-gradient-56" x1="-1508.54" y1="3112.33" x2="-1126.06" y2="3112.33" xlink:href="#linear-gradient-43"/><mask id="mask-15" x="512.51" y="2.78" width="69.77" height="588" maskUnits="userSpaceOnUse"><rect class="cls-7" x="512.51" y="2.78" width="69.77" height="588"/></mask><linearGradient id="linear-gradient-57" x1="-1488.94" y1="3131.93" x2="-1106.47" y2="3131.93" xlink:href="#linear-gradient-43"/><mask id="mask-16" x="484.8" y="-1.86" width="69.77" height="588" maskUnits="userSpaceOnUse"><rect class="cls-8" x="484.8" y="-1.86" width="69.77" height="588"/></mask><linearGradient id="linear-gradient-58" x1="-1469.35" y1="3151.52" x2="-1086.87" y2="3151.52" xlink:href="#linear-gradient-43"/><mask id="mask-17" x="457.09" y="2.79" width="69.78" height="587.99" maskUnits="userSpaceOnUse"><rect class="cls-9" x="457.09" y="2.79" width="69.78" height="587.99"/></mask><linearGradient id="linear-gradient-59" x1="-1449.76" y1="3171.12" x2="-1067.27" y2="3171.12" xlink:href="#linear-gradient-43"/><mask id="mask-18" x="429.38" y="-1.86" width="69.77" height="588" maskUnits="userSpaceOnUse"><rect class="cls-10" x="429.38" y="-1.86" width="69.77" height="588"/></mask><linearGradient id="linear-gradient-60" x1="-1430.16" y1="3190.71" x2="-1047.68" y2="3190.71" xlink:href="#linear-gradient-43"/><mask id="mask-19" x="401.66" y="2.78" width="69.77" height="588" maskUnits="userSpaceOnUse"><rect class="cls-11" x="401.67" y="2.78" width="69.77" height="588"/></mask><linearGradient id="linear-gradient-61" x1="-1410.56" y1="3210.31" x2="-1028.09" y2="3210.31" xlink:href="#linear-gradient-43"/><mask id="mask-20" x="373.95" y="-1.86" width="69.78" height="588" maskUnits="userSpaceOnUse"><rect class="cls-12" x="373.95" y="-1.86" width="69.78" height="588"/></mask><linearGradient id="linear-gradient-62" x1="-1390.97" y1="3229.9" x2="-1008.49" y2="3229.9" xlink:href="#linear-gradient-43"/><mask id="mask-21" x="346.24" y="2.79" width="69.78" height="587.99" maskUnits="userSpaceOnUse"><rect class="cls-14" x="346.24" y="2.79" width="69.78" height="587.99"/></mask><linearGradient id="linear-gradient-63" x1="-1371.38" y1="3249.5" x2="-988.89" y2="3249.5" xlink:href="#linear-gradient-43"/><clipPath id="clip-path-2"><ellipse class="cls-43" cx="311.56" cy="1550.19" rx="178.14" ry="238.65"/></clipPath><mask id="mask-22" x="555.51" y="1258.51" width="69.78" height="588" maskUnits="userSpaceOnUse"><rect class="cls-15" x="555.51" y="1258.51" width="69.78" height="588"/></mask><linearGradient id="linear-gradient-64" x1="-631.41" y1="2213.58" x2="-248.93" y2="2213.58" xlink:href="#linear-gradient-43"/><mask id="mask-23" x="527.81" y="1253.87" width="69.77" height="587.99" maskUnits="userSpaceOnUse"><rect class="cls-16" x="527.81" y="1253.87" width="69.77" height="587.99"/></mask><linearGradient id="linear-gradient-65" x1="-611.82" y1="2233.17" x2="-229.33" y2="2233.17" xlink:href="#linear-gradient-43"/><mask id="mask-24" x="500.09" y="1258.51" width="69.77" height="588" maskUnits="userSpaceOnUse"><rect class="cls-17" x="500.09" y="1258.51" width="69.77" height="588"/></mask><linearGradient id="linear-gradient-66" x1="-592.22" y1="2252.77" x2="-209.74" y2="2252.77" xlink:href="#linear-gradient-43"/><mask id="mask-25" x="472.38" y="1253.87" width="69.78" height="587.99" maskUnits="userSpaceOnUse"><rect class="cls-18" x="472.38" y="1253.87" width="69.78" height="587.99"/></mask><linearGradient id="linear-gradient-67" x1="-572.62" y1="2272.36" x2="-190.14" y2="2272.36" xlink:href="#linear-gradient-43"/><mask id="mask-26" x="444.67" y="1258.51" width="69.77" height="588" maskUnits="userSpaceOnUse"><rect class="cls-19" x="444.67" y="1258.51" width="69.77" height="588"/></mask><linearGradient id="linear-gradient-68" x1="-553.03" y1="2291.96" x2="-170.55" y2="2291.96" xlink:href="#linear-gradient-43"/><mask id="mask-27" x="416.96" y="1253.87" width="69.77" height="587.99" maskUnits="userSpaceOnUse"><rect class="cls-20" x="416.96" y="1253.87" width="69.77" height="587.99"/></mask><linearGradient id="linear-gradient-69" x1="-533.44" y1="2311.55" x2="-150.95" y2="2311.55" xlink:href="#linear-gradient-43"/><mask id="mask-28" x="389.25" y="1258.51" width="69.77" height="588" maskUnits="userSpaceOnUse"><rect class="cls-21" x="389.25" y="1258.51" width="69.77" height="588"/></mask><linearGradient id="linear-gradient-70" x1="-513.84" y1="2331.15" x2="-131.36" y2="2331.15" xlink:href="#linear-gradient-43"/><mask id="mask-29" x="361.53" y="1253.87" width="69.78" height="587.99" maskUnits="userSpaceOnUse"><rect class="cls-22" x="361.53" y="1253.87" width="69.78" height="587.99"/></mask><linearGradient id="linear-gradient-71" x1="-494.24" y1="2350.74" x2="-111.76" y2="2350.74" xlink:href="#linear-gradient-43"/><mask id="mask-30" x="333.82" y="1258.51" width="69.78" height="588" maskUnits="userSpaceOnUse"><rect class="cls-23" x="333.82" y="1258.51" width="69.78" height="588"/></mask><linearGradient id="linear-gradient-72" x1="-474.65" y1="2370.34" x2="-92.17" y2="2370.34" xlink:href="#linear-gradient-43"/><mask id="mask-31" x="306.12" y="1253.87" width="69.77" height="587.99" maskUnits="userSpaceOnUse"><rect class="cls-25" x="306.12" y="1253.87" width="69.77" height="587.99"/></mask><linearGradient id="linear-gradient-73" x1="-455.06" y1="2389.93" x2="-72.57" y2="2389.93" xlink:href="#linear-gradient-43"/><mask id="mask-32" x="278.4" y="1258.51" width="69.77" height="588" maskUnits="userSpaceOnUse"><rect class="cls-26" x="278.4" y="1258.51" width="69.77" height="588"/></mask><linearGradient id="linear-gradient-74" x1="-435.46" y1="2409.53" x2="-52.98" y2="2409.53" xlink:href="#linear-gradient-43"/><mask id="mask-33" x="250.69" y="1253.87" width="69.78" height="587.99" maskUnits="userSpaceOnUse"><rect class="cls-27" x="250.69" y="1253.87" width="69.78" height="587.99"/></mask><linearGradient id="linear-gradient-75" x1="-415.86" y1="2429.12" x2="-33.38" y2="2429.12" xlink:href="#linear-gradient-43"/><mask id="mask-34" x="222.98" y="1258.51" width="69.77" height="588" maskUnits="userSpaceOnUse"><rect class="cls-28" x="222.98" y="1258.51" width="69.77" height="588"/></mask><linearGradient id="linear-gradient-76" x1="-396.27" y1="2448.71" x2="-13.79" y2="2448.71" xlink:href="#linear-gradient-43"/><mask id="mask-35" x="195.27" y="1253.87" width="69.77" height="588" maskUnits="userSpaceOnUse"><rect class="cls-29" x="195.27" y="1253.87" width="69.77" height="588"/></mask><linearGradient id="linear-gradient-77" x1="-376.68" y1="2468.31" x2="5.81" y2="2468.31" xlink:href="#linear-gradient-43"/><mask id="mask-36" x="167.56" y="1258.51" width="69.77" height="588" maskUnits="userSpaceOnUse"><rect class="cls-30" x="167.56" y="1258.51" width="69.77" height="588"/></mask><linearGradient id="linear-gradient-78" x1="-357.08" y1="2487.91" x2="25.4" y2="2487.91" xlink:href="#linear-gradient-43"/><mask id="mask-37" x="139.84" y="1253.87" width="69.78" height="587.99" maskUnits="userSpaceOnUse"><rect class="cls-31" x="139.84" y="1253.87" width="69.78" height="587.99"/></mask><linearGradient id="linear-gradient-79" x1="-337.48" y1="2507.5" x2="45" y2="2507.5" xlink:href="#linear-gradient-43"/><mask id="mask-38" x="112.13" y="1258.51" width="69.78" height="588" maskUnits="userSpaceOnUse"><rect class="cls-32" x="112.13" y="1258.51" width="69.78" height="588"/></mask><linearGradient id="linear-gradient-80" x1="-317.89" y1="2527.09" x2="64.59" y2="2527.09" xlink:href="#linear-gradient-43"/><mask id="mask-39" x="84.43" y="1253.87" width="69.77" height="588" maskUnits="userSpaceOnUse"><rect class="cls-33" x="84.43" y="1253.87" width="69.77" height="588"/></mask><linearGradient id="linear-gradient-81" x1="-298.3" y1="2546.69" x2="84.18" y2="2546.69" xlink:href="#linear-gradient-43"/><mask id="mask-40" x="56.71" y="1258.51" width="69.77" height="588" maskUnits="userSpaceOnUse"><rect class="cls-34" x="56.72" y="1258.51" width="69.77" height="588"/></mask><linearGradient id="linear-gradient-82" x1="-278.7" y1="2566.29" x2="103.78" y2="2566.29" xlink:href="#linear-gradient-43"/><mask id="mask-41" x="29" y="1253.87" width="69.78" height="587.99" maskUnits="userSpaceOnUse"><rect class="cls-36" x="29" y="1253.87" width="69.78" height="587.99"/></mask><linearGradient id="linear-gradient-83" x1="-259.1" y1="2585.88" x2="123.38" y2="2585.88" xlink:href="#linear-gradient-43"/><mask id="mask-42" x="1.29" y="1258.51" width="69.77" height="588" maskUnits="userSpaceOnUse"><rect class="cls-37" x="1.29" y="1258.51" width="69.77" height="588"/></mask><linearGradient id="linear-gradient-84" x1="-239.51" y1="2605.47" x2="142.97" y2="2605.47" xlink:href="#linear-gradient-43"/><clipPath id="clip-path-3"><rect id="_215483664" data-name=" 215483664" class="cls-43" x="-0.65" y="-7.89" width="1079.83" height="1928.89"/></clipPath></defs><title>site-bg-portrait</title><g class="cls-44"><g id="Layer_1" data-name="Layer 1"><rect class="cls-45" x="0.68" y="-2" width="1079.89" height="1927"/><rect class="cls-46" x="-0.65" y="-8" width="1080.33" height="1928.85"/><g class="cls-47"><polygon class="cls-48" points="776.12 1792.85 797.39 1809.3 797.39 1776.4 776.12 1792.85"/><polygon class="cls-48" points="776.12 1753.99 797.39 1770.44 797.39 1737.54 776.12 1753.99"/><polygon class="cls-48" points="776.12 1715.13 797.39 1731.58 797.39 1698.68 776.12 1715.13"/><polygon class="cls-48" points="776.12 1676.27 797.39 1692.73 797.39 1659.82 776.12 1676.27"/><polygon class="cls-48" points="776.12 1637.41 797.39 1653.87 797.39 1620.96 776.12 1637.41"/><polygon class="cls-48" points="776.12 1598.55 797.39 1615.01 797.39 1582.1 776.12 1598.55"/><polygon class="cls-48" points="776.12 1559.69 797.39 1576.14 797.39 1543.24 776.12 1559.69"/></g><g class="cls-47"><polygon class="cls-48" points="203.17 649.97 224.44 666.42 224.44 633.52 203.17 649.97"/><polygon class="cls-48" points="203.17 611.11 224.44 627.56 224.44 594.66 203.17 611.11"/><polygon class="cls-48" points="203.17 572.25 224.44 588.7 224.44 555.8 203.17 572.25"/><polygon class="cls-48" points="203.17 533.39 224.44 549.84 224.44 516.94 203.17 533.39"/><polygon class="cls-48" points="203.17 494.53 224.44 510.98 224.44 478.08 203.17 494.53"/><polygon class="cls-48" points="203.17 455.67 224.44 472.12 224.44 439.22 203.17 455.67"/><polygon class="cls-48" points="203.17 416.81 224.44 433.26 224.44 400.36 203.17 416.81"/></g><g class="cls-47"><polygon class="cls-48" points="971.06 302.38 992.33 318.83 992.33 285.93 971.06 302.38"/><polygon class="cls-48" points="971.06 263.53 992.33 279.97 992.33 247.07 971.06 263.53"/><polygon class="cls-48" points="971.06 224.67 992.33 241.11 992.33 208.21 971.06 224.67"/><polygon class="cls-48" points="971.06 185.81 992.33 202.26 992.33 169.35 971.06 185.81"/><polygon class="cls-48" points="971.06 146.94 992.33 163.4 992.33 130.49 971.06 146.94"/><polygon class="cls-48" points="971.06 108.08 992.33 124.54 992.33 91.63 971.06 108.08"/><polygon class="cls-48" points="971.06 69.22 992.33 85.68 992.33 52.78 971.06 69.22"/></g><g class="cls-47"><polygon class="cls-48" points="163.42 1880.28 184.69 1896.74 184.69 1863.83 163.42 1880.28"/><polygon class="cls-48" points="163.42 1841.42 184.69 1857.88 184.69 1824.97 163.42 1841.42"/><polygon class="cls-48" points="163.42 1802.56 184.69 1819.02 184.69 1786.11 163.42 1802.56"/><polygon class="cls-48" points="163.42 1763.71 184.69 1780.15 184.69 1747.25 163.42 1763.71"/></g><g class="cls-47"><g class="cls-49"><g class="cls-50"><path class="cls-51" d="M932,562.28V26.65c0-1.18.71-2.11,1.57-2.12s1.58.93,1.58,2.12V562.28c0,1.17-.71,2.11-1.58,2.11S932,563.45,932,562.28Z"/></g><g class="cls-52"><path class="cls-53" d="M904.33,26.65V562.27c0,1.19.71,2.12,1.58,2.12s1.58-.94,1.58-2.11V26.65c0-1.18-.71-2.12-1.58-2.12S904.33,25.47,904.33,26.65Z"/></g><g class="cls-54"><path class="cls-55" d="M876.62,562.28V26.65c0-1.18.71-2.12,1.58-2.12s1.58.94,1.58,2.12V562.27c0,1.19-.71,2.12-1.58,2.12S876.62,563.45,876.62,562.28Z"/></g><g class="cls-56"><path class="cls-57" d="M848.91,26.65V562.28c0,1.17.71,2.11,1.58,2.11s1.58-.94,1.58-2.11V26.65c0-1.18-.71-2.11-1.57-2.12S848.91,25.46,848.91,26.65Z"/></g><g class="cls-58"><path class="cls-59" d="M821.2,562.28V26.65c0-1.18.71-2.11,1.58-2.12s1.57.93,1.57,2.12V562.28c0,1.17-.71,2.11-1.57,2.11S821.2,563.45,821.2,562.28Z"/></g><g class="cls-60"><path class="cls-61" d="M793.49,26.65V562.27c0,1.19.71,2.12,1.57,2.12s1.58-.94,1.58-2.11V26.65c0-1.18-.71-2.12-1.58-2.12S793.49,25.47,793.49,26.65Z"/></g><g class="cls-62"><path class="cls-63" d="M765.78,562.28V26.65c0-1.18.71-2.12,1.58-2.12s1.57.94,1.57,2.12V562.27c0,1.19-.71,2.12-1.57,2.12S765.78,563.45,765.78,562.28Z"/></g><g class="cls-64"><path class="cls-65" d="M738.07,26.65V562.28c0,1.17.71,2.11,1.57,2.11s1.58-.94,1.58-2.11V26.65c0-1.18-.71-2.11-1.58-2.12S738.07,25.46,738.07,26.65Z"/></g><g class="cls-66"><path class="cls-67" d="M710.35,562.28V26.65c0-1.18.71-2.11,1.57-2.12s1.58.93,1.58,2.12V562.28c0,1.17-.71,2.11-1.58,2.11S710.35,563.45,710.35,562.28Z"/></g><g class="cls-68"><path class="cls-69" d="M682.64,26.65V562.27c0,1.19.71,2.12,1.58,2.12s1.58-.94,1.58-2.11V26.65c0-1.18-.71-2.12-1.58-2.12S682.64,25.47,682.64,26.65Z"/></g><g class="cls-70"><path class="cls-71" d="M654.93,562.28V26.65c0-1.19.72-2.12,1.58-2.12s1.58.94,1.58,2.12V562.27c0,1.19-.71,2.12-1.58,2.12S654.93,563.45,654.93,562.28Z"/></g><g class="cls-72"><path class="cls-73" d="M627.22,26.65V562.28c0,1.17.71,2.11,1.58,2.11s1.58-.94,1.58-2.11V26.65c0-1.18-.71-2.11-1.57-2.12S627.22,25.46,627.22,26.65Z"/></g><g class="cls-74"><path class="cls-75" d="M599.51,562.28V26.65c0-1.18.71-2.11,1.58-2.12s1.57.93,1.57,2.12V562.28c0,1.17-.71,2.11-1.57,2.11S599.51,563.45,599.51,562.28Z"/></g><g class="cls-76"><path class="cls-77" d="M571.8,26.65V562.27c0,1.19.71,2.12,1.57,2.12s1.58-.94,1.58-2.11V26.65c0-1.18-.72-2.12-1.59-2.12S571.8,25.47,571.8,26.65Z"/></g><g class="cls-78"><path class="cls-79" d="M544.09,562.28V26.65c0-1.19.71-2.12,1.58-2.12s1.57.94,1.57,2.12V562.27c0,1.19-.71,2.12-1.57,2.12S544.09,563.45,544.09,562.28Z"/></g><g class="cls-80"><path class="cls-81" d="M516.38,26.65V562.28c0,1.17.71,2.11,1.57,2.11s1.58-.94,1.58-2.11V26.65c0-1.18-.71-2.11-1.58-2.12S516.38,25.46,516.38,26.65Z"/></g><g class="cls-82"><path class="cls-83" d="M488.66,562.28V26.65c0-1.18.71-2.11,1.57-2.12s1.58.93,1.58,2.12V562.28c0,1.17-.71,2.11-1.58,2.11S488.66,563.45,488.66,562.28Z"/></g><g class="cls-84"><path class="cls-85" d="M461,26.65V562.27c0,1.19.71,2.12,1.57,2.12s1.58-.94,1.58-2.11V26.65c0-1.18-.71-2.12-1.58-2.12S461,25.47,461,26.65Z"/></g><g class="cls-86"><path class="cls-87" d="M433.24,562.28V26.65c0-1.19.72-2.12,1.58-2.12s1.58.94,1.58,2.12V562.27c0,1.19-.71,2.12-1.58,2.12S433.24,563.45,433.24,562.28Z"/></g><g class="cls-88"><path class="cls-89" d="M405.53,26.65V562.28c0,1.17.71,2.11,1.58,2.11s1.58-.94,1.58-2.11V26.65c0-1.18-.71-2.11-1.57-2.12S405.53,25.46,405.53,26.65Z"/></g><g class="cls-90"><path class="cls-91" d="M377.82,562.28V26.65c0-1.18.71-2.11,1.58-2.12s1.57.93,1.57,2.12V562.28c0,1.17-.71,2.11-1.57,2.11S377.82,563.45,377.82,562.28Z"/></g></g></g><g class="cls-47"><g class="cls-92"><g class="cls-93"><path class="cls-94" d="M587.09,1818V1282.38a1.92,1.92,0,0,1,1.58-2.12c.87,0,1.58.93,1.58,2.12V1818c0,1.18-.72,2.12-1.58,2.12S587.09,1819.18,587.09,1818Z"/></g><g class="cls-95"><path class="cls-96" d="M559.38,1282.38V1818c0,1.19.71,2.12,1.58,2.11s1.57-.93,1.57-2.11V1282.38c0-1.18-.72-2.12-1.58-2.12S559.38,1281.2,559.38,1282.38Z"/></g><g class="cls-97"><path class="cls-98" d="M531.67,1818V1282.38c0-1.18.71-2.12,1.58-2.12s1.57.94,1.57,2.12V1818c0,1.19-.7,2.12-1.57,2.11S531.67,1819.18,531.67,1818Z"/></g><g class="cls-99"><path class="cls-100" d="M504,1282.38V1818c0,1.18.71,2.12,1.58,2.12s1.58-.94,1.58-2.12V1282.38c0-1.18-.71-2.11-1.57-2.12S504,1281.19,504,1282.38Z"/></g><g class="cls-101"><path class="cls-102" d="M476.25,1818V1282.38c0-1.18.71-2.11,1.58-2.12s1.57.93,1.57,2.12V1818c0,1.18-.71,2.12-1.58,2.12S476.25,1819.18,476.25,1818Z"/></g><g class="cls-103"><path class="cls-104" d="M448.54,1282.38V1818c0,1.19.71,2.12,1.57,2.11s1.58-.93,1.58-2.11V1282.38c0-1.18-.71-2.12-1.58-2.12S448.54,1281.2,448.54,1282.38Z"/></g><g class="cls-105"><path class="cls-106" d="M420.82,1818V1282.38c0-1.18.72-2.12,1.58-2.12s1.58.94,1.58,2.12V1818c0,1.19-.71,2.12-1.58,2.11S420.82,1819.18,420.82,1818Z"/></g><g class="cls-107"><path class="cls-108" d="M393.11,1282.38V1818c0,1.18.71,2.12,1.58,2.12s1.58-.94,1.58-2.12V1282.38c0-1.18-.71-2.11-1.58-2.12S393.11,1281.19,393.11,1282.38Z"/></g><g class="cls-109"><path class="cls-110" d="M365.4,1818V1282.38a1.92,1.92,0,0,1,1.58-2.12c.87,0,1.58.93,1.58,2.12V1818c0,1.18-.72,2.12-1.58,2.12S365.4,1819.18,365.4,1818Z"/></g><g class="cls-111"><path class="cls-112" d="M337.69,1282.38V1818c0,1.19.71,2.12,1.58,2.11s1.57-.93,1.57-2.11V1282.38c0-1.18-.72-2.12-1.58-2.12S337.69,1281.2,337.69,1282.38Z"/></g><g class="cls-113"><path class="cls-114" d="M310,1818V1282.38c0-1.19.71-2.12,1.58-2.12s1.57.94,1.57,2.12V1818c0,1.19-.7,2.12-1.57,2.11S310,1819.18,310,1818Z"/></g><g class="cls-115"><path class="cls-116" d="M282.27,1282.38V1818c0,1.18.71,2.12,1.58,2.12s1.58-.94,1.58-2.12V1282.38c0-1.18-.71-2.11-1.57-2.12S282.27,1281.19,282.27,1282.38Z"/></g><g class="cls-117"><path class="cls-118" d="M254.56,1818V1282.38c0-1.18.71-2.11,1.58-2.12s1.57.93,1.57,2.12V1818c0,1.18-.71,2.12-1.58,2.12S254.56,1819.18,254.56,1818Z"/></g><g class="cls-119"><path class="cls-120" d="M226.85,1282.38V1818c0,1.19.71,2.12,1.57,2.11s1.58-.93,1.58-2.11V1282.38c0-1.18-.71-2.12-1.58-2.12S226.85,1281.2,226.85,1282.38Z"/></g><g class="cls-121"><path class="cls-122" d="M199.13,1818V1282.38c0-1.19.72-2.12,1.58-2.12s1.58.94,1.58,2.12V1818c0,1.19-.71,2.12-1.58,2.11S199.13,1819.18,199.13,1818Z"/></g><g class="cls-123"><path class="cls-124" d="M171.42,1282.38V1818c0,1.18.71,2.12,1.58,2.12s1.58-.94,1.58-2.12V1282.38c0-1.18-.71-2.11-1.58-2.12S171.42,1281.19,171.42,1282.38Z"/></g><g class="cls-125"><path class="cls-126" d="M143.71,1818V1282.38a1.92,1.92,0,0,1,1.58-2.12c.87,0,1.58.93,1.58,2.12V1818c0,1.18-.72,2.12-1.58,2.12S143.71,1819.18,143.71,1818Z"/></g><g class="cls-127"><path class="cls-128" d="M116,1282.38V1818c0,1.19.71,2.11,1.58,2.11s1.57-.93,1.57-2.11V1282.38c0-1.18-.72-2.12-1.58-2.12S116,1281.2,116,1282.38Z"/></g><g class="cls-129"><path class="cls-130" d="M88.29,1818V1282.38c0-1.19.71-2.12,1.58-2.12s1.57.94,1.57,2.12V1818c0,1.19-.7,2.12-1.57,2.11S88.29,1819.18,88.29,1818Z"/></g><g class="cls-131"><path class="cls-132" d="M60.58,1282.38V1818c0,1.18.71,2.12,1.58,2.12s1.58-.94,1.58-2.12V1282.38c0-1.18-.71-2.11-1.57-2.12S60.58,1281.19,60.58,1282.38Z"/></g><g class="cls-133"><path class="cls-134" d="M32.87,1818V1282.38c0-1.18.71-2.11,1.58-2.12s1.57.93,1.57,2.12V1818c0,1.18-.71,2.12-1.58,2.12S32.87,1819.18,32.87,1818Z"/></g></g></g><g class="cls-135"><g class="cls-47"><path class="cls-48" d="M514.06,23.84c0,1.89,1.14,3.42,2.54,3.42s2.55-1.53,2.55-3.42-1.14-3.4-2.55-3.4S514.06,22,514.06,23.84Z"/><path class="cls-48" d="M514.06,61.12c0,1.89,1.14,3.42,2.54,3.42s2.55-1.53,2.55-3.42-1.14-3.41-2.55-3.41S514.06,59.24,514.06,61.12Z"/><path class="cls-48" d="M514.06,98.4c0,1.89,1.14,3.41,2.54,3.41s2.55-1.52,2.55-3.41S518,95,516.6,95,514.06,96.52,514.06,98.4Z"/><path class="cls-48" d="M514.06,135.68c0,1.88,1.14,3.41,2.54,3.41s2.55-1.53,2.55-3.41-1.14-3.41-2.55-3.41S514.06,133.79,514.06,135.68Z"/><path class="cls-48" d="M514.06,173c0,1.89,1.14,3.42,2.54,3.42s2.55-1.53,2.55-3.42-1.14-3.4-2.55-3.4S514.06,171.07,514.06,173Z"/><path class="cls-48" d="M514.06,210.23c0,1.89,1.14,3.42,2.54,3.42s2.55-1.53,2.55-3.42-1.14-3.41-2.55-3.41S514.06,208.35,514.06,210.23Z"/><path class="cls-48" d="M514.06,247.51c0,1.89,1.14,3.41,2.54,3.41s2.55-1.52,2.55-3.41-1.14-3.41-2.55-3.41S514.06,245.63,514.06,247.51Z"/><path class="cls-48" d="M514.06,284.79c0,1.88,1.14,3.41,2.54,3.41s2.55-1.53,2.55-3.41-1.14-3.41-2.55-3.41S514.06,282.91,514.06,284.79Z"/><path class="cls-48" d="M514.06,322.07c0,1.88,1.14,3.41,2.54,3.41s2.55-1.53,2.55-3.41-1.14-3.41-2.55-3.41S514.06,320.18,514.06,322.07Z"/><path class="cls-48" d="M514.06,359.34c0,1.89,1.14,3.42,2.54,3.42s2.55-1.53,2.55-3.42-1.14-3.4-2.55-3.4S514.06,357.46,514.06,359.34Z"/><path class="cls-48" d="M514.06,396.62c0,1.89,1.14,3.42,2.54,3.42s2.55-1.53,2.55-3.42-1.14-3.41-2.55-3.41S514.06,394.74,514.06,396.62Z"/><path class="cls-48" d="M514.06,433.9c0,1.89,1.14,3.41,2.54,3.41s2.55-1.52,2.55-3.41-1.14-3.41-2.55-3.41S514.06,432,514.06,433.9Z"/><path class="cls-48" d="M514.06,471.18c0,1.88,1.14,3.41,2.54,3.41s2.55-1.53,2.55-3.41-1.14-3.41-2.55-3.41S514.06,469.3,514.06,471.18Z"/><path class="cls-48" d="M514.06,508.45c0,1.89,1.14,3.42,2.54,3.42s2.55-1.53,2.55-3.42-1.14-3.4-2.55-3.4S514.06,506.57,514.06,508.45Z"/><path class="cls-48" d="M514.06,545.73c0,1.89,1.14,3.42,2.54,3.42s2.55-1.53,2.55-3.42-1.14-3.41-2.55-3.41S514.06,543.85,514.06,545.73Z"/><path class="cls-48" d="M514.06,583c0,1.89,1.14,3.41,2.54,3.41s2.55-1.52,2.55-3.41-1.14-3.41-2.55-3.41S514.06,581.13,514.06,583Z"/><path class="cls-48" d="M514.06,620.29c0,1.88,1.14,3.41,2.54,3.41s2.55-1.53,2.55-3.41-1.14-3.41-2.55-3.41S514.06,618.41,514.06,620.29Z"/><path class="cls-48" d="M514.06,657.57c0,1.88,1.14,3.41,2.54,3.41s2.55-1.53,2.55-3.41-1.14-3.41-2.55-3.41S514.06,655.68,514.06,657.57Z"/><path class="cls-48" d="M514.06,694.84c0,1.89,1.14,3.42,2.54,3.42s2.55-1.53,2.55-3.42-1.14-3.4-2.55-3.4S514.06,693,514.06,694.84Z"/><ellipse class="cls-48" cx="516.6" cy="732.12" rx="2.47" ry="3.31"/><path class="cls-48" d="M514.29,769.4c0,1.71,1,3.1,2.31,3.1s2.32-1.39,2.32-3.1-1-3.1-2.32-3.1S514.29,767.69,514.29,769.4Z"/><path class="cls-48" d="M514.36,806.68c0,1.65,1,3,2.24,3s2.24-1.35,2.24-3-1-3-2.24-3S514.36,805,514.36,806.68Z"/><path class="cls-48" d="M514.6,844c0,1.49.89,2.7,2,2.7s2-1.21,2-2.7-.9-2.68-2-2.68S514.6,842.47,514.6,844Z"/><path class="cls-48" d="M514.67,881.23c0,1.43.86,2.59,1.93,2.59s1.93-1.16,1.93-2.59-.86-2.58-1.93-2.58S514.67,879.81,514.67,881.23Z"/><path class="cls-48" d="M514.83,918.51c0,1.31.79,2.38,1.77,2.38s1.77-1.07,1.77-2.38-.79-2.37-1.77-2.37S514.83,917.2,514.83,918.51Z"/><path class="cls-48" d="M515,955.79c0,1.2.73,2.17,1.62,2.17s1.62-1,1.62-2.17-.72-2.17-1.62-2.17S515,954.59,515,955.79Z"/><path class="cls-48" d="M515.13,993.07c0,1.08.66,2,1.47,2s1.47-.88,1.47-2-.66-2-1.47-2S515.13,992,515.13,993.07Z"/><path class="cls-48" d="M515.29,1030.34c0,1,.59,1.76,1.31,1.76s1.31-.78,1.31-1.76-.58-1.75-1.31-1.75S515.29,1029.37,515.29,1030.34Z"/><path class="cls-48" d="M515.44,1067.62c0,.86.52,1.56,1.16,1.56s1.16-.7,1.16-1.56-.52-1.55-1.16-1.55S515.44,1066.76,515.44,1067.62Z"/><path class="cls-48" d="M515.6,1104.9c0,.74.45,1.34,1,1.34s1-.6,1-1.34-.45-1.34-1-1.34S515.6,1104.16,515.6,1104.9Z"/><path class="cls-48" d="M515.75,1142.18c0,.63.38,1.13.85,1.13s.85-.5.85-1.13-.38-1.14-.85-1.14S515.75,1141.55,515.75,1142.18Z"/><ellipse class="cls-48" cx="516.6" cy="1179.45" rx="0.69" ry="0.93"/><path class="cls-48" d="M516,1216.73c0,.46.28.83.62.83s.62-.37.62-.83-.28-.82-.62-.82S516,1216.28,516,1216.73Z"/><path class="cls-48" d="M516.14,1254c0,.34.2.62.46.62s.46-.28.46-.62-.2-.62-.46-.62S516.14,1253.67,516.14,1254Z"/><path class="cls-48" d="M516.29,1291.29c0,.23.14.41.31.41s.31-.18.31-.41-.14-.41-.31-.41S516.29,1291.06,516.29,1291.29Z"/><path class="cls-48" d="M516.45,1328.57c0,.11.07.2.15.2s.15-.09.15-.2-.06-.21-.15-.21S516.45,1328.45,516.45,1328.57Z"/><path class="cls-48" d="M484.92,23.84c0,2.86,1.72,5.17,3.86,5.17s3.85-2.31,3.85-5.17-1.72-5.16-3.85-5.16S484.92,21,484.92,23.84Z"/><ellipse class="cls-48" cx="488.78" cy="61.12" rx="3.86" ry="5.17"/><path class="cls-48" d="M484.92,98.4c0,2.86,1.72,5.17,3.86,5.17s3.85-2.31,3.85-5.17-1.72-5.17-3.85-5.17S484.92,95.55,484.92,98.4Z"/><ellipse class="cls-48" cx="488.78" cy="135.68" rx="3.86" ry="5.17"/><path class="cls-48" d="M484.92,173c0,2.86,1.72,5.17,3.86,5.17s3.85-2.31,3.85-5.17-1.72-5.16-3.85-5.16S484.92,170.1,484.92,173Z"/><path class="cls-48" d="M484.92,210.23c0,2.86,1.72,5.17,3.86,5.17s3.85-2.31,3.85-5.17-1.72-5.17-3.85-5.17S484.92,207.38,484.92,210.23Z"/><ellipse class="cls-48" cx="488.78" cy="247.51" rx="3.86" ry="5.17"/><ellipse class="cls-48" cx="488.78" cy="284.79" rx="3.86" ry="5.17"/><path class="cls-48" d="M484.92,322.07c0,2.85,1.72,5.16,3.86,5.16s3.85-2.31,3.85-5.16-1.72-5.17-3.85-5.17S484.92,319.22,484.92,322.07Z"/><ellipse class="cls-48" cx="488.78" cy="359.34" rx="3.86" ry="5.17"/><path class="cls-48" d="M484.84,396.62c0,2.91,1.76,5.27,3.94,5.27s3.93-2.36,3.93-5.27-1.76-5.27-3.93-5.27S484.84,393.71,484.84,396.62Z"/><path class="cls-48" d="M484.84,433.9c0,2.91,1.76,5.27,3.94,5.27s3.93-2.36,3.93-5.27-1.76-5.27-3.93-5.27S484.84,431,484.84,433.9Z"/><path class="cls-48" d="M484.84,471.18c0,2.91,1.76,5.27,3.94,5.27s3.93-2.36,3.93-5.27-1.76-5.27-3.93-5.27S484.84,468.27,484.84,471.18Z"/><path class="cls-48" d="M484.84,508.45c0,2.92,1.76,5.28,3.94,5.28s3.93-2.36,3.93-5.28-1.76-5.27-3.93-5.27S484.84,505.55,484.84,508.45Z"/><path class="cls-48" d="M484.84,545.73c0,2.92,1.76,5.28,3.94,5.28s3.93-2.36,3.93-5.28-1.76-5.27-3.93-5.27S484.84,542.82,484.84,545.73Z"/><path class="cls-48" d="M484.84,583c0,2.91,1.76,5.27,3.94,5.27s3.93-2.36,3.93-5.27-1.76-5.27-3.93-5.27S484.84,580.1,484.84,583Z"/><path class="cls-48" d="M484.84,620.29c0,2.91,1.76,5.27,3.94,5.27s3.93-2.36,3.93-5.27S491,615,488.78,615,484.84,617.38,484.84,620.29Z"/><path class="cls-48" d="M484.84,657.57c0,2.91,1.76,5.27,3.94,5.27s3.93-2.36,3.93-5.27-1.76-5.28-3.93-5.28S484.84,654.66,484.84,657.57Z"/><path class="cls-48" d="M484.84,694.84c0,2.92,1.76,5.28,3.94,5.28s3.93-2.36,3.93-5.28-1.76-5.27-3.93-5.27S484.84,691.93,484.84,694.84Z"/><path class="cls-48" d="M485,732.12c0,2.8,1.7,5.07,3.79,5.07s3.78-2.27,3.78-5.07-1.7-5.06-3.78-5.06S485,729.33,485,732.12Z"/><path class="cls-48" d="M485.23,769.4c0,2.62,1.58,4.76,3.55,4.76s3.54-2.14,3.54-4.76-1.59-4.75-3.54-4.75S485.23,766.77,485.23,769.4Z"/><path class="cls-48" d="M485.38,806.68c0,2.51,1.52,4.55,3.4,4.55s3.39-2,3.39-4.55-1.52-4.55-3.39-4.55S485.38,804.17,485.38,806.68Z"/><ellipse class="cls-48" cx="488.78" cy="843.95" rx="3.16" ry="4.24"/><path class="cls-48" d="M485.84,881.23c0,2.17,1.32,3.93,2.94,3.93s2.93-1.76,2.93-3.93-1.31-3.92-2.93-3.92S485.84,879.06,485.84,881.23Z"/><path class="cls-48" d="M486.07,918.51c0,2,1.21,3.62,2.71,3.62s2.7-1.62,2.7-3.62-1.21-3.61-2.7-3.61S486.07,916.52,486.07,918.51Z"/><ellipse class="cls-48" cx="488.78" cy="955.79" rx="2.47" ry="3.31"/><path class="cls-48" d="M486.54,993.07c0,1.65,1,3,2.24,3s2.23-1.34,2.23-3-1-3-2.23-3S486.54,991.41,486.54,993.07Z"/><path class="cls-48" d="M486.77,1030.34c0,1.49.9,2.69,2,2.69s2-1.2,2-2.69-.9-2.68-2-2.68S486.77,1028.86,486.77,1030.34Z"/><path class="cls-48" d="M487,1067.62c0,1.31.79,2.38,1.78,2.38s1.77-1.07,1.77-2.38-.8-2.37-1.77-2.37S487,1066.31,487,1067.62Z"/><path class="cls-48" d="M487.23,1104.9c0,1.14.69,2.07,1.55,2.07s1.54-.93,1.54-2.07-.69-2.07-1.54-2.07S487.23,1103.76,487.23,1104.9Z"/><path class="cls-48" d="M487.39,1142.18c0,1,.62,1.86,1.39,1.86s1.39-.83,1.39-1.86-.63-1.86-1.39-1.86S487.39,1141.15,487.39,1142.18Z"/><path class="cls-48" d="M487.62,1179.45c0,.86.52,1.56,1.16,1.56s1.15-.7,1.15-1.56-.52-1.54-1.15-1.54S487.62,1178.6,487.62,1179.45Z"/><path class="cls-48" d="M487.85,1216.73c0,.69.41,1.24.93,1.24s.92-.55.92-1.24-.41-1.24-.92-1.24S487.85,1216.05,487.85,1216.73Z"/><ellipse class="cls-48" cx="488.78" cy="1254.01" rx="0.69" ry="0.93"/><path class="cls-48" d="M488.31,1291.29a.56.56,0,0,0,.47.62c.25,0,.46-.28.46-.62s-.21-.62-.46-.62A.56.56,0,0,0,488.31,1291.29Z"/><path class="cls-48" d="M488.47,1328.57c0,.23.13.41.31.41s.3-.18.3-.41-.14-.42-.3-.42S488.47,1328.34,488.47,1328.57Z"/><path class="cls-48" d="M488.7,1365.84c0,.06,0,.11.08.11s.07,0,.07-.11,0-.1-.07-.1A.09.09,0,0,0,488.7,1365.84Z"/><path class="cls-48" d="M457.09,23.84c0,2.86,1.73,5.17,3.86,5.17s3.86-2.31,3.86-5.17-1.73-5.16-3.86-5.16S457.09,21,457.09,23.84Z"/><ellipse class="cls-48" cx="460.95" cy="61.12" rx="3.86" ry="5.17"/><path class="cls-48" d="M457.09,98.4c0,2.86,1.73,5.17,3.86,5.17s3.86-2.31,3.86-5.17-1.73-5.17-3.86-5.17S457.09,95.55,457.09,98.4Z"/><ellipse class="cls-48" cx="460.95" cy="135.68" rx="3.86" ry="5.17"/><path class="cls-48" d="M457.09,173c0,2.86,1.73,5.17,3.86,5.17s3.86-2.31,3.86-5.17-1.73-5.16-3.86-5.16S457.09,170.1,457.09,173Z"/><path class="cls-48" d="M457.09,210.23c0,2.86,1.73,5.17,3.86,5.17s3.86-2.31,3.86-5.17-1.73-5.17-3.86-5.17S457.09,207.38,457.09,210.23Z"/><ellipse class="cls-48" cx="460.95" cy="247.51" rx="3.86" ry="5.17"/><ellipse class="cls-48" cx="460.95" cy="284.79" rx="3.86" ry="5.17"/><path class="cls-48" d="M457.09,322.07c0,2.85,1.73,5.16,3.86,5.16s3.86-2.31,3.86-5.16-1.73-5.17-3.86-5.17S457.09,319.22,457.09,322.07Z"/><ellipse class="cls-48" cx="460.95" cy="359.34" rx="3.86" ry="5.17"/><ellipse class="cls-48" cx="460.95" cy="396.62" rx="3.93" ry="5.27"/><path class="cls-48" d="M457,433.9c0,2.91,1.76,5.27,3.94,5.27s3.93-2.36,3.93-5.27-1.76-5.27-3.93-5.27S457,431,457,433.9Z"/><path class="cls-48" d="M457,471.18c0,2.91,1.76,5.27,3.94,5.27s3.93-2.36,3.93-5.27-1.76-5.27-3.93-5.27S457,468.27,457,471.18Z"/><path class="cls-48" d="M457,508.45c0,2.92,1.76,5.28,3.94,5.28s3.93-2.36,3.93-5.28-1.76-5.27-3.93-5.27S457,505.55,457,508.45Z"/><path class="cls-48" d="M457,545.73c0,2.92,1.76,5.28,3.94,5.28s3.93-2.36,3.93-5.28-1.76-5.27-3.93-5.27S457,542.82,457,545.73Z"/><path class="cls-48" d="M457,583c0,2.91,1.76,5.27,3.94,5.27s3.93-2.36,3.93-5.27-1.76-5.27-3.93-5.27S457,580.1,457,583Z"/><path class="cls-48" d="M457,620.29c0,2.91,1.76,5.27,3.94,5.27s3.93-2.36,3.93-5.27S463.12,615,461,615,457,617.38,457,620.29Z"/><path class="cls-48" d="M457,657.57c0,2.91,1.76,5.27,3.94,5.27s3.93-2.36,3.93-5.27-1.76-5.28-3.93-5.28S457,654.66,457,657.57Z"/><path class="cls-48" d="M457,694.84c0,2.92,1.76,5.28,3.94,5.28s3.93-2.36,3.93-5.28-1.76-5.27-3.93-5.27S457,691.93,457,694.84Z"/><path class="cls-48" d="M457.16,732.12c0,2.8,1.7,5.07,3.79,5.07s3.78-2.27,3.78-5.07-1.69-5.06-3.78-5.06S457.16,729.33,457.16,732.12Z"/><path class="cls-48" d="M457.4,769.4c0,2.62,1.59,4.76,3.55,4.76s3.55-2.14,3.55-4.76-1.59-4.75-3.55-4.75S457.4,766.77,457.4,769.4Z"/><path class="cls-48" d="M457.55,806.68c0,2.51,1.52,4.55,3.4,4.55s3.39-2,3.39-4.55-1.52-4.55-3.39-4.55S457.55,804.17,457.55,806.68Z"/><ellipse class="cls-48" cx="460.95" cy="843.95" rx="3.16" ry="4.24"/><path class="cls-48" d="M458,881.23c0,2.17,1.32,3.93,2.94,3.93s2.93-1.76,2.93-3.93-1.31-3.92-2.93-3.92S458,879.06,458,881.23Z"/><ellipse class="cls-48" cx="460.95" cy="918.51" rx="2.7" ry="3.62"/><ellipse class="cls-48" cx="460.95" cy="955.79" rx="2.47" ry="3.31"/><path class="cls-48" d="M458.71,993.07c0,1.65,1,3,2.24,3s2.24-1.34,2.24-3-1-3-2.24-3S458.71,991.41,458.71,993.07Z"/><path class="cls-48" d="M458.94,1030.34c0,1.49.9,2.69,2,2.69s2-1.2,2-2.69-.89-2.68-2-2.68S458.94,1028.86,458.94,1030.34Z"/><path class="cls-48" d="M459.17,1067.62c0,1.31.8,2.38,1.78,2.38s1.77-1.07,1.77-2.38-.79-2.37-1.77-2.37S459.17,1066.31,459.17,1067.62Z"/><path class="cls-48" d="M459.4,1104.9c0,1.14.69,2.07,1.55,2.07s1.54-.93,1.54-2.07-.69-2.07-1.54-2.07S459.4,1103.76,459.4,1104.9Z"/><path class="cls-48" d="M459.56,1142.18c0,1,.62,1.86,1.39,1.86s1.39-.83,1.39-1.86-.63-1.86-1.39-1.86S459.56,1141.15,459.56,1142.18Z"/><path class="cls-48" d="M459.79,1179.45c0,.86.52,1.56,1.16,1.56s1.15-.7,1.15-1.56-.51-1.54-1.15-1.54S459.79,1178.6,459.79,1179.45Z"/><path class="cls-48" d="M460,1216.73c0,.69.42,1.24.93,1.24s.92-.55.92-1.24-.41-1.24-.92-1.24S460,1216.05,460,1216.73Z"/><ellipse class="cls-48" cx="460.95" cy="1254.01" rx="0.69" ry="0.93"/><path class="cls-48" d="M460.48,1291.29a.56.56,0,0,0,.47.62c.25,0,.46-.28.46-.62s-.21-.62-.46-.62A.56.56,0,0,0,460.48,1291.29Z"/><path class="cls-48" d="M460.64,1328.57c0,.23.14.41.31.41s.31-.18.31-.41-.14-.42-.31-.42S460.64,1328.34,460.64,1328.57Z"/><path class="cls-48" d="M460.87,1365.84c0,.06,0,.11.08.11s.07,0,.07-.11,0-.1-.07-.1A.09.09,0,0,0,460.87,1365.84Z"/><path class="cls-48" d="M429.26,23.84c0,2.86,1.73,5.17,3.86,5.17S437,26.7,437,23.84s-1.73-5.16-3.86-5.16S429.26,21,429.26,23.84Z"/><ellipse class="cls-48" cx="433.12" cy="61.12" rx="3.86" ry="5.17"/><path class="cls-48" d="M429.26,98.4c0,2.86,1.73,5.17,3.86,5.17S437,101.26,437,98.4s-1.73-5.17-3.86-5.17S429.26,95.55,429.26,98.4Z"/><ellipse class="cls-48" cx="433.12" cy="135.68" rx="3.86" ry="5.17"/><path class="cls-48" d="M429.26,173c0,2.86,1.73,5.17,3.86,5.17S437,175.81,437,173s-1.73-5.16-3.86-5.16S429.26,170.1,429.26,173Z"/><path class="cls-48" d="M429.26,210.23c0,2.86,1.73,5.17,3.86,5.17s3.86-2.31,3.86-5.17-1.73-5.17-3.86-5.17S429.26,207.38,429.26,210.23Z"/><ellipse class="cls-48" cx="433.12" cy="247.51" rx="3.86" ry="5.17"/><ellipse class="cls-48" cx="433.12" cy="284.79" rx="3.86" ry="5.17"/><path class="cls-48" d="M429.26,322.07c0,2.85,1.73,5.16,3.86,5.16s3.86-2.31,3.86-5.16-1.73-5.17-3.86-5.17S429.26,319.22,429.26,322.07Z"/><ellipse class="cls-48" cx="433.12" cy="359.34" rx="3.86" ry="5.17"/><ellipse class="cls-48" cx="433.12" cy="396.62" rx="3.93" ry="5.27"/><path class="cls-48" d="M429.19,433.9c0,2.91,1.76,5.27,3.93,5.27s3.93-2.36,3.93-5.27-1.76-5.27-3.93-5.27S429.19,431,429.19,433.9Z"/><path class="cls-48" d="M429.19,471.18c0,2.91,1.76,5.27,3.93,5.27s3.93-2.36,3.93-5.27-1.76-5.27-3.93-5.27S429.19,468.27,429.19,471.18Z"/><path class="cls-48" d="M429.19,508.45c0,2.92,1.76,5.28,3.93,5.28s3.93-2.36,3.93-5.28-1.76-5.27-3.93-5.27S429.19,505.55,429.19,508.45Z"/><path class="cls-48" d="M429.19,545.73c0,2.92,1.76,5.28,3.93,5.28s3.93-2.36,3.93-5.28-1.76-5.27-3.93-5.27S429.19,542.82,429.19,545.73Z"/><path class="cls-48" d="M429.19,583c0,2.91,1.76,5.27,3.93,5.27s3.93-2.36,3.93-5.27-1.76-5.27-3.93-5.27S429.19,580.1,429.19,583Z"/><path class="cls-48" d="M429.19,620.29c0,2.91,1.76,5.27,3.93,5.27s3.93-2.36,3.93-5.27-1.76-5.27-3.93-5.27S429.19,617.38,429.19,620.29Z"/><path class="cls-48" d="M429.19,657.57c0,2.91,1.76,5.27,3.93,5.27s3.93-2.36,3.93-5.27-1.76-5.28-3.93-5.28S429.19,654.66,429.19,657.57Z"/><path class="cls-48" d="M429.19,694.84c0,2.92,1.76,5.28,3.93,5.28s3.93-2.36,3.93-5.28-1.76-5.27-3.93-5.27S429.19,691.93,429.19,694.84Z"/><path class="cls-48" d="M429.34,732.12c0,2.8,1.69,5.07,3.78,5.07s3.78-2.27,3.78-5.07-1.69-5.06-3.78-5.06S429.34,729.33,429.34,732.12Z"/><path class="cls-48" d="M429.57,769.4c0,2.62,1.59,4.76,3.55,4.76s3.55-2.14,3.55-4.76-1.59-4.75-3.55-4.75S429.57,766.77,429.57,769.4Z"/><path class="cls-48" d="M429.73,806.68c0,2.51,1.51,4.55,3.39,4.55s3.39-2,3.39-4.55-1.51-4.55-3.39-4.55S429.73,804.17,429.73,806.68Z"/><ellipse class="cls-48" cx="433.12" cy="843.95" rx="3.16" ry="4.24"/><path class="cls-48" d="M430.19,881.23c0,2.17,1.31,3.93,2.93,3.93s2.93-1.76,2.93-3.93-1.31-3.92-2.93-3.92S430.19,879.06,430.19,881.23Z"/><ellipse class="cls-48" cx="433.12" cy="918.51" rx="2.7" ry="3.62"/><ellipse class="cls-48" cx="433.12" cy="955.79" rx="2.47" ry="3.31"/><path class="cls-48" d="M430.88,993.07c0,1.65,1,3,2.24,3s2.24-1.34,2.24-3-1-3-2.24-3S430.88,991.41,430.88,993.07Z"/><path class="cls-48" d="M431.12,1030.34c0,1.49.89,2.69,2,2.69s2-1.2,2-2.69-.9-2.68-2-2.68S431.12,1028.86,431.12,1030.34Z"/><path class="cls-48" d="M431.35,1067.62c0,1.31.79,2.38,1.77,2.38s1.77-1.07,1.77-2.38-.79-2.37-1.77-2.37S431.35,1066.31,431.35,1067.62Z"/><path class="cls-48" d="M431.58,1104.9c0,1.14.69,2.07,1.54,2.07s1.54-.93,1.54-2.07-.69-2.07-1.54-2.07S431.58,1103.76,431.58,1104.9Z"/><path class="cls-48" d="M431.73,1142.18c0,1,.62,1.86,1.39,1.86s1.39-.83,1.39-1.86-.62-1.86-1.39-1.86S431.73,1141.15,431.73,1142.18Z"/><path class="cls-48" d="M432,1179.45c0,.86.52,1.56,1.16,1.56s1.16-.7,1.16-1.56-.52-1.54-1.16-1.54S432,1178.6,432,1179.45Z"/><path class="cls-48" d="M432.2,1216.73c0,.69.41,1.24.92,1.24s.93-.55.93-1.24-.42-1.24-.93-1.24S432.2,1216.05,432.2,1216.73Z"/><ellipse class="cls-48" cx="433.12" cy="1254.01" rx="0.69" ry="0.93"/><path class="cls-48" d="M432.66,1291.29c0,.34.2.62.46.62s.46-.28.46-.62-.2-.62-.46-.62S432.66,1291,432.66,1291.29Z"/><path class="cls-48" d="M432.81,1328.57c0,.23.14.41.31.41s.31-.18.31-.41-.14-.42-.31-.42S432.81,1328.34,432.81,1328.57Z"/><path class="cls-48" d="M433,1365.84c0,.06,0,.11.08.11s.08,0,.08-.11a.08.08,0,1,0-.16,0Z"/><path class="cls-48" d="M401.43,23.84c0,2.86,1.73,5.17,3.86,5.17s3.86-2.31,3.86-5.17-1.73-5.16-3.86-5.16S401.43,21,401.43,23.84Z"/><ellipse class="cls-48" cx="405.29" cy="61.12" rx="3.86" ry="5.17"/><path class="cls-48" d="M401.43,98.4c0,2.86,1.73,5.17,3.86,5.17s3.86-2.31,3.86-5.17-1.73-5.17-3.86-5.17S401.43,95.55,401.43,98.4Z"/><ellipse class="cls-48" cx="405.29" cy="135.68" rx="3.86" ry="5.17"/><path class="cls-48" d="M401.43,173c0,2.86,1.73,5.17,3.86,5.17s3.86-2.31,3.86-5.17-1.73-5.16-3.86-5.16S401.43,170.1,401.43,173Z"/><path class="cls-48" d="M401.43,210.23c0,2.86,1.73,5.17,3.86,5.17s3.86-2.31,3.86-5.17-1.73-5.17-3.86-5.17S401.43,207.38,401.43,210.23Z"/><ellipse class="cls-48" cx="405.29" cy="247.51" rx="3.86" ry="5.17"/><ellipse class="cls-48" cx="405.29" cy="284.79" rx="3.86" ry="5.17"/><path class="cls-48" d="M401.43,322.07c0,2.85,1.73,5.16,3.86,5.16s3.86-2.31,3.86-5.16-1.73-5.17-3.86-5.17S401.43,319.22,401.43,322.07Z"/><ellipse class="cls-48" cx="405.29" cy="359.34" rx="3.86" ry="5.17"/><path class="cls-48" d="M401.36,396.62c0,2.91,1.76,5.27,3.93,5.27s3.94-2.36,3.94-5.27-1.76-5.27-3.94-5.27S401.36,393.71,401.36,396.62Z"/><path class="cls-48" d="M401.36,433.9c0,2.91,1.76,5.27,3.93,5.27s3.94-2.36,3.94-5.27-1.76-5.27-3.94-5.27S401.36,431,401.36,433.9Z"/><path class="cls-48" d="M401.36,471.18c0,2.91,1.76,5.27,3.93,5.27s3.94-2.36,3.94-5.27-1.76-5.27-3.94-5.27S401.36,468.27,401.36,471.18Z"/><path class="cls-48" d="M401.36,508.45c0,2.92,1.76,5.28,3.93,5.28s3.94-2.36,3.94-5.28-1.76-5.27-3.94-5.27S401.36,505.55,401.36,508.45Z"/><path class="cls-48" d="M401.36,545.73c0,2.92,1.76,5.28,3.93,5.28s3.94-2.36,3.94-5.28-1.76-5.27-3.94-5.27S401.36,542.82,401.36,545.73Z"/><path class="cls-48" d="M401.36,583c0,2.91,1.76,5.27,3.93,5.27s3.94-2.36,3.94-5.27-1.76-5.27-3.94-5.27S401.36,580.1,401.36,583Z"/><path class="cls-48" d="M401.36,620.29c0,2.91,1.76,5.27,3.93,5.27s3.94-2.36,3.94-5.27-1.76-5.27-3.94-5.27S401.36,617.38,401.36,620.29Z"/><path class="cls-48" d="M401.36,657.57c0,2.91,1.76,5.27,3.93,5.27s3.94-2.36,3.94-5.27-1.76-5.28-3.94-5.28S401.36,654.66,401.36,657.57Z"/><path class="cls-48" d="M401.36,694.84c0,2.92,1.76,5.28,3.93,5.28s3.94-2.36,3.94-5.28-1.76-5.27-3.94-5.27S401.36,691.93,401.36,694.84Z"/><path class="cls-48" d="M401.51,732.12c0,2.8,1.69,5.07,3.78,5.07s3.79-2.27,3.79-5.07-1.7-5.06-3.79-5.06S401.51,729.33,401.51,732.12Z"/><path class="cls-48" d="M401.74,769.4c0,2.62,1.59,4.76,3.55,4.76s3.55-2.14,3.55-4.76-1.59-4.75-3.55-4.75S401.74,766.77,401.74,769.4Z"/><path class="cls-48" d="M401.9,806.68c0,2.51,1.52,4.55,3.39,4.55s3.4-2,3.4-4.55-1.52-4.55-3.4-4.55S401.9,804.17,401.9,806.68Z"/><ellipse class="cls-48" cx="405.29" cy="843.95" rx="3.16" ry="4.24"/><path class="cls-48" d="M402.36,881.23c0,2.17,1.31,3.93,2.93,3.93s2.94-1.76,2.94-3.93-1.32-3.92-2.94-3.92S402.36,879.06,402.36,881.23Z"/><path class="cls-48" d="M402.59,918.51c0,2,1.21,3.62,2.7,3.62s2.71-1.62,2.71-3.62-1.21-3.61-2.71-3.61S402.59,916.52,402.59,918.51Z"/><ellipse class="cls-48" cx="405.29" cy="955.79" rx="2.47" ry="3.31"/><path class="cls-48" d="M403.06,993.07c0,1.65,1,3,2.23,3s2.24-1.34,2.24-3-1-3-2.24-3S403.06,991.41,403.06,993.07Z"/><path class="cls-48" d="M403.29,1030.34c0,1.49.9,2.69,2,2.69s2-1.2,2-2.69-.9-2.68-2-2.68S403.29,1028.86,403.29,1030.34Z"/><path class="cls-48" d="M403.52,1067.62c0,1.31.79,2.38,1.77,2.38s1.78-1.07,1.78-2.38-.79-2.37-1.78-2.37S403.52,1066.31,403.52,1067.62Z"/><path class="cls-48" d="M403.75,1104.9c0,1.14.69,2.07,1.54,2.07s1.55-.93,1.55-2.07-.69-2.07-1.55-2.07S403.75,1103.76,403.75,1104.9Z"/><path class="cls-48" d="M403.9,1142.18c0,1,.63,1.86,1.39,1.86s1.39-.83,1.39-1.86-.62-1.86-1.39-1.86S403.9,1141.15,403.9,1142.18Z"/><path class="cls-48" d="M404.14,1179.45c0,.86.52,1.56,1.15,1.56s1.16-.7,1.16-1.56-.52-1.54-1.16-1.54S404.14,1178.6,404.14,1179.45Z"/><path class="cls-48" d="M404.37,1216.73c0,.69.41,1.24.92,1.24s.93-.55.93-1.24-.42-1.24-.93-1.24S404.37,1216.05,404.37,1216.73Z"/><ellipse class="cls-48" cx="405.29" cy="1254.01" rx="0.69" ry="0.93"/><path class="cls-48" d="M404.83,1291.29c0,.34.21.62.46.62a.64.64,0,0,0,0-1.24C405,1290.67,404.83,1291,404.83,1291.29Z"/><path class="cls-48" d="M405,1328.57c0,.23.13.41.3.41s.31-.18.31-.41-.13-.42-.31-.42S405,1328.34,405,1328.57Z"/><path class="cls-48" d="M405.22,1365.84c0,.06,0,.11.07.11s.08,0,.08-.11a.09.09,0,0,0-.08-.1S405.22,1365.79,405.22,1365.84Z"/><path class="cls-48" d="M373.61,23.84c0,2.86,1.73,5.17,3.86,5.17s3.85-2.31,3.85-5.17-1.72-5.16-3.85-5.16S373.61,21,373.61,23.84Z"/><path class="cls-48" d="M373.61,61.12c0,2.86,1.73,5.17,3.86,5.17s3.85-2.31,3.85-5.17S379.6,56,377.47,56,373.61,58.27,373.61,61.12Z"/><path class="cls-48" d="M373.61,98.4c0,2.86,1.73,5.17,3.86,5.17s3.85-2.31,3.85-5.17-1.72-5.17-3.85-5.17S373.61,95.55,373.61,98.4Z"/><path class="cls-48" d="M373.61,135.68c0,2.86,1.73,5.17,3.86,5.17s3.85-2.31,3.85-5.17-1.72-5.17-3.85-5.17S373.61,132.83,373.61,135.68Z"/><path class="cls-48" d="M373.61,173c0,2.86,1.73,5.17,3.86,5.17s3.85-2.31,3.85-5.17-1.72-5.16-3.85-5.16S373.61,170.1,373.61,173Z"/><path class="cls-48" d="M373.61,210.23c0,2.86,1.73,5.17,3.86,5.17s3.85-2.31,3.85-5.17-1.72-5.17-3.85-5.17S373.61,207.38,373.61,210.23Z"/><path class="cls-48" d="M373.61,247.51c0,2.86,1.73,5.17,3.86,5.17s3.85-2.31,3.85-5.17-1.72-5.17-3.85-5.17S373.61,244.66,373.61,247.51Z"/><path class="cls-48" d="M373.61,284.79c0,2.86,1.73,5.17,3.86,5.17s3.85-2.31,3.85-5.17-1.72-5.17-3.85-5.17S373.61,281.94,373.61,284.79Z"/><path class="cls-48" d="M373.61,322.07c0,2.85,1.73,5.16,3.86,5.16s3.85-2.31,3.85-5.16-1.72-5.17-3.85-5.17S373.61,319.22,373.61,322.07Z"/><path class="cls-48" d="M373.61,359.34c0,2.86,1.73,5.17,3.86,5.17s3.85-2.31,3.85-5.17-1.72-5.16-3.85-5.16S373.61,356.49,373.61,359.34Z"/><path class="cls-48" d="M373.53,396.62c0,2.91,1.76,5.27,3.94,5.27s3.93-2.36,3.93-5.27-1.76-5.27-3.93-5.27S373.53,393.71,373.53,396.62Z"/><path class="cls-48" d="M373.53,433.9c0,2.91,1.76,5.27,3.94,5.27s3.93-2.36,3.93-5.27-1.76-5.27-3.93-5.27S373.53,431,373.53,433.9Z"/><path class="cls-48" d="M373.53,471.18c0,2.91,1.76,5.27,3.94,5.27s3.93-2.36,3.93-5.27-1.76-5.27-3.93-5.27S373.53,468.27,373.53,471.18Z"/><path class="cls-48" d="M373.53,508.45c0,2.92,1.76,5.28,3.94,5.28s3.93-2.36,3.93-5.28-1.76-5.27-3.93-5.27S373.53,505.55,373.53,508.45Z"/><path class="cls-48" d="M373.53,545.73c0,2.92,1.76,5.28,3.94,5.28s3.93-2.36,3.93-5.28-1.76-5.27-3.93-5.27S373.53,542.82,373.53,545.73Z"/><path class="cls-48" d="M373.53,583c0,2.91,1.76,5.27,3.94,5.27s3.93-2.36,3.93-5.27-1.76-5.27-3.93-5.27S373.53,580.1,373.53,583Z"/><path class="cls-48" d="M373.53,620.29c0,2.91,1.76,5.27,3.94,5.27s3.93-2.36,3.93-5.27-1.76-5.27-3.93-5.27S373.53,617.38,373.53,620.29Z"/><path class="cls-48" d="M373.53,657.57c0,2.91,1.76,5.27,3.94,5.27s3.93-2.36,3.93-5.27-1.76-5.28-3.93-5.28S373.53,654.66,373.53,657.57Z"/><path class="cls-48" d="M373.53,694.84c0,2.92,1.76,5.28,3.94,5.28s3.93-2.36,3.93-5.28-1.76-5.27-3.93-5.27S373.53,691.93,373.53,694.84Z"/><path class="cls-48" d="M373.69,732.12c0,2.8,1.69,5.07,3.78,5.07s3.78-2.27,3.78-5.07-1.69-5.06-3.78-5.06S373.69,729.33,373.69,732.12Z"/><path class="cls-48" d="M373.92,769.4c0,2.62,1.59,4.76,3.55,4.76S381,772,381,769.4s-1.59-4.75-3.55-4.75S373.92,766.77,373.92,769.4Z"/><path class="cls-48" d="M374.07,806.68c0,2.51,1.52,4.55,3.4,4.55s3.39-2,3.39-4.55-1.52-4.55-3.39-4.55S374.07,804.17,374.07,806.68Z"/><path class="cls-48" d="M374.3,844c0,2.35,1.42,4.24,3.17,4.24s3.16-1.89,3.16-4.24-1.42-4.23-3.16-4.23S374.3,841.62,374.3,844Z"/><path class="cls-48" d="M374.53,881.23c0,2.17,1.32,3.93,2.94,3.93s2.93-1.76,2.93-3.93-1.32-3.92-2.93-3.92S374.53,879.06,374.53,881.23Z"/><path class="cls-48" d="M374.77,918.51c0,2,1.2,3.62,2.7,3.62s2.7-1.62,2.7-3.62-1.21-3.61-2.7-3.61S374.77,916.52,374.77,918.51Z"/><ellipse class="cls-48" cx="377.47" cy="955.79" rx="2.47" ry="3.31"/><path class="cls-48" d="M375.23,993.07c0,1.65,1,3,2.24,3s2.23-1.34,2.23-3-1-3-2.23-3S375.23,991.41,375.23,993.07Z"/><path class="cls-48" d="M375.46,1030.34c0,1.49.9,2.69,2,2.69s2-1.2,2-2.69-.9-2.68-2-2.68S375.46,1028.86,375.46,1030.34Z"/><path class="cls-48" d="M375.69,1067.62c0,1.31.8,2.38,1.78,2.38s1.77-1.07,1.77-2.38-.79-2.37-1.77-2.37S375.69,1066.31,375.69,1067.62Z"/><path class="cls-48" d="M375.92,1104.9c0,1.14.7,2.07,1.55,2.07s1.54-.93,1.54-2.07-.69-2.07-1.54-2.07S375.92,1103.76,375.92,1104.9Z"/><path class="cls-48" d="M376.08,1142.18c0,1,.62,1.86,1.39,1.86s1.38-.83,1.38-1.86-.61-1.86-1.38-1.86S376.08,1141.15,376.08,1142.18Z"/><path class="cls-48" d="M376.31,1179.45c0,.86.52,1.56,1.16,1.56s1.15-.7,1.15-1.56-.51-1.54-1.15-1.54S376.31,1178.6,376.31,1179.45Z"/><path class="cls-48" d="M376.54,1216.73c0,.69.41,1.24.93,1.24s.92-.55.92-1.24-.41-1.24-.92-1.24S376.54,1216.05,376.54,1216.73Z"/><path class="cls-48" d="M376.77,1254c0,.51.31.93.7.93s.69-.42.69-.93-.31-.93-.69-.93S376.77,1253.5,376.77,1254Z"/><path class="cls-48" d="M377,1291.29a.56.56,0,0,0,.47.62c.25,0,.46-.28.46-.62s-.21-.62-.46-.62A.56.56,0,0,0,377,1291.29Z"/><path class="cls-48" d="M377.16,1328.57c0,.23.14.41.31.41s.3-.18.3-.41-.13-.42-.3-.42S377.16,1328.34,377.16,1328.57Z"/><path class="cls-48" d="M377.39,1365.84c0,.06,0,.11.08.11s.07,0,.07-.11,0-.1-.07-.1A.1.1,0,0,0,377.39,1365.84Z"/><ellipse class="cls-48" cx="349.64" cy="23.84" rx="3.01" ry="4.03"/><ellipse class="cls-48" cx="349.64" cy="61.12" rx="3.01" ry="4.03"/><path class="cls-48" d="M346.71,98.4c0,2.17,1.31,3.93,2.93,3.93s2.93-1.76,2.93-3.93-1.31-3.93-2.93-3.93S346.71,96.23,346.71,98.4Z"/><path class="cls-48" d="M346.71,135.68c0,2.17,1.31,3.93,2.93,3.93s2.93-1.76,2.93-3.93-1.31-3.93-2.93-3.93S346.71,133.51,346.71,135.68Z"/><path class="cls-48" d="M346.71,173c0,2.17,1.31,3.93,2.93,3.93s2.93-1.76,2.93-3.93-1.31-3.92-2.93-3.92S346.71,170.79,346.71,173Z"/><path class="cls-48" d="M346.71,210.23c0,2.17,1.31,3.93,2.93,3.93s2.93-1.76,2.93-3.93-1.31-3.92-2.93-3.92S346.71,208.06,346.71,210.23Z"/><path class="cls-48" d="M346.79,247.51c0,2.11,1.27,3.83,2.85,3.83s2.86-1.72,2.86-3.83-1.28-3.82-2.86-3.82S346.79,245.4,346.79,247.51Z"/><ellipse class="cls-48" cx="349.64" cy="284.79" rx="2.85" ry="3.82"/><path class="cls-48" d="M346.79,322.07c0,2.11,1.27,3.82,2.85,3.82s2.86-1.71,2.86-3.82-1.28-3.83-2.86-3.83S346.79,320,346.79,322.07Z"/><path class="cls-48" d="M346.79,359.34c0,2.12,1.27,3.83,2.85,3.83s2.86-1.71,2.86-3.83-1.28-3.82-2.86-3.82S346.79,357.23,346.79,359.34Z"/><ellipse class="cls-48" cx="349.64" cy="396.62" rx="2.85" ry="3.82"/><path class="cls-48" d="M346.79,433.9c0,2.11,1.27,3.83,2.85,3.83s2.86-1.72,2.86-3.83-1.28-3.82-2.86-3.82S346.79,431.79,346.79,433.9Z"/><path class="cls-48" d="M346.86,471.18c0,2.05,1.25,3.72,2.78,3.72s2.78-1.67,2.78-3.72-1.25-3.72-2.78-3.72S346.86,469.12,346.86,471.18Z"/><path class="cls-48" d="M346.86,508.45c0,2.06,1.25,3.73,2.78,3.73s2.78-1.67,2.78-3.73-1.25-3.71-2.78-3.71S346.86,506.4,346.86,508.45Z"/><ellipse class="cls-48" cx="349.64" cy="545.73" rx="2.78" ry="3.72"/><path class="cls-48" d="M346.86,583c0,2.06,1.25,3.73,2.78,3.73s2.78-1.67,2.78-3.73-1.25-3.72-2.78-3.72S346.86,581,346.86,583Z"/><path class="cls-48" d="M346.94,620.29c0,2,1.21,3.62,2.7,3.62s2.7-1.62,2.7-3.62-1.21-3.62-2.7-3.62S346.94,618.29,346.94,620.29Z"/><path class="cls-48" d="M346.94,657.57c0,2,1.21,3.62,2.7,3.62s2.7-1.62,2.7-3.62-1.21-3.62-2.7-3.62S346.94,655.57,346.94,657.57Z"/><path class="cls-48" d="M346.94,694.84c0,2,1.21,3.63,2.7,3.63s2.7-1.62,2.7-3.63-1.21-3.61-2.7-3.61S346.94,692.85,346.94,694.84Z"/><ellipse class="cls-48" cx="349.64" cy="732.12" rx="2.62" ry="3.52"/><path class="cls-48" d="M347.17,769.4c0,1.83,1.11,3.31,2.47,3.31s2.47-1.48,2.47-3.31-1.11-3.31-2.47-3.31S347.17,767.57,347.17,769.4Z"/><ellipse class="cls-48" cx="349.64" cy="806.68" rx="2.31" ry="3.1"/><path class="cls-48" d="M347.48,844c0,1.61,1,2.9,2.16,2.9s2.16-1.29,2.16-2.9-1-2.89-2.16-2.89S347.48,842.36,347.48,844Z"/><path class="cls-48" d="M347.63,881.23c0,1.49.9,2.69,2,2.69s2-1.2,2-2.69-.9-2.68-2-2.68S347.63,879.75,347.63,881.23Z"/><path class="cls-48" d="M347.79,918.51c0,1.37.83,2.48,1.85,2.48s1.85-1.11,1.85-2.48-.83-2.48-1.85-2.48S347.79,917.14,347.79,918.51Z"/><path class="cls-48" d="M347.94,955.79c0,1.25.76,2.27,1.7,2.27s1.7-1,1.7-2.27-.76-2.27-1.7-2.27S347.94,954.53,347.94,955.79Z"/><path class="cls-48" d="M348.1,993.07c0,1.14.69,2.06,1.54,2.06s1.54-.92,1.54-2.06-.69-2.07-1.54-2.07S348.1,991.93,348.1,993.07Z"/><ellipse class="cls-48" cx="349.64" cy="1030.34" rx="1.39" ry="1.86"/><path class="cls-48" d="M348.41,1067.62c0,.91.55,1.66,1.23,1.66s1.24-.75,1.24-1.66-.56-1.65-1.24-1.65S348.41,1066.71,348.41,1067.62Z"/><ellipse class="cls-48" cx="349.64" cy="1104.9" rx="1.08" ry="1.45"/><path class="cls-48" d="M348.72,1142.18c0,.69.41,1.24.92,1.24s.93-.55.93-1.24-.42-1.24-.93-1.24S348.72,1141.5,348.72,1142.18Z"/><path class="cls-48" d="M348.87,1179.45c0,.58.34,1,.77,1s.77-.46.77-1-.34-1-.77-1S348.87,1178.89,348.87,1179.45Z"/><path class="cls-48" d="M349,1216.73c0,.46.28.83.62.83s.62-.37.62-.83-.28-.82-.62-.82S349,1216.28,349,1216.73Z"/><path class="cls-48" d="M349.18,1254c0,.34.21.62.46.62s.46-.28.46-.62-.2-.62-.46-.62S349.18,1253.67,349.18,1254Z"/><path class="cls-48" d="M349.33,1291.29c0,.23.14.41.31.41s.31-.18.31-.41-.14-.41-.31-.41S349.33,1291.06,349.33,1291.29Z"/><path class="cls-48" d="M349.49,1328.57c0,.11.06.2.15.2a.19.19,0,0,0,.16-.2.19.19,0,0,0-.16-.21C349.55,1328.36,349.49,1328.45,349.49,1328.57Z"/></g><g class="cls-47"><path class="cls-48" d="M564.48,1889.26c0-1.89-1.14-3.42-2.55-3.42s-2.54,1.53-2.54,3.42,1.13,3.41,2.54,3.41S564.48,1891.14,564.48,1889.26Z"/><path class="cls-48" d="M564.48,1852c0-1.89-1.14-3.42-2.55-3.42s-2.54,1.53-2.54,3.42,1.13,3.41,2.54,3.41S564.48,1853.86,564.48,1852Z"/><path class="cls-48" d="M564.48,1814.7c0-1.89-1.14-3.41-2.55-3.41s-2.54,1.52-2.54,3.41,1.13,3.41,2.54,3.41S564.48,1816.58,564.48,1814.7Z"/><path class="cls-48" d="M564.48,1777.42c0-1.88-1.14-3.41-2.55-3.41s-2.54,1.53-2.54,3.41,1.13,3.41,2.54,3.41S564.48,1779.31,564.48,1777.42Z"/><path class="cls-48" d="M564.48,1740.15c0-1.89-1.14-3.42-2.55-3.42s-2.54,1.53-2.54,3.42,1.13,3.41,2.54,3.41S564.48,1742,564.48,1740.15Z"/><path class="cls-48" d="M564.48,1702.87c0-1.89-1.14-3.42-2.55-3.42s-2.54,1.53-2.54,3.42,1.13,3.41,2.54,3.41S564.48,1704.75,564.48,1702.87Z"/><ellipse class="cls-48" cx="561.93" cy="1665.59" rx="2.54" ry="3.41"/><path class="cls-48" d="M564.48,1628.31c0-1.88-1.14-3.41-2.55-3.41s-2.54,1.53-2.54,3.41,1.13,3.41,2.54,3.41S564.48,1630.2,564.48,1628.31Z"/><path class="cls-48" d="M564.48,1591c0-1.88-1.14-3.41-2.55-3.41s-2.54,1.53-2.54,3.41,1.13,3.41,2.54,3.41S564.48,1592.92,564.48,1591Z"/><path class="cls-48" d="M564.48,1553.76c0-1.89-1.14-3.42-2.55-3.42s-2.54,1.53-2.54,3.42,1.13,3.41,2.54,3.41S564.48,1555.64,564.48,1553.76Z"/><path class="cls-48" d="M564.48,1516.48c0-1.89-1.14-3.42-2.55-3.42s-2.54,1.53-2.54,3.42,1.13,3.41,2.54,3.41S564.48,1518.36,564.48,1516.48Z"/><path class="cls-48" d="M564.48,1479.2c0-1.89-1.14-3.41-2.55-3.41s-2.54,1.52-2.54,3.41,1.13,3.41,2.54,3.41S564.48,1481.08,564.48,1479.2Z"/><path class="cls-48" d="M564.48,1441.92c0-1.88-1.14-3.41-2.55-3.41s-2.54,1.53-2.54,3.41,1.13,3.41,2.54,3.41S564.48,1443.81,564.48,1441.92Z"/><path class="cls-48" d="M564.48,1404.65c0-1.89-1.14-3.42-2.55-3.42s-2.54,1.53-2.54,3.42,1.13,3.4,2.54,3.4S564.48,1406.53,564.48,1404.65Z"/><path class="cls-48" d="M564.48,1367.37c0-1.89-1.14-3.42-2.55-3.42s-2.54,1.53-2.54,3.42,1.13,3.41,2.54,3.41S564.48,1369.25,564.48,1367.37Z"/><ellipse class="cls-48" cx="561.93" cy="1330.09" rx="2.54" ry="3.41"/><path class="cls-48" d="M564.48,1292.81c0-1.88-1.14-3.41-2.55-3.41s-2.54,1.53-2.54,3.41,1.13,3.41,2.54,3.41S564.48,1294.7,564.48,1292.81Z"/><path class="cls-48" d="M564.48,1255.53c0-1.88-1.14-3.41-2.55-3.41s-2.54,1.53-2.54,3.41,1.13,3.42,2.54,3.42S564.48,1257.42,564.48,1255.53Z"/><path class="cls-48" d="M564.48,1218.26c0-1.89-1.14-3.42-2.55-3.42s-2.54,1.53-2.54,3.42,1.13,3.41,2.54,3.41S564.48,1220.14,564.48,1218.26Z"/><ellipse class="cls-48" cx="561.93" cy="1180.98" rx="2.47" ry="3.31"/><path class="cls-48" d="M564.25,1143.7c0-1.71-1-3.1-2.32-3.1s-2.31,1.39-2.31,3.1,1,3.1,2.31,3.1S564.25,1145.41,564.25,1143.7Z"/><path class="cls-48" d="M564.17,1106.42c0-1.65-1-3-2.24-3s-2.24,1.34-2.24,3,1,3,2.24,3S564.17,1108.08,564.17,1106.42Z"/><path class="cls-48" d="M563.94,1069.15c0-1.49-.9-2.69-2-2.69s-2,1.2-2,2.69.89,2.68,2,2.68S563.94,1070.63,563.94,1069.15Z"/><ellipse class="cls-48" cx="561.93" cy="1031.87" rx="1.93" ry="2.58"/><ellipse class="cls-48" cx="561.93" cy="994.59" rx="1.77" ry="2.38"/><ellipse class="cls-48" cx="561.93" cy="957.31" rx="1.62" ry="2.17"/><path class="cls-48" d="M563.4,920c0-1.09-.66-2-1.47-2s-1.46.88-1.46,2,.65,2,1.46,2S563.4,921.12,563.4,920Z"/><path class="cls-48" d="M563.24,882.76c0-1-.58-1.76-1.31-1.76s-1.31.78-1.31,1.76.59,1.75,1.31,1.75S563.24,883.73,563.24,882.76Z"/><ellipse class="cls-48" cx="561.93" cy="845.48" rx="1.16" ry="1.55"/><path class="cls-48" d="M562.94,808.2c0-.74-.45-1.34-1-1.34s-1,.6-1,1.34.45,1.34,1,1.34S562.94,808.94,562.94,808.2Z"/><path class="cls-48" d="M562.78,770.92c0-.63-.38-1.13-.85-1.13s-.85.5-.85,1.13.38,1.14.85,1.14S562.78,771.55,562.78,770.92Z"/><ellipse class="cls-48" cx="561.93" cy="733.65" rx="0.69" ry="0.93"/><path class="cls-48" d="M562.55,696.37c0-.46-.28-.83-.62-.83s-.62.37-.62.83.28.82.62.82S562.55,696.83,562.55,696.37Z"/><ellipse class="cls-48" cx="561.93" cy="659.09" rx="0.46" ry="0.62"/><path class="cls-48" d="M562.24,621.81c0-.23-.14-.41-.31-.41s-.31.18-.31.41.14.41.31.41S562.24,622,562.24,621.81Z"/><path class="cls-48" d="M562.09,584.54c0-.12-.07-.21-.16-.21s-.15.09-.15.21.07.2.15.2A.18.18,0,0,0,562.09,584.54Z"/><path class="cls-48" d="M593.62,1889.26c0-2.86-1.73-5.17-3.86-5.17s-3.86,2.31-3.86,5.17,1.73,5.16,3.86,5.16S593.62,1892.11,593.62,1889.26Z"/><path class="cls-48" d="M593.62,1852c0-2.86-1.73-5.17-3.86-5.17s-3.86,2.31-3.86,5.17,1.73,5.17,3.86,5.17S593.62,1854.83,593.62,1852Z"/><ellipse class="cls-48" cx="589.76" cy="1814.7" rx="3.86" ry="5.17"/><path class="cls-48" d="M593.62,1777.42c0-2.85-1.73-5.17-3.86-5.17s-3.86,2.32-3.86,5.17,1.73,5.17,3.86,5.17S593.62,1780.27,593.62,1777.42Z"/><path class="cls-48" d="M593.62,1740.15c0-2.86-1.73-5.17-3.86-5.17s-3.86,2.31-3.86,5.17,1.73,5.16,3.86,5.16S593.62,1743,593.62,1740.15Z"/><ellipse class="cls-48" cx="589.76" cy="1702.87" rx="3.86" ry="5.17"/><path class="cls-48" d="M593.62,1665.59c0-2.86-1.73-5.17-3.86-5.17s-3.86,2.31-3.86,5.17,1.73,5.17,3.86,5.17S593.62,1668.44,593.62,1665.59Z"/><ellipse class="cls-48" cx="589.76" cy="1628.31" rx="3.86" ry="5.17"/><path class="cls-48" d="M593.62,1591c0-2.85-1.73-5.16-3.86-5.16s-3.86,2.31-3.86,5.16,1.73,5.17,3.86,5.17S593.62,1593.89,593.62,1591Z"/><ellipse class="cls-48" cx="589.76" cy="1553.76" rx="3.86" ry="5.17"/><path class="cls-48" d="M593.69,1516.48c0-2.91-1.76-5.27-3.93-5.27s-3.94,2.36-3.94,5.27,1.77,5.27,3.94,5.27S593.69,1519.39,593.69,1516.48Z"/><path class="cls-48" d="M593.69,1479.2c0-2.91-1.76-5.27-3.93-5.27s-3.94,2.36-3.94,5.27,1.77,5.27,3.94,5.27S593.69,1482.11,593.69,1479.2Z"/><path class="cls-48" d="M593.69,1441.92c0-2.91-1.76-5.27-3.93-5.27s-3.94,2.36-3.94,5.27,1.77,5.28,3.94,5.28S593.69,1444.83,593.69,1441.92Z"/><path class="cls-48" d="M593.69,1404.65c0-2.92-1.76-5.28-3.93-5.28s-3.94,2.36-3.94,5.28,1.77,5.27,3.94,5.27S593.69,1407.55,593.69,1404.65Z"/><path class="cls-48" d="M593.69,1367.37c0-2.91-1.76-5.27-3.93-5.27s-3.94,2.36-3.94,5.27,1.77,5.27,3.94,5.27S593.69,1370.28,593.69,1367.37Z"/><path class="cls-48" d="M593.69,1330.09c0-2.91-1.76-5.27-3.93-5.27s-3.94,2.36-3.94,5.27,1.77,5.27,3.94,5.27S593.69,1333,593.69,1330.09Z"/><path class="cls-48" d="M593.69,1292.81c0-2.91-1.76-5.27-3.93-5.27s-3.94,2.36-3.94,5.27,1.77,5.28,3.94,5.28S593.69,1295.72,593.69,1292.81Z"/><path class="cls-48" d="M593.69,1255.53c0-2.91-1.76-5.27-3.93-5.27s-3.94,2.36-3.94,5.27,1.77,5.28,3.94,5.28S593.69,1258.44,593.69,1255.53Z"/><path class="cls-48" d="M593.69,1218.26c0-2.92-1.76-5.28-3.93-5.28s-3.94,2.36-3.94,5.28,1.77,5.27,3.94,5.27S593.69,1221.17,593.69,1218.26Z"/><path class="cls-48" d="M593.54,1181c0-2.8-1.69-5.06-3.78-5.06S586,1178.18,586,1181s1.69,5.06,3.78,5.06S593.54,1183.78,593.54,1181Z"/><ellipse class="cls-48" cx="589.76" cy="1143.7" rx="3.55" ry="4.75"/><path class="cls-48" d="M593.15,1106.42c0-2.51-1.51-4.55-3.39-4.55s-3.39,2-3.39,4.55,1.51,4.55,3.39,4.55S593.15,1108.93,593.15,1106.42Z"/><ellipse class="cls-48" cx="589.76" cy="1069.15" rx="3.16" ry="4.24"/><path class="cls-48" d="M592.69,1031.87c0-2.17-1.31-3.93-2.93-3.93s-2.93,1.76-2.93,3.93,1.31,3.92,2.93,3.92S592.69,1034,592.69,1031.87Z"/><path class="cls-48" d="M592.46,994.59c0-2-1.21-3.62-2.7-3.62s-2.7,1.62-2.7,3.62,1.21,3.62,2.7,3.62S592.46,996.59,592.46,994.59Z"/><ellipse class="cls-48" cx="589.76" cy="957.31" rx="2.47" ry="3.31"/><path class="cls-48" d="M592,920c0-1.66-1-3-2.24-3s-2.24,1.34-2.24,3,1,3,2.24,3S592,921.69,592,920Z"/><path class="cls-48" d="M591.76,882.76c0-1.49-.89-2.69-2-2.69s-2,1.2-2,2.69.9,2.68,2,2.68S591.76,884.24,591.76,882.76Z"/><ellipse class="cls-48" cx="589.76" cy="845.48" rx="1.77" ry="2.38"/><path class="cls-48" d="M591.3,808.2c0-1.14-.69-2.07-1.54-2.07s-1.54.93-1.54,2.07.69,2.07,1.54,2.07S591.3,809.34,591.3,808.2Z"/><path class="cls-48" d="M591.15,770.92c0-1-.62-1.86-1.39-1.86s-1.39.83-1.39,1.86.62,1.86,1.39,1.86S591.15,772,591.15,770.92Z"/><path class="cls-48" d="M590.92,733.65c0-.86-.52-1.56-1.16-1.56s-1.16.7-1.16,1.56.52,1.54,1.16,1.54S590.92,734.5,590.92,733.65Z"/><ellipse class="cls-48" cx="589.76" cy="696.37" rx="0.93" ry="1.24"/><path class="cls-48" d="M590.45,659.09c0-.51-.31-.93-.69-.93s-.69.42-.69.93.3.93.69.93S590.45,659.61,590.45,659.09Z"/><path class="cls-48" d="M590.22,621.81c0-.34-.2-.62-.46-.62s-.46.28-.46.62.2.62.46.62S590.22,622.15,590.22,621.81Z"/><path class="cls-48" d="M590.07,584.54c0-.24-.14-.42-.31-.42s-.31.18-.31.42.14.41.31.41S590.07,584.76,590.07,584.54Z"/><path class="cls-48" d="M589.84,547.26c0-.06,0-.11-.08-.11s-.08.05-.08.11a.08.08,0,1,0,.16,0Z"/><path class="cls-48" d="M621.44,1889.26c0-2.86-1.73-5.17-3.85-5.17s-3.86,2.31-3.86,5.17,1.73,5.16,3.86,5.16S621.44,1892.11,621.44,1889.26Z"/><path class="cls-48" d="M621.44,1852c0-2.86-1.73-5.17-3.85-5.17s-3.86,2.31-3.86,5.17,1.73,5.17,3.86,5.17S621.44,1854.83,621.44,1852Z"/><path class="cls-48" d="M621.44,1814.7c0-2.86-1.73-5.17-3.85-5.17s-3.86,2.31-3.86,5.17,1.73,5.17,3.86,5.17S621.44,1817.55,621.44,1814.7Z"/><path class="cls-48" d="M621.44,1777.42c0-2.85-1.73-5.17-3.85-5.17s-3.86,2.32-3.86,5.17,1.73,5.17,3.86,5.17S621.44,1780.27,621.44,1777.42Z"/><path class="cls-48" d="M621.44,1740.15c0-2.86-1.73-5.17-3.85-5.17s-3.86,2.31-3.86,5.17,1.73,5.16,3.86,5.16S621.44,1743,621.44,1740.15Z"/><path class="cls-48" d="M621.44,1702.87c0-2.86-1.73-5.17-3.85-5.17s-3.86,2.31-3.86,5.17,1.73,5.17,3.86,5.17S621.44,1705.72,621.44,1702.87Z"/><path class="cls-48" d="M621.44,1665.59c0-2.86-1.73-5.17-3.85-5.17s-3.86,2.31-3.86,5.17,1.73,5.17,3.86,5.17S621.44,1668.44,621.44,1665.59Z"/><path class="cls-48" d="M621.44,1628.31c0-2.85-1.73-5.17-3.85-5.17s-3.86,2.32-3.86,5.17,1.73,5.17,3.86,5.17S621.44,1631.16,621.44,1628.31Z"/><path class="cls-48" d="M621.44,1591c0-2.85-1.73-5.16-3.85-5.16s-3.86,2.31-3.86,5.16,1.73,5.17,3.86,5.17S621.44,1593.89,621.44,1591Z"/><path class="cls-48" d="M621.44,1553.76c0-2.86-1.73-5.17-3.85-5.17s-3.86,2.31-3.86,5.17,1.73,5.17,3.86,5.17S621.44,1556.61,621.44,1553.76Z"/><path class="cls-48" d="M621.52,1516.48c0-2.91-1.76-5.27-3.93-5.27s-3.94,2.36-3.94,5.27,1.76,5.27,3.94,5.27S621.52,1519.39,621.52,1516.48Z"/><path class="cls-48" d="M621.52,1479.2c0-2.91-1.76-5.27-3.93-5.27s-3.94,2.36-3.94,5.27,1.76,5.27,3.94,5.27S621.52,1482.11,621.52,1479.2Z"/><path class="cls-48" d="M621.52,1441.92c0-2.91-1.76-5.27-3.93-5.27s-3.94,2.36-3.94,5.27,1.76,5.28,3.94,5.28S621.52,1444.83,621.52,1441.92Z"/><path class="cls-48" d="M621.52,1404.65c0-2.92-1.76-5.28-3.93-5.28s-3.94,2.36-3.94,5.28,1.76,5.27,3.94,5.27S621.52,1407.55,621.52,1404.65Z"/><path class="cls-48" d="M621.52,1367.37c0-2.91-1.76-5.27-3.93-5.27s-3.94,2.36-3.94,5.27,1.76,5.27,3.94,5.27S621.52,1370.28,621.52,1367.37Z"/><path class="cls-48" d="M621.52,1330.09c0-2.91-1.76-5.27-3.93-5.27s-3.94,2.36-3.94,5.27,1.76,5.27,3.94,5.27S621.52,1333,621.52,1330.09Z"/><path class="cls-48" d="M621.52,1292.81c0-2.91-1.76-5.27-3.93-5.27s-3.94,2.36-3.94,5.27,1.76,5.28,3.94,5.28S621.52,1295.72,621.52,1292.81Z"/><path class="cls-48" d="M621.52,1255.53c0-2.91-1.76-5.27-3.93-5.27s-3.94,2.36-3.94,5.27,1.76,5.28,3.94,5.28S621.52,1258.44,621.52,1255.53Z"/><path class="cls-48" d="M621.52,1218.26c0-2.92-1.76-5.28-3.93-5.28s-3.94,2.36-3.94,5.28,1.76,5.27,3.94,5.27S621.52,1221.17,621.52,1218.26Z"/><path class="cls-48" d="M621.37,1181c0-2.8-1.69-5.06-3.78-5.06s-3.79,2.26-3.79,5.06,1.7,5.06,3.79,5.06S621.37,1183.78,621.37,1181Z"/><path class="cls-48" d="M621.14,1143.7c0-2.62-1.59-4.76-3.55-4.76s-3.56,2.14-3.56,4.76,1.6,4.75,3.56,4.75S621.14,1146.33,621.14,1143.7Z"/><path class="cls-48" d="M621,1106.42c0-2.51-1.52-4.55-3.39-4.55s-3.4,2-3.4,4.55,1.52,4.55,3.4,4.55S621,1108.93,621,1106.42Z"/><path class="cls-48" d="M620.75,1069.15c0-2.35-1.42-4.24-3.16-4.24s-3.17,1.89-3.17,4.24,1.42,4.24,3.17,4.24S620.75,1071.49,620.75,1069.15Z"/><path class="cls-48" d="M620.52,1031.87c0-2.17-1.32-3.93-2.93-3.93s-2.94,1.76-2.94,3.93,1.32,3.92,2.94,3.92S620.52,1034,620.52,1031.87Z"/><path class="cls-48" d="M620.29,994.59c0-2-1.21-3.62-2.7-3.62s-2.71,1.62-2.71,3.62,1.21,3.62,2.71,3.62S620.29,996.59,620.29,994.59Z"/><ellipse class="cls-48" cx="617.59" cy="957.31" rx="2.47" ry="3.31"/><path class="cls-48" d="M619.82,920c0-1.66-1-3-2.23-3s-2.24,1.34-2.24,3,1,3,2.24,3S619.82,921.69,619.82,920Z"/><path class="cls-48" d="M619.59,882.76c0-1.49-.9-2.69-2-2.69s-2,1.2-2,2.69.9,2.68,2,2.68S619.59,884.24,619.59,882.76Z"/><path class="cls-48" d="M619.36,845.48c0-1.31-.79-2.38-1.77-2.38s-1.78,1.07-1.78,2.38.79,2.38,1.78,2.38S619.36,846.79,619.36,845.48Z"/><path class="cls-48" d="M619.13,808.2c0-1.14-.69-2.07-1.54-2.07s-1.55.93-1.55,2.07.69,2.07,1.55,2.07S619.13,809.34,619.13,808.2Z"/><path class="cls-48" d="M619,770.92c0-1-.62-1.86-1.38-1.86s-1.39.83-1.39,1.86.62,1.86,1.39,1.86S619,772,619,770.92Z"/><path class="cls-48" d="M618.74,733.65c0-.86-.52-1.56-1.15-1.56s-1.16.7-1.16,1.56.52,1.54,1.16,1.54S618.74,734.5,618.74,733.65Z"/><path class="cls-48" d="M618.51,696.37c0-.69-.41-1.24-.92-1.24s-.93.55-.93,1.24.41,1.24.93,1.24S618.51,697.05,618.51,696.37Z"/><path class="cls-48" d="M618.28,659.09c0-.51-.31-.93-.69-.93s-.7.42-.7.93.31.93.7.93S618.28,659.61,618.28,659.09Z"/><path class="cls-48" d="M618.05,621.81c0-.34-.21-.62-.46-.62a.64.64,0,0,0,0,1.24C617.84,622.43,618.05,622.15,618.05,621.81Z"/><path class="cls-48" d="M617.89,584.54c0-.24-.13-.42-.3-.42s-.31.18-.31.42.13.41.31.41S617.89,584.76,617.89,584.54Z"/><path class="cls-48" d="M617.66,547.26c0-.06,0-.11-.07-.11s-.08.05-.08.11,0,.1.08.1S617.66,547.32,617.66,547.26Z"/><path class="cls-48" d="M649.27,1889.26c0-2.86-1.73-5.17-3.86-5.17s-3.86,2.31-3.86,5.17,1.73,5.16,3.86,5.16S649.27,1892.11,649.27,1889.26Z"/><path class="cls-48" d="M649.27,1852c0-2.86-1.73-5.17-3.86-5.17s-3.86,2.31-3.86,5.17,1.73,5.17,3.86,5.17S649.27,1854.83,649.27,1852Z"/><ellipse class="cls-48" cx="645.41" cy="1814.7" rx="3.86" ry="5.17"/><path class="cls-48" d="M649.27,1777.42c0-2.85-1.73-5.17-3.86-5.17s-3.86,2.32-3.86,5.17,1.73,5.17,3.86,5.17S649.27,1780.27,649.27,1777.42Z"/><path class="cls-48" d="M649.27,1740.15c0-2.86-1.73-5.17-3.86-5.17s-3.86,2.31-3.86,5.17,1.73,5.16,3.86,5.16S649.27,1743,649.27,1740.15Z"/><ellipse class="cls-48" cx="645.41" cy="1702.87" rx="3.86" ry="5.17"/><path class="cls-48" d="M649.27,1665.59c0-2.86-1.73-5.17-3.86-5.17s-3.86,2.31-3.86,5.17,1.73,5.17,3.86,5.17S649.27,1668.44,649.27,1665.59Z"/><ellipse class="cls-48" cx="645.41" cy="1628.31" rx="3.86" ry="5.17"/><path class="cls-48" d="M649.27,1591c0-2.85-1.73-5.16-3.86-5.16s-3.86,2.31-3.86,5.16,1.73,5.17,3.86,5.17S649.27,1593.89,649.27,1591Z"/><ellipse class="cls-48" cx="645.41" cy="1553.76" rx="3.86" ry="5.17"/><path class="cls-48" d="M649.35,1516.48c0-2.91-1.76-5.27-3.94-5.27s-3.93,2.36-3.93,5.27,1.76,5.27,3.93,5.27S649.35,1519.39,649.35,1516.48Z"/><path class="cls-48" d="M649.35,1479.2c0-2.91-1.76-5.27-3.94-5.27s-3.93,2.36-3.93,5.27,1.76,5.27,3.93,5.27S649.35,1482.11,649.35,1479.2Z"/><path class="cls-48" d="M649.35,1441.92c0-2.91-1.76-5.27-3.94-5.27s-3.93,2.36-3.93,5.27,1.76,5.28,3.93,5.28S649.35,1444.83,649.35,1441.92Z"/><path class="cls-48" d="M649.35,1404.65c0-2.92-1.76-5.28-3.94-5.28s-3.93,2.36-3.93,5.28,1.76,5.27,3.93,5.27S649.35,1407.55,649.35,1404.65Z"/><path class="cls-48" d="M649.35,1367.37c0-2.91-1.76-5.27-3.94-5.27s-3.93,2.36-3.93,5.27,1.76,5.27,3.93,5.27S649.35,1370.28,649.35,1367.37Z"/><path class="cls-48" d="M649.35,1330.09c0-2.91-1.76-5.27-3.94-5.27s-3.93,2.36-3.93,5.27,1.76,5.27,3.93,5.27S649.35,1333,649.35,1330.09Z"/><path class="cls-48" d="M649.35,1292.81c0-2.91-1.76-5.27-3.94-5.27s-3.93,2.36-3.93,5.27,1.76,5.28,3.93,5.28S649.35,1295.72,649.35,1292.81Z"/><path class="cls-48" d="M649.35,1255.53c0-2.91-1.76-5.27-3.94-5.27s-3.93,2.36-3.93,5.27,1.76,5.28,3.93,5.28S649.35,1258.44,649.35,1255.53Z"/><path class="cls-48" d="M649.35,1218.26c0-2.92-1.76-5.28-3.94-5.28s-3.93,2.36-3.93,5.28,1.76,5.27,3.93,5.27S649.35,1221.17,649.35,1218.26Z"/><path class="cls-48" d="M649.19,1181c0-2.8-1.69-5.06-3.78-5.06s-3.78,2.26-3.78,5.06,1.69,5.06,3.78,5.06S649.19,1183.78,649.19,1181Z"/><ellipse class="cls-48" cx="645.41" cy="1143.7" rx="3.55" ry="4.75"/><path class="cls-48" d="M648.81,1106.42c0-2.51-1.52-4.55-3.4-4.55s-3.39,2-3.39,4.55,1.52,4.55,3.39,4.55S648.81,1108.93,648.81,1106.42Z"/><ellipse class="cls-48" cx="645.41" cy="1069.15" rx="3.16" ry="4.24"/><path class="cls-48" d="M648.35,1031.87c0-2.17-1.32-3.93-2.94-3.93s-2.93,1.76-2.93,3.93,1.31,3.92,2.93,3.92S648.35,1034,648.35,1031.87Z"/><path class="cls-48" d="M648.11,994.59c0-2-1.2-3.62-2.7-3.62s-2.7,1.62-2.7,3.62,1.21,3.62,2.7,3.62S648.11,996.59,648.11,994.59Z"/><ellipse class="cls-48" cx="645.41" cy="957.31" rx="2.47" ry="3.31"/><path class="cls-48" d="M647.65,920c0-1.66-1-3-2.24-3s-2.23,1.34-2.23,3,1,3,2.23,3S647.65,921.69,647.65,920Z"/><path class="cls-48" d="M647.42,882.76c0-1.49-.9-2.69-2-2.69s-2,1.2-2,2.69.89,2.68,2,2.68S647.42,884.24,647.42,882.76Z"/><ellipse class="cls-48" cx="645.41" cy="845.48" rx="1.77" ry="2.38"/><path class="cls-48" d="M647,808.2c0-1.14-.7-2.07-1.55-2.07s-1.54.93-1.54,2.07.69,2.07,1.54,2.07S647,809.34,647,808.2Z"/><path class="cls-48" d="M646.8,770.92c0-1-.62-1.86-1.39-1.86s-1.39.83-1.39,1.86.63,1.86,1.39,1.86S646.8,772,646.8,770.92Z"/><path class="cls-48" d="M646.57,733.65c0-.86-.52-1.56-1.16-1.56s-1.15.7-1.15,1.56.51,1.54,1.15,1.54S646.57,734.5,646.57,733.65Z"/><path class="cls-48" d="M646.34,696.37c0-.69-.42-1.24-.93-1.24s-.92.55-.92,1.24.41,1.24.92,1.24S646.34,697.05,646.34,696.37Z"/><path class="cls-48" d="M646.11,659.09c0-.51-.31-.93-.7-.93s-.69.42-.69.93.31.93.69.93S646.11,659.61,646.11,659.09Z"/><path class="cls-48" d="M645.88,621.81a.56.56,0,0,0-.47-.62c-.25,0-.46.28-.46.62s.21.62.46.62A.56.56,0,0,0,645.88,621.81Z"/><path class="cls-48" d="M645.72,584.54c0-.24-.14-.42-.31-.42s-.3.18-.3.42.13.41.3.41S645.72,584.76,645.72,584.54Z"/><path class="cls-48" d="M645.49,547.26c0-.06,0-.11-.08-.11s-.07.05-.07.11,0,.1.07.1A.09.09,0,0,0,645.49,547.26Z"/><path class="cls-48" d="M677.1,1889.26c0-2.86-1.73-5.17-3.86-5.17s-3.86,2.31-3.86,5.17,1.73,5.16,3.86,5.16S677.1,1892.11,677.1,1889.26Z"/><path class="cls-48" d="M677.1,1852c0-2.86-1.73-5.17-3.86-5.17s-3.86,2.31-3.86,5.17,1.73,5.17,3.86,5.17S677.1,1854.83,677.1,1852Z"/><ellipse class="cls-48" cx="673.24" cy="1814.7" rx="3.86" ry="5.17"/><path class="cls-48" d="M677.1,1777.42c0-2.85-1.73-5.17-3.86-5.17s-3.86,2.32-3.86,5.17,1.73,5.17,3.86,5.17S677.1,1780.27,677.1,1777.42Z"/><path class="cls-48" d="M677.1,1740.15c0-2.86-1.73-5.17-3.86-5.17s-3.86,2.31-3.86,5.17,1.73,5.16,3.86,5.16S677.1,1743,677.1,1740.15Z"/><ellipse class="cls-48" cx="673.24" cy="1702.87" rx="3.86" ry="5.17"/><path class="cls-48" d="M677.1,1665.59c0-2.86-1.73-5.17-3.86-5.17s-3.86,2.31-3.86,5.17,1.73,5.17,3.86,5.17S677.1,1668.44,677.1,1665.59Z"/><ellipse class="cls-48" cx="673.24" cy="1628.31" rx="3.86" ry="5.17"/><path class="cls-48" d="M677.1,1591c0-2.85-1.73-5.16-3.86-5.16s-3.86,2.31-3.86,5.16,1.73,5.17,3.86,5.17S677.1,1593.89,677.1,1591Z"/><ellipse class="cls-48" cx="673.24" cy="1553.76" rx="3.86" ry="5.17"/><ellipse class="cls-48" cx="673.24" cy="1516.48" rx="3.93" ry="5.27"/><ellipse class="cls-48" cx="673.24" cy="1479.2" rx="3.93" ry="5.27"/><path class="cls-48" d="M677.17,1441.92c0-2.91-1.76-5.27-3.93-5.27s-3.93,2.36-3.93,5.27,1.76,5.28,3.93,5.28S677.17,1444.83,677.17,1441.92Z"/><path class="cls-48" d="M677.17,1404.65c0-2.92-1.76-5.28-3.93-5.28s-3.93,2.36-3.93,5.28,1.76,5.27,3.93,5.27S677.17,1407.55,677.17,1404.65Z"/><ellipse class="cls-48" cx="673.24" cy="1367.37" rx="3.93" ry="5.27"/><ellipse class="cls-48" cx="673.24" cy="1330.09" rx="3.93" ry="5.27"/><path class="cls-48" d="M677.17,1292.81c0-2.91-1.76-5.27-3.93-5.27s-3.93,2.36-3.93,5.27,1.76,5.28,3.93,5.28S677.17,1295.72,677.17,1292.81Z"/><path class="cls-48" d="M677.17,1255.53c0-2.91-1.76-5.27-3.93-5.27s-3.93,2.36-3.93,5.27,1.76,5.28,3.93,5.28S677.17,1258.44,677.17,1255.53Z"/><path class="cls-48" d="M677.17,1218.26c0-2.92-1.76-5.28-3.93-5.28s-3.93,2.36-3.93,5.28,1.76,5.27,3.93,5.27S677.17,1221.17,677.17,1218.26Z"/><ellipse class="cls-48" cx="673.24" cy="1180.98" rx="3.78" ry="5.06"/><ellipse class="cls-48" cx="673.24" cy="1143.7" rx="3.55" ry="4.75"/><path class="cls-48" d="M676.63,1106.42c0-2.51-1.52-4.55-3.39-4.55s-3.39,2-3.39,4.55,1.51,4.55,3.39,4.55S676.63,1108.93,676.63,1106.42Z"/><ellipse class="cls-48" cx="673.24" cy="1069.15" rx="3.16" ry="4.24"/><path class="cls-48" d="M676.17,1031.87c0-2.17-1.31-3.93-2.93-3.93s-2.93,1.76-2.93,3.93,1.31,3.92,2.93,3.92S676.17,1034,676.17,1031.87Z"/><ellipse class="cls-48" cx="673.24" cy="994.59" rx="2.7" ry="3.62"/><ellipse class="cls-48" cx="673.24" cy="957.31" rx="2.47" ry="3.31"/><path class="cls-48" d="M675.48,920c0-1.66-1-3-2.24-3s-2.24,1.34-2.24,3,1,3,2.24,3S675.48,921.69,675.48,920Z"/><path class="cls-48" d="M675.24,882.76c0-1.49-.89-2.69-2-2.69s-2,1.2-2,2.69.9,2.68,2,2.68S675.24,884.24,675.24,882.76Z"/><ellipse class="cls-48" cx="673.24" cy="845.48" rx="1.77" ry="2.38"/><path class="cls-48" d="M674.78,808.2c0-1.14-.69-2.07-1.54-2.07s-1.54.93-1.54,2.07.69,2.07,1.54,2.07S674.78,809.34,674.78,808.2Z"/><path class="cls-48" d="M674.63,770.92c0-1-.62-1.86-1.39-1.86s-1.39.83-1.39,1.86.62,1.86,1.39,1.86S674.63,772,674.63,770.92Z"/><path class="cls-48" d="M674.4,733.65c0-.86-.52-1.56-1.16-1.56s-1.16.7-1.16,1.56.52,1.54,1.16,1.54S674.4,734.5,674.4,733.65Z"/><ellipse class="cls-48" cx="673.24" cy="696.37" rx="0.93" ry="1.24"/><path class="cls-48" d="M673.93,659.09c0-.51-.31-.93-.69-.93s-.7.42-.7.93a.84.84,0,0,0,.7.93C673.62,660,673.93,659.61,673.93,659.09Z"/><path class="cls-48" d="M673.7,621.81c0-.34-.2-.62-.46-.62s-.46.28-.46.62.2.62.46.62S673.7,622.15,673.7,621.81Z"/><path class="cls-48" d="M673.55,584.54c0-.24-.14-.42-.31-.42s-.31.18-.31.42.14.41.31.41S673.55,584.76,673.55,584.54Z"/><path class="cls-48" d="M673.32,547.26c0-.06,0-.11-.08-.11s-.08.05-.08.11a.08.08,0,1,0,.16,0Z"/><path class="cls-48" d="M704.93,1889.26c0-2.86-1.73-5.17-3.86-5.17s-3.86,2.31-3.86,5.17,1.73,5.16,3.86,5.16S704.93,1892.11,704.93,1889.26Z"/><path class="cls-48" d="M704.93,1852c0-2.86-1.73-5.17-3.86-5.17s-3.86,2.31-3.86,5.17,1.73,5.17,3.86,5.17S704.93,1854.83,704.93,1852Z"/><ellipse class="cls-48" cx="701.07" cy="1814.7" rx="3.86" ry="5.17"/><path class="cls-48" d="M704.93,1777.42c0-2.85-1.73-5.17-3.86-5.17s-3.86,2.32-3.86,5.17,1.73,5.17,3.86,5.17S704.93,1780.27,704.93,1777.42Z"/><path class="cls-48" d="M704.93,1740.15c0-2.86-1.73-5.17-3.86-5.17s-3.86,2.31-3.86,5.17,1.73,5.16,3.86,5.16S704.93,1743,704.93,1740.15Z"/><ellipse class="cls-48" cx="701.07" cy="1702.87" rx="3.86" ry="5.17"/><path class="cls-48" d="M704.93,1665.59c0-2.86-1.73-5.17-3.86-5.17s-3.86,2.31-3.86,5.17,1.73,5.17,3.86,5.17S704.93,1668.44,704.93,1665.59Z"/><ellipse class="cls-48" cx="701.07" cy="1628.31" rx="3.86" ry="5.17"/><path class="cls-48" d="M704.93,1591c0-2.85-1.73-5.16-3.86-5.16s-3.86,2.31-3.86,5.16,1.73,5.17,3.86,5.17S704.93,1593.89,704.93,1591Z"/><ellipse class="cls-48" cx="701.07" cy="1553.76" rx="3.86" ry="5.17"/><ellipse class="cls-48" cx="701.07" cy="1516.48" rx="3.93" ry="5.27"/><ellipse class="cls-48" cx="701.07" cy="1479.2" rx="3.93" ry="5.27"/><path class="cls-48" d="M705,1441.92c0-2.91-1.76-5.27-3.93-5.27s-3.94,2.36-3.94,5.27,1.76,5.28,3.94,5.28S705,1444.83,705,1441.92Z"/><path class="cls-48" d="M705,1404.65c0-2.92-1.76-5.28-3.93-5.28s-3.94,2.36-3.94,5.28,1.76,5.27,3.94,5.27S705,1407.55,705,1404.65Z"/><ellipse class="cls-48" cx="701.07" cy="1367.37" rx="3.93" ry="5.27"/><ellipse class="cls-48" cx="701.07" cy="1330.09" rx="3.93" ry="5.27"/><path class="cls-48" d="M705,1292.81c0-2.91-1.76-5.27-3.93-5.27s-3.94,2.36-3.94,5.27,1.76,5.28,3.94,5.28S705,1295.72,705,1292.81Z"/><path class="cls-48" d="M705,1255.53c0-2.91-1.76-5.27-3.93-5.27s-3.94,2.36-3.94,5.27,1.76,5.28,3.94,5.28S705,1258.44,705,1255.53Z"/><path class="cls-48" d="M705,1218.26c0-2.92-1.76-5.28-3.93-5.28s-3.94,2.36-3.94,5.28,1.76,5.27,3.94,5.27S705,1221.17,705,1218.26Z"/><path class="cls-48" d="M704.85,1181c0-2.8-1.7-5.06-3.78-5.06s-3.79,2.26-3.79,5.06,1.7,5.06,3.79,5.06S704.85,1183.78,704.85,1181Z"/><ellipse class="cls-48" cx="701.07" cy="1143.7" rx="3.55" ry="4.75"/><path class="cls-48" d="M704.46,1106.42c0-2.51-1.52-4.55-3.39-4.55s-3.4,2-3.4,4.55,1.52,4.55,3.4,4.55S704.46,1108.93,704.46,1106.42Z"/><ellipse class="cls-48" cx="701.07" cy="1069.15" rx="3.16" ry="4.24"/><path class="cls-48" d="M704,1031.87c0-2.17-1.31-3.93-2.93-3.93s-2.94,1.76-2.94,3.93,1.32,3.92,2.94,3.92S704,1034,704,1031.87Z"/><ellipse class="cls-48" cx="701.07" cy="994.59" rx="2.7" ry="3.62"/><ellipse class="cls-48" cx="701.07" cy="957.31" rx="2.47" ry="3.31"/><path class="cls-48" d="M703.31,920c0-1.66-1-3-2.24-3s-2.24,1.34-2.24,3,1,3,2.24,3S703.31,921.69,703.31,920Z"/><path class="cls-48" d="M703.07,882.76c0-1.49-.89-2.69-2-2.69s-2,1.2-2,2.69.9,2.68,2,2.68S703.07,884.24,703.07,882.76Z"/><ellipse class="cls-48" cx="701.07" cy="845.48" rx="1.77" ry="2.38"/><path class="cls-48" d="M702.61,808.2c0-1.14-.69-2.07-1.54-2.07s-1.55.93-1.55,2.07.69,2.07,1.55,2.07S702.61,809.34,702.61,808.2Z"/><path class="cls-48" d="M702.46,770.92c0-1-.63-1.86-1.39-1.86s-1.39.83-1.39,1.86.62,1.86,1.39,1.86S702.46,772,702.46,770.92Z"/><path class="cls-48" d="M702.22,733.65c0-.86-.52-1.56-1.15-1.56s-1.16.7-1.16,1.56.52,1.54,1.16,1.54S702.22,734.5,702.22,733.65Z"/><ellipse class="cls-48" cx="701.07" cy="696.37" rx="0.93" ry="1.24"/><path class="cls-48" d="M701.76,659.09c0-.51-.31-.93-.69-.93s-.7.42-.7.93.31.93.7.93S701.76,659.61,701.76,659.09Z"/><path class="cls-48" d="M701.53,621.81c0-.34-.21-.62-.46-.62a.64.64,0,0,0,0,1.24C701.32,622.43,701.53,622.15,701.53,621.81Z"/><path class="cls-48" d="M701.38,584.54c0-.24-.14-.42-.31-.42s-.31.18-.31.42.13.41.31.41S701.38,584.76,701.38,584.54Z"/><path class="cls-48" d="M701.14,547.26c0-.06,0-.11-.07-.11s-.08.05-.08.11,0,.1.08.1S701.14,547.32,701.14,547.26Z"/><ellipse class="cls-48" cx="728.89" cy="1889.26" rx="3.01" ry="4.03"/><ellipse class="cls-48" cx="728.89" cy="1851.98" rx="3.01" ry="4.03"/><path class="cls-48" d="M731.82,1814.7c0-2.17-1.31-3.93-2.93-3.93s-2.93,1.76-2.93,3.93,1.32,3.93,2.93,3.93S731.82,1816.87,731.82,1814.7Z"/><path class="cls-48" d="M731.82,1777.42c0-2.17-1.31-3.92-2.93-3.92s-2.93,1.75-2.93,3.92,1.32,3.93,2.93,3.93S731.82,1779.59,731.82,1777.42Z"/><path class="cls-48" d="M731.82,1740.15c0-2.17-1.31-3.93-2.93-3.93S726,1738,726,1740.15s1.32,3.92,2.93,3.92S731.82,1742.31,731.82,1740.15Z"/><path class="cls-48" d="M731.82,1702.87c0-2.17-1.31-3.93-2.93-3.93s-2.93,1.76-2.93,3.93,1.32,3.92,2.93,3.92S731.82,1705,731.82,1702.87Z"/><path class="cls-48" d="M731.75,1665.59c0-2.11-1.28-3.83-2.86-3.83s-2.85,1.72-2.85,3.83,1.28,3.82,2.85,3.82S731.75,1667.7,731.75,1665.59Z"/><path class="cls-48" d="M731.75,1628.31c0-2.11-1.28-3.82-2.86-3.82s-2.85,1.71-2.85,3.82,1.28,3.82,2.85,3.82S731.75,1630.42,731.75,1628.31Z"/><path class="cls-48" d="M731.75,1591c0-2.11-1.28-3.82-2.86-3.82S726,1588.92,726,1591s1.28,3.83,2.85,3.83S731.75,1593.15,731.75,1591Z"/><path class="cls-48" d="M731.75,1553.76c0-2.12-1.28-3.83-2.86-3.83s-2.85,1.71-2.85,3.83,1.28,3.82,2.85,3.82S731.75,1555.87,731.75,1553.76Z"/><path class="cls-48" d="M731.75,1516.48c0-2.11-1.28-3.83-2.86-3.83s-2.85,1.72-2.85,3.83,1.28,3.82,2.85,3.82S731.75,1518.59,731.75,1516.48Z"/><path class="cls-48" d="M731.75,1479.2c0-2.11-1.28-3.82-2.86-3.82s-2.85,1.71-2.85,3.82,1.28,3.82,2.85,3.82S731.75,1481.31,731.75,1479.2Z"/><path class="cls-48" d="M731.67,1441.92c0-2.05-1.24-3.72-2.78-3.72s-2.77,1.67-2.77,3.72,1.24,3.72,2.77,3.72S731.67,1444,731.67,1441.92Z"/><path class="cls-48" d="M731.67,1404.65c0-2.06-1.24-3.73-2.78-3.73s-2.77,1.67-2.77,3.73,1.24,3.71,2.77,3.71S731.67,1406.7,731.67,1404.65Z"/><path class="cls-48" d="M731.67,1367.37c0-2.06-1.24-3.73-2.78-3.73s-2.77,1.67-2.77,3.73,1.24,3.72,2.77,3.72S731.67,1369.42,731.67,1367.37Z"/><path class="cls-48" d="M731.67,1330.09c0-2.06-1.24-3.72-2.78-3.72s-2.77,1.66-2.77,3.72,1.24,3.72,2.77,3.72S731.67,1332.14,731.67,1330.09Z"/><path class="cls-48" d="M731.59,1292.81c0-2-1.2-3.62-2.7-3.62s-2.7,1.62-2.7,3.62,1.21,3.62,2.7,3.62S731.59,1294.81,731.59,1292.81Z"/><path class="cls-48" d="M731.59,1255.53c0-2-1.2-3.62-2.7-3.62s-2.7,1.62-2.7,3.62,1.21,3.62,2.7,3.62S731.59,1257.53,731.59,1255.53Z"/><path class="cls-48" d="M731.59,1218.26c0-2-1.2-3.62-2.7-3.62s-2.7,1.62-2.7,3.62,1.21,3.61,2.7,3.61S731.59,1220.25,731.59,1218.26Z"/><path class="cls-48" d="M731.52,1181c0-1.94-1.18-3.52-2.63-3.52s-2.62,1.58-2.62,3.52,1.17,3.51,2.62,3.51S731.52,1182.92,731.52,1181Z"/><ellipse class="cls-48" cx="728.89" cy="1143.7" rx="2.47" ry="3.31"/><path class="cls-48" d="M731.21,1106.42c0-1.71-1-3.1-2.32-3.1s-2.31,1.39-2.31,3.1,1,3.11,2.31,3.11S731.21,1108.14,731.21,1106.42Z"/><path class="cls-48" d="M731.05,1069.15c0-1.6-1-2.9-2.16-2.9s-2.16,1.3-2.16,2.9,1,2.89,2.16,2.89S731.05,1070.74,731.05,1069.15Z"/><path class="cls-48" d="M730.9,1031.87c0-1.49-.9-2.69-2-2.69s-2,1.2-2,2.69.9,2.68,2,2.68S730.9,1033.35,730.9,1031.87Z"/><path class="cls-48" d="M730.75,994.59c0-1.37-.83-2.48-1.86-2.48s-1.85,1.11-1.85,2.48.83,2.48,1.85,2.48S730.75,996,730.75,994.59Z"/><path class="cls-48" d="M730.59,957.31c0-1.25-.76-2.27-1.7-2.27s-1.69,1-1.69,2.27.76,2.28,1.69,2.28S730.59,958.57,730.59,957.31Z"/><path class="cls-48" d="M730.44,920c0-1.15-.7-2.07-1.55-2.07s-1.54.92-1.54,2.07.69,2.06,1.54,2.06S730.44,921.17,730.44,920Z"/><path class="cls-48" d="M730.28,882.76c0-1-.62-1.86-1.39-1.86s-1.38.83-1.38,1.86.62,1.86,1.38,1.86S730.28,883.78,730.28,882.76Z"/><ellipse class="cls-48" cx="728.89" cy="845.48" rx="1.23" ry="1.65"/><ellipse class="cls-48" cx="728.89" cy="808.2" rx="1.08" ry="1.45"/><path class="cls-48" d="M729.82,770.92c0-.68-.41-1.24-.93-1.24s-.92.56-.92,1.24.41,1.24.92,1.24S729.82,771.61,729.82,770.92Z"/><path class="cls-48" d="M729.67,733.65c0-.58-.35-1-.78-1s-.77.46-.77,1,.35,1,.77,1A.93.93,0,0,0,729.67,733.65Z"/><path class="cls-48" d="M729.51,696.37c0-.46-.28-.83-.62-.83s-.61.37-.61.83.27.82.61.82S729.51,696.83,729.51,696.37Z"/><path class="cls-48" d="M729.36,659.09a.56.56,0,0,0-.47-.62c-.25,0-.46.28-.46.62s.21.62.46.62A.56.56,0,0,0,729.36,659.09Z"/><path class="cls-48" d="M729.2,621.81c0-.23-.14-.41-.31-.41s-.3.18-.3.41.13.41.3.41S729.2,622,729.2,621.81Z"/><path class="cls-48" d="M729.05,584.54c0-.12-.07-.21-.16-.21s-.15.09-.15.21.07.2.15.2A.18.18,0,0,0,729.05,584.54Z"/></g></g><rect class="cls-43" x="-0.65" y="-8" width="1080.33" height="1928.85"/></g></g></svg>